<svg width="244" height="81" viewBox="0 0 244 81" fill="none" xmlns="http://www.w3.org/2000/svg">
<g clip-path="url(#clip0_3879_8193)">
<path d="M89.1963 63.9999H60.5419C61.0577 66.4338 62.2735 68.3514 64.1986 69.7619C66.1236 71.1725 68.5184 71.8824 71.3829 71.8824C73.354 71.8824 75.104 71.5781 76.6238 70.9697C78.1527 70.3612 79.5712 69.4024 80.8791 68.084L86.7187 74.6481C83.1541 78.8797 77.9409 81.0002 71.0882 81.0002C66.8144 81.0002 63.038 80.1336 59.7498 78.4096C56.4616 76.6856 53.9287 74.2886 52.1418 71.2186C50.3549 68.1578 49.4707 64.6729 49.4707 60.7824C49.4707 56.8919 50.3549 53.4716 52.1142 50.3832C53.8734 47.2947 56.2866 44.8885 59.363 43.1553C62.4393 41.4313 65.8749 40.5647 69.6789 40.5647C73.4829 40.5647 76.7435 41.3944 79.7462 43.0447C82.7489 44.6949 85.1068 47.0735 86.82 50.1619C88.5332 53.2503 89.3898 56.8366 89.3898 60.9299C89.3898 61.0774 89.3161 62.1008 89.1779 63.9907L89.1963 63.9999ZM63.4986 51.3696C61.813 52.8263 60.7722 54.8268 60.4038 57.3529H79.0646C78.687 54.8729 77.6554 52.8908 75.9698 51.4065C74.2843 49.9222 72.2119 49.1847 69.771 49.1847C67.3302 49.1847 65.1933 49.913 63.5078 51.3696H63.4986Z" fill="url(#paint0_linear_3879_8193)"/>
<path d="M124.427 43.0907C127.31 44.7686 129.576 47.1287 131.225 50.171C132.864 53.2134 133.693 56.7536 133.693 60.7916C133.693 64.8296 132.873 68.3698 131.225 71.4121C129.585 74.4545 127.319 76.8146 124.427 78.4925C121.535 80.1704 118.339 81.0093 114.82 81.0093C109.607 81.0093 105.647 79.3038 102.92 75.9019V80.4285H92.4293V26.2656H103.418V45.3125C106.19 42.1503 109.985 40.5646 114.82 40.5646C118.339 40.5646 121.544 41.4036 124.427 43.0815V43.0907ZM119.85 68.7109C121.655 66.738 122.557 64.1013 122.557 60.7916C122.557 57.4819 121.655 54.8452 119.85 52.8723C118.044 50.8994 115.732 49.9129 112.914 49.9129C110.095 49.9129 107.784 50.8994 105.978 52.8723C104.173 54.8452 103.27 57.4819 103.27 60.7916C103.27 64.1013 104.173 66.738 105.978 68.7109C107.784 70.6838 110.095 71.6702 112.914 71.6702C115.732 71.6702 118.044 70.6838 119.85 68.7109Z" fill="url(#paint1_linear_3879_8193)"/>
<path d="M145.98 78.4096C142.812 76.6856 140.334 74.2886 138.556 71.2186C136.769 68.1578 135.885 64.6729 135.885 60.7824C135.885 56.8919 136.779 53.4071 138.556 50.3463C140.343 47.2855 142.812 44.8885 145.98 43.1553C149.149 41.4313 152.722 40.5647 156.72 40.5647C160.717 40.5647 164.273 41.4313 167.423 43.1553C170.563 44.8793 173.032 47.2763 174.819 50.3463C176.606 53.4071 177.49 56.8919 177.49 60.7824C177.49 64.6729 176.596 68.1578 174.819 71.2186C173.032 74.2794 170.573 76.6764 167.423 78.4096C164.282 80.1336 160.708 81.0002 156.72 81.0002C152.732 81.0002 149.149 80.1336 145.98 78.4096ZM163.655 68.7017C165.461 66.7288 166.363 64.0921 166.363 60.7824C166.363 57.4727 165.461 54.836 163.655 52.8631C161.85 50.8902 159.538 49.9038 156.72 49.9038C153.901 49.9038 151.58 50.8902 149.747 52.8631C147.914 54.836 147.003 57.4727 147.003 60.7824C147.003 64.0921 147.914 66.7288 149.747 68.7017C151.58 70.6746 153.901 71.6611 156.72 71.6611C159.538 71.6611 161.85 70.6746 163.655 68.7017Z" fill="url(#paint2_linear_3879_8193)"/>
<path d="M195.322 42.0304C197.551 41.0531 200.12 40.5737 203.031 40.5737V51.0836C201.806 50.9822 200.986 50.9361 200.563 50.9361C197.422 50.9361 194.953 51.8488 193.166 53.6742C191.379 55.4996 190.495 58.2377 190.495 61.8885V80.4284H179.516V41.1545H190.007V46.3357C191.324 44.4366 193.093 43.0076 195.322 42.0304Z" fill="url(#paint3_linear_3879_8193)"/>
<path d="M239.671 44.9529C242.554 47.8753 244 52.1992 244 57.9427V80.4192H233.012V59.6944C233.012 56.5783 232.358 54.255 231.041 52.7247C229.724 51.1943 227.826 50.4291 225.339 50.4291C222.567 50.4291 220.366 51.3141 218.717 53.0934C217.077 54.8727 216.248 57.5094 216.248 61.0127V80.4284H205.26V41.1545H215.751V45.7549C217.206 44.1047 219.012 42.8232 221.176 41.9197C223.331 41.0163 225.708 40.5737 228.287 40.5737C232.984 40.5737 236.77 42.0304 239.653 44.9529H239.671Z" fill="url(#paint4_linear_3879_8193)"/>
<path d="M37.4046 61.5105C40.7573 60.0539 43.3455 57.9427 45.1692 55.1953C46.9929 52.448 47.9048 49.1752 47.9048 45.3769C47.9048 41.5786 47.0021 38.2965 45.206 35.5215C43.4376 32.7926 40.9231 30.6814 37.6717 29.1787C39.6336 32.2118 40.7573 35.7612 40.7573 39.5411C40.7573 50.7517 30.9018 59.8418 18.7438 59.8418C12.895 59.8418 7.58963 57.7398 3.64746 54.3103V77.9207H15.4555V63.6862H26.3241L36.1704 77.9207H48.8535L37.4046 61.5013V61.5105Z" fill="url(#paint5_linear_3879_8193)"/>
<path d="M8.75936 42.5744C10.7028 48.1889 16.2292 51.9965 22.4188 51.5263C28.9031 51.0377 33.9598 45.9763 34.6966 39.7441C34.8716 40.4725 35.0006 41.2377 35.065 42.0305C35.6453 49.7378 29.8794 56.4678 22.1793 57.0486C14.6726 57.6202 7.43302 51.1575 8.76857 42.5652L8.75936 42.5744Z" fill="url(#paint6_linear_3879_8193)"/>
<path d="M0.451348 42.2149C2.41322 49.6732 9.18307 55.131 17.2332 55.131C25.2833 55.131 32.7071 49.0832 34.2637 41.0994C34.4111 42.0582 34.5124 43.0631 34.5124 44.0956C34.5124 54.1169 26.3886 62.2575 16.3674 62.2575C6.34618 62.2575 -2.10922 53.195 0.451348 42.2149Z" fill="url(#paint7_linear_3879_8193)"/>
<path d="M13.1344 63.3822C23.6254 63.963 34.3742 54.9742 34.3742 44.4459C34.3742 33.9176 26.1951 26.1642 16.1094 26.1642L19.5819 23.592C31.5097 23.592 41.1717 33.2907 41.1717 45.2019C41.1717 50.6412 39.1546 55.6288 35.8387 59.4271C30.0544 66.0465 20.9911 66.6273 13.1436 63.3822H13.1344Z" fill="url(#paint8_linear_3879_8193)"/>
<path d="M56.5076 31.3546C56.1299 32.2119 53.4404 34.4983 49.664 34.8302C52.3351 46.5663 45.3626 59.6391 33.7111 63.2623C51.4509 43.57 31.2427 22.163 15.474 30.1929C17.6846 27.6208 17.3069 25.0578 17.3069 25.0578C19.978 23.6196 22.336 21.5545 24.1505 19.1668C31.7032 18.9178 35.627 24.6614 41.5586 28.5335C45.2613 30.9766 49.5074 33.0878 56.5076 31.3546Z" fill="url(#paint9_linear_3879_8193)"/>
<path d="M39.8731 41.9844C36.6033 30.6724 23.0912 24.007 12.7753 31.9078C11.32 33.0141 10.7121 34.2034 10.4818 34.0467L14.8569 27.667L14.5069 22.3659L18.1819 19.4434C18.8635 19.8214 19.3885 20.0703 19.3885 20.0703C20.1162 19.6647 20.8715 19.3144 21.6267 18.9917C31.694 22.0894 39.1362 31.1057 39.8639 41.9844H39.8731Z" fill="url(#paint10_linear_3879_8193)"/>
<path d="M16.5977 28.4873C16.1464 29.4184 15.4188 30.4233 14.2582 31.3821L16.349 20.9091L8.02258 20.78C14.1661 11.736 29.1334 7.53203 43.1705 15.9953C40.6836 15.9492 36.5573 15.313 33.1861 16.4193C43.7324 18.4568 53.1641 23.2416 63.1761 16.1428C59.805 27.5469 52.1601 30.2666 43.2718 28.8653C35.0651 27.5838 24.5281 21.7849 16.5977 28.4873Z" fill="url(#paint11_linear_3879_8193)"/>
<path d="M16.5976 28.4875C16.3489 29.0406 15.9713 29.6215 15.4647 30.2023C17.6753 27.6301 17.2976 25.0672 17.2976 25.0672C19.9687 23.629 22.3267 21.5639 24.1412 19.1761C30.7821 18.9456 34.0334 23.9885 38.7861 27.8882C31.4637 25.9522 23.1372 22.956 16.5976 28.4967V28.4875Z" fill="url(#paint12_linear_3879_8193)"/>
<path d="M9.05408 19.4157C9.28434 19.1391 9.5054 18.8902 9.73567 18.6136C15.6489 12.1878 24.1043 11.3857 24.3806 0C28.7097 5.41168 28.461 11.69 25.6425 16.8527L19.0016 18.5859L9.06329 19.4157H9.05408Z" fill="url(#paint13_linear_3879_8193)"/>
<path d="M27.5215 11.4042C19.499 11.3581 12.4528 14.8337 8.50146 20.1163C7.42381 21.573 6.43827 23.2877 5.858 25.1039C5.27773 26.9201 5.10272 28.8285 5.50799 30.6447C5.58168 30.9766 6.33695 31.7786 7.01854 32.4793C6.56722 37.9463 8.40015 41.2652 8.40015 41.2652C8.40015 41.2652 9.70806 34.7196 13.7884 31.7418C17.8687 28.7732 17.3069 25.0394 17.3069 25.0394C22.5662 22.1907 26.6373 17.0095 27.5215 11.3857V11.4042ZM12.066 27.1967C11.7897 27.9527 11.891 28.0264 11.891 28.8838C10.7304 29.944 9.34885 31.456 9.34885 31.456L9.6528 30.5986C9.6528 29.3355 9.88306 28.8654 10.4541 27.9066C11.1818 26.6989 12.3884 25.0855 13.5765 24.0068C12.9686 25.0671 12.3423 26.4776 12.066 27.2059V27.1967Z" fill="url(#paint14_linear_3879_8193)"/>
</g>
<defs>
<linearGradient id="paint0_linear_3879_8193" x1="68.7855" y1="24.5325" x2="69.7913" y2="79.6265" gradientUnits="userSpaceOnUse">
<stop stop-color="#F4F4F4"/>
<stop offset="1" stop-color="white"/>
</linearGradient>
<linearGradient id="paint1_linear_3879_8193" x1="112.205" y1="23.7396" x2="113.21" y2="78.8704" gradientUnits="userSpaceOnUse">
<stop stop-color="#F4F4F4"/>
<stop offset="1" stop-color="white"/>
</linearGradient>
<linearGradient id="paint2_linear_3879_8193" x1="155.992" y1="22.9468" x2="156.998" y2="78.0315" gradientUnits="userSpaceOnUse">
<stop stop-color="#F4F4F4"/>
<stop offset="1" stop-color="white"/>
</linearGradient>
<linearGradient id="paint3_linear_3879_8193" x1="190.578" y1="22.3105" x2="191.584" y2="77.4044" gradientUnits="userSpaceOnUse">
<stop stop-color="#F4F4F4"/>
<stop offset="1" stop-color="white"/>
</linearGradient>
<linearGradient id="paint4_linear_3879_8193" x1="223.773" y1="21.7112" x2="224.779" y2="76.796" gradientUnits="userSpaceOnUse">
<stop stop-color="#F4F4F4"/>
<stop offset="1" stop-color="white"/>
</linearGradient>
<linearGradient id="paint5_linear_3879_8193" x1="25.7347" y1="53.6834" x2="26.233" y2="77.2938" gradientUnits="userSpaceOnUse">
<stop stop-color="#E5E6E7"/>
<stop offset="1" stop-color="white"/>
</linearGradient>
<linearGradient id="paint6_linear_3879_8193" x1="32.6242" y1="53.2779" x2="16.2188" y2="41.4088" gradientUnits="userSpaceOnUse">
<stop stop-color="#E5E6E7"/>
<stop offset="1" stop-color="white"/>
</linearGradient>
<linearGradient id="paint7_linear_3879_8193" x1="44.7455" y1="44.0495" x2="17.3043" y2="50.4088" gradientUnits="userSpaceOnUse">
<stop stop-color="#E5E6E7"/>
<stop offset="1" stop-color="white"/>
</linearGradient>
<linearGradient id="paint8_linear_3879_8193" x1="38.7585" y1="36.2316" x2="26.5401" y2="42.7494" gradientUnits="userSpaceOnUse">
<stop stop-color="#E5E6E7"/>
<stop offset="1" stop-color="white"/>
</linearGradient>
<linearGradient id="paint9_linear_3879_8193" x1="26.886" y1="19.1114" x2="54.0192" y2="61.0267" gradientUnits="userSpaceOnUse">
<stop stop-color="#E5E6E7"/>
<stop offset="1" stop-color="white"/>
</linearGradient>
<linearGradient id="paint10_linear_3879_8193" x1="6.78833" y1="23.8502" x2="31.2093" y2="30.8725" gradientUnits="userSpaceOnUse">
<stop stop-color="#E5E6E7"/>
<stop offset="1" stop-color="white"/>
</linearGradient>
<linearGradient id="paint11_linear_3879_8193" x1="7.22125" y1="30.2482" x2="50.3906" y2="15.706" gradientUnits="userSpaceOnUse">
<stop stop-color="#E5E6E7"/>
<stop offset="1" stop-color="white"/>
</linearGradient>
<linearGradient id="paint12_linear_3879_8193" x1="22.5938" y1="30.3774" x2="32.1334" y2="23.0198" gradientUnits="userSpaceOnUse">
<stop stop-color="#E5E6E7"/>
<stop offset="1" stop-color="white"/>
</linearGradient>
<linearGradient id="paint13_linear_3879_8193" x1="18.8542" y1="12.6672" x2="20.1922" y2="6.14048" gradientUnits="userSpaceOnUse">
<stop stop-color="#F4F4F4"/>
<stop offset="1" stop-color="white"/>
</linearGradient>
<linearGradient id="paint14_linear_3879_8193" x1="7.17513" y1="39.744" x2="18.3187" y2="15.3025" gradientUnits="userSpaceOnUse">
<stop stop-color="#F4F4F4"/>
<stop offset="1" stop-color="white"/>
</linearGradient>
<clipPath id="clip0_3879_8193">
<rect width="244" height="81" fill="white"/>
</clipPath>
</defs>
</svg>
