<svg width="265" height="88" viewBox="0 0 265 88" fill="none" xmlns="http://www.w3.org/2000/svg">
<g clip-path="url(#clip0_2911_9527)">
<path d="M96.34 69.0999H65.23C65.79 71.7399 67.11 73.8199 69.2 75.3499C71.29 76.8799 73.89 77.6499 77 77.6499C79.14 77.6499 81.04 77.3199 82.69 76.6599C84.35 75.9999 85.89 74.9599 87.31 73.5299L93.65 80.6499C89.78 85.2399 84.12 87.5399 76.68 87.5399C72.04 87.5399 67.94 86.5999 64.37 84.7299C60.8 82.8599 58.05 80.2599 56.11 76.9299C54.17 73.6099 53.21 69.8299 53.21 65.6099C53.21 61.3899 54.17 57.6799 56.08 54.3299C57.99 50.9799 60.61 48.3699 63.95 46.4899C67.29 44.6199 71.02 43.6799 75.15 43.6799C79.28 43.6799 82.82 44.5799 86.08 46.3699C89.34 48.1599 91.9 50.7399 93.76 54.0899C95.62 57.4399 96.55 61.3299 96.55 65.7699C96.55 65.9299 96.47 67.0399 96.32 69.0899L96.34 69.0999ZM68.44 55.3999C66.61 56.9799 65.48 59.1499 65.08 61.8899H85.34C84.93 59.1999 83.81 57.0499 81.98 55.4399C80.15 53.8299 77.9 53.0299 75.25 53.0299C72.6 53.0299 70.28 53.8199 68.45 55.3999H68.44Z" fill="url(#paint0_linear_2911_9527)"/>
<path d="M134.59 46.4199C137.72 48.2399 140.18 50.7999 141.97 54.0999C143.75 57.3999 144.65 61.2399 144.65 65.6199C144.65 69.9999 143.76 73.8399 141.97 77.1399C140.19 80.4399 137.73 82.9999 134.59 84.8199C131.45 86.6399 127.98 87.5499 124.16 87.5499C118.5 87.5499 114.2 85.6999 111.24 82.0099V86.9199H99.85V28.1699H111.78V48.8299C114.79 45.3999 118.91 43.6799 124.16 43.6799C127.98 43.6799 131.46 44.5899 134.59 46.4099V46.4199ZM129.62 74.2099C131.58 72.0699 132.56 69.2099 132.56 65.6199C132.56 62.0299 131.58 59.1699 129.62 57.0299C127.66 54.8899 125.15 53.8199 122.09 53.8199C119.03 53.8199 116.52 54.8899 114.56 57.0299C112.6 59.1699 111.62 62.0299 111.62 65.6199C111.62 69.2099 112.6 72.0699 114.56 74.2099C116.52 76.3499 119.03 77.4199 122.09 77.4199C125.15 77.4199 127.66 76.3499 129.62 74.2099Z" fill="url(#paint1_linear_2911_9527)"/>
<path d="M157.99 84.7299C154.55 82.8599 151.86 80.2599 149.93 76.9299C147.99 73.6099 147.03 69.8299 147.03 65.6099C147.03 61.3899 148 57.6099 149.93 54.2899C151.87 50.9699 154.55 48.3699 157.99 46.4899C161.43 44.6199 165.31 43.6799 169.65 43.6799C173.99 43.6799 177.85 44.6199 181.27 46.4899C184.68 48.3599 187.36 50.9599 189.3 54.2899C191.24 57.6099 192.2 61.3899 192.2 65.6099C192.2 69.8299 191.23 73.6099 189.3 76.9299C187.36 80.2499 184.69 82.8499 181.27 84.7299C177.86 86.5999 173.98 87.5399 169.65 87.5399C165.32 87.5399 161.43 86.5999 157.99 84.7299ZM177.18 74.1999C179.14 72.0599 180.12 69.1999 180.12 65.6099C180.12 62.0199 179.14 59.1599 177.18 57.0199C175.22 54.8799 172.71 53.8099 169.65 53.8099C166.59 53.8099 164.07 54.8799 162.08 57.0199C160.09 59.1599 159.1 62.0199 159.1 65.6099C159.1 69.1999 160.09 72.0599 162.08 74.1999C164.07 76.3399 166.59 77.4099 169.65 77.4099C172.71 77.4099 175.22 76.3399 177.18 74.1999Z" fill="url(#paint2_linear_2911_9527)"/>
<path d="M211.56 45.2699C213.98 44.2099 216.77 43.6899 219.93 43.6899V55.0899C218.6 54.9799 217.71 54.9299 217.25 54.9299C213.84 54.9299 211.16 55.9199 209.22 57.8999C207.28 59.8799 206.32 62.8499 206.32 66.8099V86.9199H194.4V44.3199H205.79V49.9399C207.22 47.8799 209.14 46.3299 211.56 45.2699Z" fill="url(#paint3_linear_2911_9527)"/>
<path d="M259.71 48.4399C262.84 51.6099 264.41 56.2999 264.41 62.5299V86.9099H252.48V64.4299C252.48 61.0499 251.77 58.5299 250.34 56.8699C248.91 55.2099 246.85 54.3799 244.15 54.3799C241.14 54.3799 238.75 55.3399 236.96 57.2699C235.18 59.1999 234.28 62.0599 234.28 65.8599V86.9199H222.35V44.3199H233.74V49.3099C235.32 47.5199 237.28 46.1299 239.63 45.1499C241.97 44.1699 244.55 43.6899 247.35 43.6899C252.45 43.6899 256.56 45.2699 259.69 48.4399H259.71Z" fill="url(#paint4_linear_2911_9527)"/>
<path d="M40.11 66.4001C43.75 64.8201 46.56 62.5301 48.54 59.5501C50.52 56.5701 51.51 53.0201 51.51 48.9001C51.51 44.7801 50.53 41.2201 48.58 38.2101C46.66 35.2501 43.93 32.9601 40.4 31.3301C42.53 34.6201 43.75 38.4701 43.75 42.5701C43.75 54.7301 33.05 64.5901 19.85 64.5901C13.5 64.5901 7.73996 62.3101 3.45996 58.5901V84.2001H16.28V68.7601H28.08L38.77 84.2001H52.54L40.11 66.3901V66.4001Z" fill="url(#paint5_linear_2911_9527)"/>
<path d="M9.51006 46.1801C11.6201 52.2701 17.6201 56.4001 24.3401 55.8901C31.3801 55.3601 36.8701 49.8701 37.6701 43.1101C37.8601 43.9001 38.0001 44.7301 38.0701 45.5901C38.7001 53.9501 32.4401 61.2501 24.0801 61.8801C15.7201 62.5101 8.07006 55.4901 9.52006 46.1701L9.51006 46.1801Z" fill="url(#paint6_linear_2911_9527)"/>
<path d="M0.490002 45.7901C2.62 53.8801 9.97 59.8001 18.71 59.8001C27.45 59.8001 35.51 53.2401 37.2 44.5801C37.36 45.6201 37.47 46.7101 37.47 47.8301C37.47 58.7001 28.65 67.5301 17.77 67.5301C6.89 67.5301 -2.29 57.7001 0.490002 45.7901Z" fill="url(#paint7_linear_2911_9527)"/>
<path d="M14.26 68.7501C25.65 69.3801 37.32 59.6301 37.32 48.2101C37.32 36.7901 28.44 28.3801 17.49 28.3801L21.26 25.5901C34.21 25.5901 44.7 36.1101 44.7 49.0301C44.7 54.9301 42.51 60.3401 38.91 64.4601C32.63 71.6401 22.79 72.2701 14.27 68.7501H14.26Z" fill="url(#paint8_linear_2911_9527)"/>
<path d="M61.35 34.01C60.94 34.94 58.02 37.42 53.92 37.78C56.82 50.51 49.25 64.69 36.6 68.62C55.86 47.26 33.92 24.04 16.8 32.75C19.2 29.96 18.7901 27.18 18.7901 27.18C21.6901 25.62 24.25 23.38 26.22 20.79C34.42 20.52 38.68 26.75 45.12 30.95C49.14 33.6 53.75 35.89 61.35 34.01Z" fill="url(#paint9_linear_2911_9527)"/>
<path d="M43.29 45.5401C39.74 33.2701 25.07 26.0401 13.87 34.6101C12.29 35.8101 11.63 37.1001 11.38 36.9301L12.34 30.5101L15.75 24.2501L19.74 21.0801C20.48 21.4901 21.05 21.7601 21.05 21.7601C21.84 21.3201 22.66 20.9401 23.48 20.5901C34.41 23.9501 42.49 33.7301 43.28 45.5301L43.29 45.5401Z" fill="url(#paint10_linear_2911_9527)"/>
<path d="M18.02 30.9001C17.53 31.9101 16.74 33.0001 15.48 34.0401L17.75 22.6801L8.70996 22.5401C15.38 12.7301 31.63 8.17008 46.87 17.3501C44.17 17.3001 39.69 16.6101 36.03 17.8101C47.48 20.0201 57.72 25.2101 68.59 17.5101C64.93 29.8801 56.63 32.8301 46.98 31.3101C38.07 29.9201 26.63 23.6301 18.02 30.9001Z" fill="url(#paint11_linear_2911_9527)"/>
<path d="M18.02 30.9C17.75 31.5 17.34 32.13 16.79 32.76C19.19 29.97 18.78 27.19 18.78 27.19C21.68 25.63 24.24 23.39 26.21 20.8C33.42 20.55 36.95 26.02 42.11 30.25C34.16 28.15 25.12 24.9 18.02 30.91V30.9Z" fill="url(#paint12_linear_2911_9527)"/>
<path d="M9.82996 21.06C10.08 20.76 10.32 20.49 10.57 20.19C16.99 13.22 26.17 12.35 26.47 0C31.17 5.87 30.9 12.68 27.84 18.28L20.63 20.16L9.83996 21.06H9.82996Z" fill="url(#paint13_linear_2911_9527)"/>
<path d="M18.79 27.1801C18.79 27.1801 19.39 31.2201 14.97 34.4501C10.54 37.6701 9.12001 44.7801 9.12001 44.7801C9.12001 44.7801 7.13001 41.1701 7.62001 35.2501C6.88001 34.4901 6.06001 33.6101 5.98001 33.2601C5.54001 31.2901 5.73001 29.2201 6.36001 27.2501C6.99001 25.2801 8.05001 23.4301 9.23001 21.8401C13.52 16.1001 21.17 12.3301 29.88 12.3901C28.92 18.4801 24.5 24.1101 18.79 27.2001V27.1801Z" fill="url(#paint14_linear_2911_9527)"/>
<path d="M10.15 34.12C10.15 34.12 11.65 32.48 12.91 31.33C12.91 30.4 12.8 30.32 13.1 29.5C13.4 28.71 14.08 27.18 14.74 26.03C13.46 27.2 12.14 28.95 11.35 30.26C10.72 31.3 10.48 31.82 10.48 33.18L10.15 34.11V34.12Z" fill="white"/>
</g>
<defs>
<linearGradient id="paint0_linear_2911_9527" x1="75.77" y1="93.2499" x2="72.59" y2="-7.26007" gradientUnits="userSpaceOnUse">
<stop stop-color="#D83832"/>
<stop offset="0.37" stop-color="#E58D3E"/>
<stop offset="1" stop-color="#F8EB56"/>
</linearGradient>
<linearGradient id="paint1_linear_2911_9527" x1="122.74" y1="91.7699" x2="119.57" y2="-8.74008" gradientUnits="userSpaceOnUse">
<stop stop-color="#D83832"/>
<stop offset="0.37" stop-color="#E58D3E"/>
<stop offset="1" stop-color="#F8EB56"/>
</linearGradient>
<linearGradient id="paint2_linear_2911_9527" x1="170.38" y1="90.2599" x2="167.21" y2="-10.2501" gradientUnits="userSpaceOnUse">
<stop stop-color="#D83832"/>
<stop offset="0.37" stop-color="#E58D3E"/>
<stop offset="1" stop-color="#F8EB56"/>
</linearGradient>
<linearGradient id="paint3_linear_2911_9527" x1="207.91" y1="89.0799" x2="204.74" y2="-11.4301" gradientUnits="userSpaceOnUse">
<stop stop-color="#D83832"/>
<stop offset="0.37" stop-color="#E58D3E"/>
<stop offset="1" stop-color="#F8EB56"/>
</linearGradient>
<linearGradient id="paint4_linear_2911_9527" x1="243.81" y1="87.9399" x2="240.64" y2="-12.5701" gradientUnits="userSpaceOnUse">
<stop stop-color="#D83832"/>
<stop offset="0.37" stop-color="#E58D3E"/>
<stop offset="1" stop-color="#F8EB56"/>
</linearGradient>
<linearGradient id="paint5_linear_2911_9527" x1="28.39" y1="63.3601" x2="26.55" y2="100.98" gradientUnits="userSpaceOnUse">
<stop stop-color="#D83832"/>
<stop offset="0.37" stop-color="#E58D3E"/>
<stop offset="1" stop-color="#F8EB56"/>
</linearGradient>
<linearGradient id="paint6_linear_2911_9527" x1="42.7098" y1="47.2022" x2="11.3377" y2="55.6305" gradientUnits="userSpaceOnUse">
<stop stop-color="#D83832"/>
<stop offset="0.37" stop-color="#E58D3E"/>
<stop offset="1" stop-color="#F8EB56"/>
</linearGradient>
<linearGradient id="paint7_linear_2911_9527" x1="43.32" y1="50.3801" x2="1.92" y2="58.2001" gradientUnits="userSpaceOnUse">
<stop stop-color="#D83832"/>
<stop offset="0.37" stop-color="#E58D3E"/>
<stop offset="1" stop-color="#F8EB56"/>
</linearGradient>
<linearGradient id="paint8_linear_2911_9527" x1="35.45" y1="31.4601" x2="16.26" y2="74.3801" gradientUnits="userSpaceOnUse">
<stop stop-color="#D83832"/>
<stop offset="0.37" stop-color="#E58D3E"/>
<stop offset="1" stop-color="#F8EB56"/>
</linearGradient>
<linearGradient id="paint9_linear_2911_9527" x1="37.34" y1="29.72" x2="55.18" y2="67.42" gradientUnits="userSpaceOnUse">
<stop stop-color="#D83832"/>
<stop offset="0.37" stop-color="#E58D3E"/>
<stop offset="1" stop-color="#F8EB56"/>
</linearGradient>
<linearGradient id="paint10_linear_2911_9527" x1="20.16" y1="28.8301" x2="66.28" y2="79.6601" gradientUnits="userSpaceOnUse">
<stop stop-color="#D83832"/>
<stop offset="0.37" stop-color="#E58D3E"/>
<stop offset="1" stop-color="#F8EB56"/>
</linearGradient>
<linearGradient id="paint11_linear_2911_9527" x1="27.67" y1="11.1571" x2="39.572" y2="-5.84092" gradientUnits="userSpaceOnUse">
<stop stop-color="#D83832"/>
<stop offset="0.37" stop-color="#E58D3E"/>
<stop offset="1" stop-color="#F8EB56"/>
</linearGradient>
<linearGradient id="paint12_linear_2911_9527" x1="22.106" y1="14.78" x2="35.749" y2="-4.16698" gradientUnits="userSpaceOnUse">
<stop stop-color="#D83832"/>
<stop offset="0.37" stop-color="#E58D3E"/>
<stop offset="1" stop-color="#F8EB56"/>
</linearGradient>
<linearGradient id="paint13_linear_2911_9527" x1="16.79" y1="-0.19" x2="20.33" y2="16.48" gradientUnits="userSpaceOnUse">
<stop stop-color="#D83832"/>
<stop offset="0.37" stop-color="#E58D3E"/>
<stop offset="1" stop-color="#F8EB56"/>
</linearGradient>
<linearGradient id="paint14_linear_2911_9527" x1="2.89501" y1="16.2361" x2="17.554" y2="3.16811" gradientUnits="userSpaceOnUse">
<stop stop-color="#D83832"/>
<stop offset="0.37" stop-color="#E58D3E"/>
<stop offset="1" stop-color="#F8EB56"/>
</linearGradient>
<clipPath id="clip0_2911_9527">
<rect width="264.41" height="87.54" fill="white"/>
</clipPath>
</defs>
</svg>
