<svg width="35" height="42" viewBox="0 0 35 42" fill="none" xmlns="http://www.w3.org/2000/svg">
<path d="M20.1676 33.1548C21.9747 32.3697 23.3697 31.2317 24.3527 29.7509C25.3357 28.2701 25.8272 26.506 25.8272 24.4587C25.8272 22.4113 25.3407 20.6423 24.3726 19.1466C23.4194 17.6757 22.064 16.5377 20.3115 15.7277C21.369 17.3626 21.9747 19.2758 21.9747 21.3131C21.9747 27.3557 16.6625 32.2554 10.1092 32.2554C6.95666 32.2554 4.09703 31.1224 1.97217 29.2739V42.0001H8.33683V34.3276H14.1951L19.5023 42.0001H26.3386L20.1676 33.1499V33.1548Z" fill="url(#paint0_linear_4532_4818)"/>
<path d="M4.72736 22.9479C5.7749 25.9741 8.75368 28.0264 12.0899 27.773C15.585 27.5096 18.3106 24.7815 18.7078 21.4223C18.8021 21.8149 18.8716 22.2273 18.9064 22.6547C19.2191 26.809 16.1113 30.4365 11.9608 30.7496C7.91466 31.0577 4.01246 27.5742 4.73233 22.9429L4.72736 22.9479Z" fill="url(#paint1_linear_4532_4818)"/>
<path d="M0.249268 22.754C1.30674 26.7742 4.95574 29.7159 9.29483 29.7159C13.6339 29.7159 17.6354 26.4561 18.4744 22.1528C18.5539 22.6696 18.6085 23.2112 18.6085 23.7678C18.6085 29.1693 14.2297 33.5572 8.82816 33.5572C3.42663 33.5572 -1.1309 28.6724 0.249268 22.754Z" fill="url(#paint2_linear_4532_4818)"/>
<path d="M7.08545 34.1634C12.7402 34.4765 18.5339 29.6315 18.5339 23.9566C18.5339 18.2817 14.1253 14.1026 8.68903 14.1026L10.5607 12.7162C16.9899 12.7162 22.1978 17.9438 22.1978 24.3641C22.1978 27.2959 21.1105 29.9843 19.3233 32.0316C16.2055 35.5995 11.3203 35.9126 7.09041 34.1634H7.08545Z" fill="url(#paint3_linear_4532_4818)"/>
<path d="M30.4641 16.9005C30.2606 17.3626 28.8109 18.595 26.7754 18.7739C28.2151 25.0997 24.4569 32.1461 18.1767 34.099C27.7385 23.4847 16.8461 11.9461 8.34668 16.2743C9.53819 14.8879 9.33464 13.5065 9.33464 13.5065C10.7744 12.7313 12.0453 11.6182 13.0234 10.3311C17.0944 10.197 19.2093 13.2928 22.4065 15.3799C24.4023 16.6967 26.691 17.8347 30.4641 16.9005Z" fill="url(#paint4_linear_4532_4818)"/>
<path d="M21.4979 22.6299C19.7355 16.5327 12.4523 12.9399 6.89196 17.1985C6.10754 17.7948 5.77988 18.4359 5.65576 18.3514L8.01396 14.9127L7.82531 12.0554L9.8062 10.4801C10.1736 10.6839 10.4566 10.818 10.4566 10.818C10.8488 10.5994 11.2559 10.4106 11.663 10.2366C17.0893 11.9063 21.1007 16.7662 21.4929 22.6299H21.4979Z" fill="url(#paint5_linear_4532_4818)"/>
<path d="M8.95215 15.355C8.70889 15.8569 8.31668 16.3986 7.69114 16.9154L8.81811 11.2703L4.33008 11.2007C7.64149 6.32591 15.709 4.05994 23.2751 8.6217C21.9347 8.59685 19.7105 8.25398 17.8935 8.85028C23.578 9.94849 28.6618 12.5275 34.0583 8.70121C32.2413 14.8482 28.1206 16.3141 23.3297 15.5588C18.9062 14.868 13.2267 11.7424 8.95215 15.355Z" fill="url(#paint6_linear_4532_4818)"/>
<path d="M8.95245 15.3549C8.8184 15.653 8.61485 15.9661 8.3418 16.2792C9.53331 14.8927 9.32976 13.5113 9.32976 13.5113C10.7695 12.7361 12.0404 11.623 13.0185 10.336C16.598 10.2117 18.3505 12.9299 20.9123 15.0319C16.9654 13.9883 12.4773 12.3733 8.95245 15.3599V15.3549Z" fill="url(#paint7_linear_4532_4818)"/>
<path d="M4.88623 10.4652C5.01035 10.3161 5.1295 10.182 5.25361 10.0329C8.44091 6.56933 12.9984 6.13701 13.1474 0C15.4808 2.91694 15.3467 6.30099 13.8275 9.08377L10.248 10.018L4.8912 10.4652H4.88623Z" fill="url(#paint8_linear_4532_4818)"/>
<path d="M14.8402 6.14702C10.516 6.12218 6.71809 7.99558 4.58826 10.843C4.0074 11.6281 3.47618 12.5524 3.16341 13.5313C2.85064 14.5102 2.75631 15.5389 2.97475 16.5178C3.01447 16.6967 3.42157 17.129 3.78895 17.5067C3.54569 20.4535 4.53365 22.2424 4.53365 22.2424C4.53365 22.2424 5.23863 18.7142 7.43796 17.1092C9.63729 15.5091 9.33445 13.4965 9.33445 13.4965C12.1693 11.961 14.3636 9.16832 14.8402 6.13708V6.14702ZM6.50957 14.6593C6.36063 15.0668 6.41524 15.1066 6.41524 15.5687C5.7897 16.1402 5.045 16.9551 5.045 16.9551L5.20884 16.493C5.20884 15.8122 5.33295 15.5588 5.64076 15.042C6.03297 14.391 6.68333 13.5214 7.32377 12.94C6.99611 13.5114 6.65851 14.2717 6.50957 14.6643V14.6593Z" fill="url(#paint9_linear_4532_4818)"/>
<defs>
<linearGradient id="paint0_linear_4532_4818" x1="13.8774" y1="28.936" x2="14.146" y2="41.6622" gradientUnits="userSpaceOnUse">
<stop stop-color="#E5E6E7"/>
<stop offset="1" stop-color="white"/>
</linearGradient>
<linearGradient id="paint1_linear_4532_4818" x1="17.5907" y1="28.7171" x2="8.74805" y2="22.3196" gradientUnits="userSpaceOnUse">
<stop stop-color="#E5E6E7"/>
<stop offset="1" stop-color="white"/>
</linearGradient>
<linearGradient id="paint2_linear_4532_4818" x1="24.1242" y1="23.7429" x2="9.33315" y2="27.1706" gradientUnits="userSpaceOnUse">
<stop stop-color="#E5E6E7"/>
<stop offset="1" stop-color="white"/>
</linearGradient>
<linearGradient id="paint3_linear_4532_4818" x1="20.8971" y1="19.529" x2="14.3113" y2="23.0422" gradientUnits="userSpaceOnUse">
<stop stop-color="#E5E6E7"/>
<stop offset="1" stop-color="white"/>
</linearGradient>
<linearGradient id="paint4_linear_4532_4818" x1="14.4979" y1="10.3013" x2="29.1229" y2="32.894" gradientUnits="userSpaceOnUse">
<stop stop-color="#E5E6E7"/>
<stop offset="1" stop-color="white"/>
</linearGradient>
<linearGradient id="paint5_linear_4532_4818" x1="3.66494" y1="12.8554" x2="16.8281" y2="16.6405" gradientUnits="userSpaceOnUse">
<stop stop-color="#E5E6E7"/>
<stop offset="1" stop-color="white"/>
</linearGradient>
<linearGradient id="paint6_linear_4532_4818" x1="3.89816" y1="16.3041" x2="27.1668" y2="8.4658" gradientUnits="userSpaceOnUse">
<stop stop-color="#E5E6E7"/>
<stop offset="1" stop-color="white"/>
</linearGradient>
<linearGradient id="paint7_linear_4532_4818" x1="12.1844" y1="16.3736" x2="17.3264" y2="12.4078" gradientUnits="userSpaceOnUse">
<stop stop-color="#E5E6E7"/>
<stop offset="1" stop-color="white"/>
</linearGradient>
<linearGradient id="paint8_linear_4532_4818" x1="10.1686" y1="6.82773" x2="10.8898" y2="3.30977" gradientUnits="userSpaceOnUse">
<stop stop-color="#F4F4F4"/>
<stop offset="1" stop-color="white"/>
</linearGradient>
<linearGradient id="paint9_linear_4532_4818" x1="3.87335" y1="21.4225" x2="9.87984" y2="8.24824" gradientUnits="userSpaceOnUse">
<stop stop-color="#F4F4F4"/>
<stop offset="1" stop-color="white"/>
</linearGradient>
</defs>
</svg>
