<svg viewBox="0 0 24 24" fill="currentColor" xmlns="http://www.w3.org/2000/svg">
<path d="M15 0V6H21L15 0Z" fill="currentColor"/>
<path d="M15 7.5C14.1735 7.5 13.5 6.8265 13.5 6V0H4.5C3.6735 0 3 0.6735 3 1.5V22.5C3 23.328 3.6735 24 4.5 24H19.5C20.328 24 21 23.328 21 22.5V7.5H15ZM8.25 4.593V3.75C8.25 3.336 8.586 3 9 3C9.414 3 9.75 3.336 9.75 3.75V4.5945C10.2195 4.701 10.6575 4.899 11.019 5.193C11.3415 5.454 11.3895 5.9265 11.127 6.2475C10.8645 6.57 10.392 6.6165 10.0725 6.3555C9.789 6.126 9.408 6 9 6C8.187 6 7.5 6.5145 7.5 7.125C7.5 7.7355 8.187 8.25 9 8.25C10.6545 8.25 12 9.4275 12 10.875C12 12.0945 11.04 13.113 9.75 13.407V14.25C9.75 14.664 9.414 15 9 15C8.586 15 8.25 14.664 8.25 14.25V13.4055C7.7805 13.299 7.3425 13.101 6.981 12.807C6.6585 12.5445 6.6105 12.072 6.873 11.751C7.1355 11.427 7.6065 11.382 7.9275 11.643C8.211 11.874 8.592 12 9 12C9.813 12 10.5 11.4855 10.5 10.875C10.5 10.2645 9.813 9.75 9 9.75C7.3455 9.75 6 8.5725 6 7.125C6 5.9055 6.96 4.887 8.25 4.593ZM17.25 21H6.75C6.336 21 6 20.664 6 20.25C6 19.836 6.336 19.5 6.75 19.5H17.25C17.664 19.5 18 19.836 18 20.25C18 20.664 17.664 21 17.25 21ZM17.25 18H6.75C6.336 18 6 17.664 6 17.25C6 16.836 6.336 16.5 6.75 16.5H17.25C17.664 16.5 18 16.836 18 17.25C18 17.664 17.664 18 17.25 18ZM17.25 15H14.25C13.836 15 13.5 14.664 13.5 14.25C13.5 13.836 13.836 13.5 14.25 13.5H17.25C17.664 13.5 18 13.836 18 14.25C18 14.664 17.664 15 17.25 15ZM17.25 12H14.25C13.836 12 13.5 11.664 13.5 11.25C13.5 10.836 13.836 10.5 14.25 10.5H17.25C17.664 10.5 18 10.8345 18 11.25C18 11.664 17.664 12 17.25 12Z" fill="currentColor"/>
</svg>
