<svg width="24" height="24" viewBox="0 0 16 16" fill="none" xmlns="http://www.w3.org/2000/svg">
<path d="M11.5 8.00003H14C14.1326 8.00003 14.2598 8.05271 14.3536 8.14648C14.4473 8.24024 14.5 8.36742 14.5 8.50003V12.5C14.5 12.6326 14.4473 12.7598 14.3536 12.8536C14.2598 12.9474 14.1326 13 14 13H2C1.86739 13 1.74021 12.9474 1.64645 12.8536C1.55268 12.7598 1.5 12.6326 1.5 12.5V8.50003C1.5 8.36742 1.55268 8.24024 1.64645 8.14648C1.74021 8.05271 1.86739 8.00003 2 8.00003H4.5" stroke="#343330" stroke-width="1.5" stroke-linecap="round" stroke-linejoin="round"/>
<path d="M8 1.50003V8.00003" stroke="#343330" stroke-width="1.5" stroke-linecap="round" stroke-linejoin="round"/>
<path d="M5 5.00003L8 8.00003L11 5.00003" stroke="#343330" stroke-width="1.5" stroke-linecap="round" stroke-linejoin="round"/>
</svg>
