<svg width="40" height="40" viewBox="0 0 40 40" fill="none" xmlns="http://www.w3.org/2000/svg">
<rect width="40" height="40" rx="20" fill="#F8F8F8"/>
<path d="M17 26C17 26.7956 17.3161 27.5587 17.8787 28.1213C18.4413 28.6839 19.2044 29 20 29C20.7956 29 21.5587 28.6839 22.1213 28.1213C22.6839 27.5587 23 26.7956 23 26" stroke="#2C2C2C" stroke-width="1.5" stroke-linecap="round" stroke-linejoin="round"/>
<path d="M13.2499 17.75C13.2499 15.9598 13.961 14.2429 15.2269 12.977C16.4928 11.7112 18.2097 11 19.9999 11C21.7901 11 23.507 11.7112 24.7729 12.977C26.0387 14.2429 26.7499 15.9598 26.7499 17.75C26.7499 21.1081 27.528 23.8063 28.1468 24.875C28.2125 24.9888 28.2471 25.1179 28.2472 25.2493C28.2474 25.3808 28.2129 25.5099 28.1474 25.6239C28.0819 25.7378 27.9876 25.8325 27.874 25.8985C27.7603 25.9645 27.6313 25.9995 27.4999 26H12.4999C12.3686 25.9992 12.2399 25.964 12.1265 25.8978C12.0131 25.8317 11.919 25.7369 11.8537 25.6231C11.7885 25.5092 11.7542 25.3801 11.7544 25.2489C11.7546 25.1176 11.7892 24.9887 11.8549 24.875C12.4727 23.8063 13.2499 21.1072 13.2499 17.75Z" stroke="#2C2C2C" stroke-width="1.5" stroke-linecap="round" stroke-linejoin="round"/>
</svg>
