<svg viewBox="0 0 24 24" fill="none" xmlns="http://www.w3.org/2000/svg">
<path d="M17.458 7.93799L18 8.29926V6.375H16.5V8.29926C16.8008 8.13515 17.1508 7.72048 17.458 7.93799Z" fill="currentColor"/>
<path d="M21.75 6.375H18.75V9C18.7591 9.29002 18.4037 9.48093 18.167 9.31199C18.167 9.31201 17.25 8.70062 17.25 8.70062L16.333 9.31201C16.0957 9.48031 15.7411 9.29036 15.75 8.99998V6.375H12.375V14.5086C12.4049 14.2674 12.5103 14.0348 12.6942 13.8512L13.851 12.694C14.23 12.3018 14.8864 12.2552 15.3186 12.587C15.4002 12.0332 15.872 11.6243 16.4319 11.625H18.0681C18.628 11.6243 19.0999 12.0332 19.1814 12.587C19.614 12.2551 20.2698 12.3018 20.6488 12.694L21.806 13.8512C21.9897 14.0349 22.0951 14.2676 22.125 14.5089V6.75C22.125 6.54291 21.9571 6.375 21.75 6.375Z" fill="currentColor"/>
<path d="M5.45801 3.43799L6 3.79926V1.875H4.5V3.79926C4.80084 3.63515 5.15076 3.22048 5.45801 3.43799Z" fill="currentColor"/>
<path d="M8.625 1.875H6.75V4.5C6.75911 4.79002 6.40372 4.98093 6.16699 4.81199L5.25 4.20062L4.33301 4.81201C4.09605 4.98035 3.74091 4.79034 3.75 4.49998V1.875H2.25C2.04291 1.875 1.875 2.04291 1.875 2.25V11.625H8.625V1.875Z" fill="currentColor"/>
<path d="M8.25 14.25C8.2541 14.452 8.07591 14.629 7.875 14.625C7.72018 14.6671 6.89406 14.0213 6.75 13.9508L5.83301 14.562C5.71765 14.6385 5.56952 14.6459 5.44812 14.5807C5.32617 14.5155 5.25 14.3884 5.25 14.25V12.375H1.875V21.75C1.875 21.9573 2.04291 22.125 2.25 22.125H11.625V12.375H8.25V14.25Z" fill="currentColor"/>
<path d="M6.95801 13.188L7.5 13.5494V12.375H6V13.5494C6.30185 13.3846 6.65137 12.97 6.95801 13.188Z" fill="currentColor"/>
<path d="M10.875 9C10.875 9.20709 10.7071 9.375 10.5 9.375C10.2929 9.375 10.125 9.20709 10.125 9V8.625H9.375V11.625H11.625V8.625H10.875V9Z" fill="currentColor"/>
<path d="M21.8117 16.062L20.6212 15.8635C20.619 15.858 20.6166 15.8522 20.6142 15.8467L21.3157 14.8645C21.4221 14.7155 21.4052 14.5111 21.2756 14.3815L20.1185 13.2242C19.9893 13.095 19.7847 13.0778 19.6353 13.1843L18.6535 13.886C18.6478 13.8834 18.6422 13.8812 18.6365 13.8787L18.438 12.6885C18.4078 12.5076 18.2514 12.375 18.0681 12.375H16.4319C16.2486 12.375 16.0922 12.5076 16.062 12.6885L15.8635 13.8787C15.8578 13.8812 15.8522 13.8834 15.8465 13.886L14.8647 13.1843C14.7153 13.0778 14.5107 13.095 14.3815 13.2242L13.2244 14.3815C13.0948 14.5111 13.0779 14.7155 13.1845 14.8645L13.8858 15.8467C13.8836 15.8522 13.8812 15.8577 13.8788 15.8635L12.6883 16.062C12.5076 16.092 12.375 16.2484 12.375 16.4319V18.0681C12.375 18.2516 12.5076 18.408 12.6883 18.438L13.8788 18.6365C13.8812 18.642 13.8834 18.6478 13.8858 18.6533L13.1843 19.6355C13.0779 19.7845 13.0948 19.9889 13.2244 20.1185L14.3815 21.2758C14.5107 21.405 14.7153 21.4222 14.8647 21.3157L15.8465 20.614C15.8522 20.6166 15.8578 20.6188 15.8635 20.6213L16.062 21.8115C16.0922 21.9924 16.2486 22.125 16.4319 22.125H18.0681C18.2514 22.125 18.4078 21.9924 18.438 21.8115L18.6365 20.6213C18.6422 20.6188 18.6478 20.6166 18.6535 20.614L19.6353 21.3157C19.7847 21.4222 19.9893 21.405 20.1185 21.2758L21.2756 20.1185C21.4052 19.9889 21.4221 19.7845 21.3157 19.6355L20.6142 18.6533C20.6166 18.6478 20.6188 18.642 20.6212 18.6365L21.8117 18.438C21.9924 18.408 22.125 18.2516 22.125 18.0681V16.4319C22.125 16.2484 21.9924 16.092 21.8117 16.062ZM17.25 18.75C15.2673 18.6888 15.2677 15.8109 17.25 15.75C19.2327 15.8112 19.2323 18.6891 17.25 18.75Z" fill="currentColor"/>
</svg>
