<svg viewBox="0 0 24 24" fill="currentColor" xmlns="http://www.w3.org/2000/svg">
<g clip-path="url(#clip0_7255_1326)">
<path d="M14.4581 12.4599C14.1579 12.4512 13.8761 12.5676 13.6626 12.7861C13.6602 12.7887 13.6577 12.7911 13.6551 12.7936L12.5015 13.9227C12.4126 14.0098 12.2927 14.0601 12.1681 14.0564C12.0436 14.0549 11.9248 14.0039 11.838 13.9148L10.7379 12.7858C10.2781 12.3138 9.66828 12.4082 9.30345 12.7455C9.00626 13.0175 8.93712 13.3278 8.93112 13.5405C8.92226 13.855 9.04306 14.1643 9.26248 14.389L9.3244 14.4534L9.32337 14.4544C9.33523 14.4652 9.34713 14.4767 9.35909 14.4889L9.75499 14.8949C9.94526 15.0899 10.1359 15.2855 10.1823 15.3331C10.1855 15.3362 10.1887 15.3394 10.1919 15.3426C11.6557 16.8438 12.0462 17.2443 12.2282 17.4312C12.7996 16.8449 13.9324 15.6825 14.275 15.3313L14.2753 15.3316L14.2756 15.3313L14.2753 15.331C14.2776 15.3286 14.2799 15.3263 14.2822 15.324C14.285 15.3211 14.2877 15.3182 14.2906 15.3153L15.1878 14.3941C15.1896 14.3921 15.1915 14.3902 15.1933 14.3883C15.6076 13.9657 15.6274 13.2834 15.2385 12.835C15.0346 12.6019 14.757 12.4681 14.4581 12.4599Z" fill="currentColor"/>
<path d="M17.3906 0.046875H5.20312V23.9531H17.3906C18.4245 23.9531 19.2656 23.112 19.2656 22.0781V1.92188C19.2656 0.888 18.4245 0.046875 17.3906 0.046875ZM8.95317 5.42827H15.0469C15.3058 5.42827 15.5157 5.63812 15.5157 5.89702C15.5157 6.15591 15.3058 6.36577 15.0469 6.36577H8.95317C8.69428 6.36577 8.48442 6.15591 8.48442 5.89702C8.48442 5.63812 8.69428 5.42827 8.95317 5.42827ZM8.95317 7.77202H15.0469C15.3058 7.77202 15.5157 7.98187 15.5157 8.24077C15.5157 8.49966 15.3058 8.70952 15.0469 8.70952H8.95317C8.69428 8.70952 8.48442 8.49966 8.48442 8.24077C8.48442 7.98187 8.69428 7.77202 8.95317 7.77202ZM15.8658 15.0415L15.81 15.1005C15.8083 15.1023 15.8067 15.104 15.8051 15.1057C15.3007 15.6223 14.9612 15.9705 14.9469 15.9852C14.9467 15.9854 14.9464 15.9857 14.9461 15.986C14.5479 16.3942 13.0813 17.8991 12.671 18.3201L12.5633 18.4306C12.4751 18.5209 12.3542 18.5718 12.228 18.5718C12.2279 18.5718 12.2278 18.5718 12.2278 18.5718C12.1013 18.5717 11.9804 18.5206 11.8922 18.4302L11.6763 18.2084C11.5078 18.0353 11.3839 17.908 9.52997 16.0069C9.52627 16.0033 9.52266 15.9997 9.51909 15.996C9.5048 15.9813 8.66686 15.122 8.65139 15.1062C8.65036 15.1052 8.64933 15.1041 8.64834 15.1031L8.58905 15.0414C8.19591 14.6387 7.97808 14.0812 7.99402 13.5144C8.00972 12.9576 8.24934 12.4395 8.66883 12.0557C9.46809 11.3169 10.647 11.349 11.4094 12.1318L12.1816 12.9243L12.996 12.1273C13.3881 11.728 13.9293 11.508 14.484 11.523C15.0472 11.5385 15.5663 11.7858 15.9456 12.2195C16.6524 13.0343 16.6165 14.2725 15.8658 15.0415Z" fill="currentColor"/>
<path d="M1.45312 1.92188V4.73438H0.984375C0.725484 4.73438 0.515625 4.94423 0.515625 5.20312C0.515625 5.46202 0.725484 5.67188 0.984375 5.67188H1.45312V7.54688H0.984375C0.725484 7.54688 0.515625 7.75673 0.515625 8.01562C0.515625 8.27452 0.725484 8.48438 0.984375 8.48438H1.45312V10.3594H0.984375C0.725484 10.3594 0.515625 10.5692 0.515625 10.8281C0.515625 11.087 0.725484 11.2969 0.984375 11.2969H1.45312V13.1719H0.984375C0.725484 13.1719 0.515625 13.3818 0.515625 13.6406C0.515625 13.8995 0.725484 14.1094 0.984375 14.1094H1.45312V15.9844H0.984375C0.725484 15.9844 0.515625 16.1943 0.515625 16.4531C0.515625 16.712 0.725484 16.9219 0.984375 16.9219H1.45312V18.7969H0.984375C0.725484 18.7969 0.515625 19.0068 0.515625 19.2656C0.515625 19.5245 0.725484 19.7344 0.984375 19.7344H1.45312V22.0781C1.45312 23.112 2.29425 23.9531 3.32812 23.9531H4.26562V0.046875H3.32812C2.29425 0.046875 1.45312 0.888 1.45312 1.92188Z" fill="currentColor"/>
<path d="M22.2849 0.357984C22.2183 0.171422 22.0417 0.046875 21.8435 0.046875C21.6454 0.046875 21.4687 0.171422 21.4021 0.357984L20.3413 3.32812H23.3457L22.2849 0.357984Z" fill="currentColor"/>
<path d="M20.2031 22.3125C20.2031 23.2171 20.9391 23.9531 21.8438 23.9531C22.7484 23.9531 23.4844 23.2171 23.4844 22.3125V21.6094H20.2031V22.3125Z" fill="currentColor"/>
<path d="M20.2031 4.26562H23.4844V20.6719H20.2031V4.26562Z" fill="currentColor"/>
</g>
<defs>
<clipPath id="clip0_7255_1326">
<rect width="24" height="24" fill="white"/>
</clipPath>
</defs>
</svg>
