<svg viewBox="0 0 24 24" fill="currentColor" xmlns="http://www.w3.org/2000/svg">
<g clip-path="url(#clip0_4927_63)">
<path d="M13.7143 11.3401C13.5173 11.1873 13.3299 11.0227 13.1529 10.8472C12.9361 10.6309 12.7355 10.3988 12.5529 10.1529C12.3315 9.84528 12.3384 9.42874 12.57 9.12866L13.2514 8.24152C13.1829 8.09152 13.1143 7.93294 13.0586 7.77437L11.9486 7.62866C11.5716 7.57943 11.2718 7.28832 11.2114 6.91294C11.165 6.61089 11.1421 6.30569 11.1429 6.00009C11.1435 5.71335 11.1635 5.42698 11.2029 5.14294H0V20.5715H13.7143V11.3401ZM9.78429 19.7144H3C2.43168 19.7144 1.88664 19.4886 1.48477 19.0867C1.08291 18.6849 0.857143 18.1398 0.857143 17.5715V6.85723C0.858555 6.38443 1.24148 6.0015 1.71429 6.00009H9.42857C9.90137 6.0015 10.2843 6.38443 10.2857 6.85723V15.4758C11.3613 15.6934 12.098 16.6893 11.9914 17.7815C11.8564 18.8944 10.9053 19.7273 9.78429 19.7144Z" fill="currentColor"/>
<path d="M9.85721 16.2858H4.71436C4.99518 16.6553 5.14586 17.1074 5.14293 17.5715C5.14377 18.0353 4.9933 18.4867 4.71436 18.8572H9.78436C10.464 18.872 11.0463 18.3738 11.1369 17.7001C11.1733 17.3384 11.0549 16.9783 10.811 16.7088C10.5672 16.4393 10.2207 16.2856 9.85721 16.2858Z" fill="currentColor"/>
<path d="M3.94293 15.9086C4.08714 15.6143 4.38659 15.428 4.71436 15.4286H9.42864V6.85718H1.71436V17.5715C1.71562 18.1314 2.0791 18.6261 2.61305 18.7947C3.147 18.9632 3.72864 18.7668 4.05112 18.3091C4.37361 17.8513 4.36278 17.2375 4.02436 16.7915C3.82775 16.5381 3.79598 16.1937 3.94293 15.9086ZM3.42864 8.14289H7.71436C7.95105 8.14289 8.14293 8.33477 8.14293 8.57146C8.14293 8.80816 7.95105 9.00003 7.71436 9.00003H3.42864C3.19195 9.00003 3.00007 8.80816 3.00007 8.57146C3.00007 8.33477 3.19195 8.14289 3.42864 8.14289ZM3.42864 9.85718H7.71436C7.95105 9.85718 8.14293 10.0491 8.14293 10.2857C8.14293 10.5224 7.95105 10.7143 7.71436 10.7143H3.42864C3.19195 10.7143 3.00007 10.5224 3.00007 10.2857C3.00007 10.0491 3.19195 9.85718 3.42864 9.85718ZM3.42864 11.5715H7.71436C7.95105 11.5715 8.14293 11.7633 8.14293 12C8.14293 12.2367 7.95105 12.4286 7.71436 12.4286H3.42864C3.19195 12.4286 3.00007 12.2367 3.00007 12C3.00007 11.7633 3.19195 11.5715 3.42864 11.5715ZM3.00007 13.7143C3.00007 13.4776 3.19195 13.2857 3.42864 13.2857H5.14293C5.37962 13.2857 5.5715 13.4776 5.5715 13.7143C5.5715 13.951 5.37962 14.1429 5.14293 14.1429H3.42864C3.19195 14.1429 3.00007 13.951 3.00007 13.7143Z" fill="currentColor"/>
<path d="M0.938572 24H12.7757C13.2713 24.0218 13.6911 23.6384 13.7143 23.1429V21.4286H0V23.1429C0.0231447 23.6384 0.442947 24.0218 0.938572 24ZM6.42857 22.2857H7.28572C7.52241 22.2857 7.71429 22.4776 7.71429 22.7143C7.71429 22.951 7.52241 23.1429 7.28572 23.1429H6.42857C6.19188 23.1429 6 22.951 6 22.7143C6 22.4776 6.19188 22.2857 6.42857 22.2857Z" fill="currentColor"/>
<path d="M18.0002 3.42859C16.9602 3.42859 16.0225 4.0551 15.6245 5.01597C15.2265 5.97685 15.4465 7.08287 16.1819 7.81829C16.9174 8.55372 18.0234 8.77372 18.9843 8.37571C19.9451 7.9777 20.5716 7.04006 20.5716 6.00002C20.5716 4.57986 19.4204 3.42859 18.0002 3.42859ZM18.0002 7.28573C17.2901 7.28573 16.7145 6.7101 16.7145 6.00002C16.7145 5.28994 17.2901 4.7143 18.0002 4.7143C18.7103 4.7143 19.2859 5.28994 19.2859 6.00002C19.2838 6.70922 18.7094 7.28361 18.0002 7.28573Z" fill="currentColor"/>
<path d="M17.9999 6.42868C18.2366 6.42868 18.4284 6.2368 18.4284 6.0001C18.4284 5.76341 18.2366 5.57153 17.9999 5.57153C17.7632 5.57153 17.5713 5.76341 17.5713 6.0001C17.5713 6.2368 17.7632 6.42868 17.9999 6.42868Z" fill="currentColor"/>
<path d="M13.0586 4.22582C13.1143 4.06724 13.1829 3.90867 13.2514 3.75867L12.57 2.87153C12.3384 2.57145 12.3315 2.15491 12.5529 1.84724C12.5871 1.8001 12.6257 1.75724 12.66 1.71439H0.938571C0.442947 1.69258 0.0231447 2.07597 0 2.57153V4.28582H12.6129L13.0586 4.22582ZM6.85714 3.42867H4.71429C4.47759 3.42867 4.28571 3.23679 4.28571 3.0001C4.28571 2.76341 4.47759 2.57153 4.71429 2.57153H6.85714C7.09384 2.57153 7.28571 2.76341 7.28571 3.0001C7.28571 3.23679 7.09384 3.42867 6.85714 3.42867ZM9 3.42867H8.57143C8.33473 3.42867 8.14286 3.23679 8.14286 3.0001C8.14286 2.76341 8.33473 2.57153 8.57143 2.57153H9C9.23669 2.57153 9.42857 2.76341 9.42857 3.0001C9.42857 3.23679 9.23669 3.42867 9 3.42867Z" fill="currentColor"/>
<path d="M22.5643 5.04434C22.3959 5.02235 22.2564 4.903 22.2086 4.74006C22.1226 4.45345 22.0077 4.17631 21.8657 3.91292C21.7854 3.76469 21.8005 3.58294 21.9043 3.45006L22.7529 2.34863C22.597 2.13974 22.4265 1.94211 22.2429 1.7572C22.0569 1.56999 21.8563 1.39801 21.6429 1.24292L20.55 2.09577C20.4171 2.19954 20.2354 2.21469 20.0871 2.13434C19.8238 1.99234 19.5466 1.87747 19.26 1.79149C19.0971 1.74367 18.9777 1.60416 18.9557 1.43577L18.78 0.0600583C18.26 -0.0170898 17.7314 -0.0170898 17.2114 0.0600583L17.0443 1.43577C17.0223 1.60416 16.9029 1.74367 16.74 1.79149C16.4534 1.87747 16.1762 1.99234 15.9129 2.13434C15.7646 2.21469 15.5829 2.19954 15.45 2.09577L14.3486 1.2472C14.1387 1.40182 13.9409 1.57232 13.7571 1.7572C13.5711 1.94422 13.3992 2.14477 13.2429 2.3572L14.0957 3.45006C14.1995 3.58294 14.2146 3.76469 14.1343 3.91292C13.9923 4.17631 13.8774 4.45345 13.7914 4.74006C13.7436 4.903 13.6041 5.02235 13.4357 5.04434L12.06 5.22006C12.0205 5.47819 12.0005 5.73892 12 6.00006C12.0008 6.26402 12.0209 6.52758 12.06 6.78863L13.4357 6.95577C13.6041 6.97777 13.7436 7.09711 13.7914 7.26006C13.8774 7.54667 13.9923 7.82381 14.1343 8.0872C14.2146 8.23543 14.1995 8.41718 14.0957 8.55006L13.2471 9.65149C13.403 9.86037 13.5735 10.058 13.7571 10.2429C13.9431 10.4301 14.1437 10.6021 14.3571 10.7572L15.45 9.90434C15.5245 9.84573 15.6166 9.81401 15.7114 9.81434C15.7818 9.8147 15.851 9.83236 15.9129 9.86577C16.1762 10.0078 16.4534 10.1226 16.74 10.2086C16.9029 10.2564 17.0223 10.396 17.0443 10.5643L17.22 11.9401C17.74 12.0172 18.2686 12.0172 18.7886 11.9401L18.9557 10.5643C18.9777 10.396 19.0971 10.2564 19.26 10.2086C19.5466 10.1226 19.8238 10.0078 20.0871 9.86577C20.2354 9.78543 20.4171 9.80058 20.55 9.90434L21.6514 10.7529C21.8613 10.5983 22.0591 10.4278 22.2429 10.2429C22.4289 10.0559 22.6008 9.85535 22.7571 9.64292L21.9043 8.55006C21.8005 8.41718 21.7854 8.23543 21.8657 8.0872C22.0077 7.82381 22.1226 7.54667 22.2086 7.26006C22.2564 7.09711 22.3959 6.97777 22.5643 6.95577L23.94 6.78006L23.9443 6.77577C23.9804 6.51876 23.999 6.25959 24 6.00006C23.9992 5.73609 23.9791 5.47254 23.94 5.21149L22.5643 5.04434ZM18 9.42863C16.1065 9.42863 14.5714 7.89361 14.5714 6.00006C14.5714 4.10651 16.1065 2.57149 18 2.57149C19.8935 2.57149 21.4286 4.10651 21.4286 6.00006C21.426 7.89253 19.8925 9.42603 18 9.42863Z" fill="currentColor"/>
</g>
<defs>
<clipPath id="clip0_4927_63">
<rect width="24" height="24" fill="white"/>
</clipPath>
</defs>
</svg>
