<svg width="41" height="40" viewBox="0 0 41 40" fill="none" xmlns="http://www.w3.org/2000/svg">
<rect width="40" height="40" rx="20" fill="#EEEEEF"/>
<path d="M15.8333 16.6667C15.8333 16.4457 15.9211 16.2337 16.0774 16.0774C16.2337 15.9211 16.4457 15.8333 16.6667 15.8333H23.3333C23.5543 15.8333 23.7663 15.9211 23.9226 16.0774C24.0789 16.2337 24.1667 16.4457 24.1667 16.6667C24.1667 16.8877 24.0789 17.0996 23.9226 17.2559C23.7663 17.4122 23.5543 17.5 23.3333 17.5H16.6667C16.4457 17.5 16.2337 17.4122 16.0774 17.2559C15.9211 17.0996 15.8333 16.8877 15.8333 16.6667ZM16.6667 20.8333H23.3333C23.5543 20.8333 23.7663 20.7455 23.9226 20.5893C24.0789 20.433 24.1667 20.221 24.1667 20C24.1667 19.779 24.0789 19.567 23.9226 19.4107C23.7663 19.2545 23.5543 19.1667 23.3333 19.1667H16.6667C16.4457 19.1667 16.2337 19.2545 16.0774 19.4107C15.9211 19.567 15.8333 19.779 15.8333 20C15.8333 20.221 15.9211 20.433 16.0774 20.5893C16.2337 20.7455 16.4457 20.8333 16.6667 20.8333ZM20 22.5H16.6667C16.4457 22.5 16.2337 22.5878 16.0774 22.7441C15.9211 22.9004 15.8333 23.1123 15.8333 23.3333C15.8333 23.5543 15.9211 23.7663 16.0774 23.9226C16.2337 24.0789 16.4457 24.1667 16.6667 24.1667H20C20.221 24.1667 20.433 24.0789 20.5893 23.9226C20.7455 23.7663 20.8333 23.5543 20.8333 23.3333C20.8333 23.1123 20.7455 22.9004 20.5893 22.7441C20.433 22.5878 20.221 22.5 20 22.5ZM30 11.6667V22.9885C30.0007 23.2075 29.9579 23.4244 29.874 23.6266C29.7901 23.8289 29.6669 24.0125 29.5114 24.1667L24.1667 29.5114C24.0125 29.6669 23.8289 29.7901 23.6266 29.874C23.4244 29.9579 23.2075 30.0007 22.9885 30H11.6667C11.2246 30 10.8007 29.8244 10.4882 29.5118C10.1756 29.1993 10 28.7754 10 28.3333V11.6667C10 11.2246 10.1756 10.8007 10.4882 10.4882C10.8007 10.1756 11.2246 10 11.6667 10H28.3333C28.7754 10 29.1993 10.1756 29.5118 10.4882C29.8244 10.8007 30 11.2246 30 11.6667ZM11.6667 28.3333H22.5V23.3333C22.5 23.1123 22.5878 22.9004 22.7441 22.7441C22.9004 22.5878 23.1123 22.5 23.3333 22.5H28.3333V11.6667H11.6667V28.3333ZM24.1667 24.1667V27.1562L27.1552 24.1667H24.1667Z" fill="#6E6F6F"/>
<circle cx="32.9521" cy="32.8468" r="6.5625" fill="white" stroke="white" stroke-width="1.125"/>
<path d="M32.9521 26.8468C31.7655 26.8468 30.6054 27.1987 29.6187 27.858C28.632 28.5173 27.863 29.4543 27.4089 30.5507C26.9547 31.6471 26.8359 32.8535 27.0674 34.0173C27.299 35.1812 27.8704 36.2503 28.7095 37.0894C29.5486 37.9286 30.6177 38.5 31.7816 38.7315C32.9455 38.963 34.1519 38.8442 35.2483 38.3901C36.3446 37.936 37.2817 37.1669 37.941 36.1802C38.6003 35.1935 38.9521 34.0335 38.9521 32.8468C38.9505 31.256 38.3178 29.7309 37.1929 28.606C36.0681 27.4812 34.5429 26.8485 32.9521 26.8468ZM32.4906 30.0776C32.4906 29.9552 32.5392 29.8378 32.6258 29.7512C32.7123 29.6647 32.8297 29.616 32.9521 29.616C33.0746 29.616 33.192 29.6647 33.2785 29.7512C33.3651 29.8378 33.4137 29.9552 33.4137 30.0776V33.3083C33.4137 33.4307 33.3651 33.5481 33.2785 33.6347C33.192 33.7213 33.0746 33.7699 32.9521 33.7699C32.8297 33.7699 32.7123 33.7213 32.6258 33.6347C32.5392 33.5481 32.4906 33.4307 32.4906 33.3083V30.0776ZM32.9521 36.0776C32.8152 36.0776 32.6814 36.037 32.5675 35.9609C32.4537 35.8848 32.3649 35.7767 32.3125 35.6502C32.2601 35.5237 32.2464 35.3845 32.2731 35.2502C32.2999 35.1159 32.3658 34.9925 32.4626 34.8957C32.5594 34.7989 32.6828 34.733 32.8171 34.7063C32.9514 34.6795 33.0906 34.6933 33.2171 34.7457C33.3436 34.7981 33.4517 34.8868 33.5278 35.0006C33.6039 35.1145 33.6445 35.2483 33.6445 35.3853C33.6445 35.5689 33.5715 35.745 33.4417 35.8748C33.3119 36.0046 33.1358 36.0776 32.9521 36.0776Z" fill="#C94B1C"/>
</svg>
