<svg viewBox="0 0 24 24" fill="currentColor" xmlns="http://www.w3.org/2000/svg">
<g clip-path="url(#clip0_19421_210)">
<path fill-rule="evenodd" clip-rule="evenodd" d="M10.864 2.74547C10.864 2.74547 10.864 2.74547 10.864 2.74542L11.9999 0L13.1357 2.74547L15.8721 3.05081L13.8378 4.90594L14.393 7.60284L11.9998 6.24136L9.60677 7.60289L10.162 4.90594L8.12772 3.05086L10.864 2.74547ZM5.06425 20.4134C4.69797 20.2176 4.55927 19.7601 4.7552 19.3937C4.7552 19.3937 5.48978 18.0204 5.4902 18.0195C5.68305 17.6588 6.15086 17.5181 6.51062 17.7103C6.87095 17.9032 7.01172 18.3703 6.81911 18.7302L6.0828 20.1064C5.88616 20.471 5.42997 20.6089 5.06425 20.4134ZM19.9394 16.7781C19.8187 16.629 19.669 16.4994 19.493 16.3989L15.49 14.1174C15.1397 13.9176 14.7788 13.8387 14.4122 13.8387C13.7028 13.8387 12.9722 14.1345 12.258 14.4234C10.9012 14.9731 9.71477 15.4533 8.60594 14.2426C9.68092 13.5903 10.5993 12.8822 11.3403 12.1336C11.6665 11.8039 11.9979 11.522 12.325 11.2957C13.8889 10.2146 14.9706 10.6566 16.0167 11.0842C16.7792 11.3959 17.5677 11.7184 18.3937 11.2885L20.0308 10.4123L22.1355 15.842L19.9394 16.7781ZM19.3954 18.1268C19.5925 17.7684 19.4569 17.308 19.093 17.1006L15.09 14.8191C14.4022 14.4268 13.5489 14.7721 12.5611 15.1725C11.0775 15.7727 9.2312 16.5206 7.67041 14.3699C7.60305 14.277 7.57839 14.1598 7.60239 14.0478C7.62648 13.9357 7.69698 13.8392 7.79655 13.7822C8.9852 13.101 9.9843 12.3553 10.766 11.5653C10.969 11.3602 11.1746 11.1718 11.3812 11.0006C10.4936 10.5974 9.74186 10.7748 8.95314 10.9613C8.19063 11.1413 7.40233 11.3276 6.59762 10.8825L4.3173 9.83044L1.88617 15.0034C1.92634 15.021 1.97073 15.0413 2.01986 15.0634C2.70034 15.3699 3.96705 15.9409 4.19959 16.0313C4.79397 16.2619 4.93689 16.839 5.02323 17.2989C5.20708 17.1055 5.43892 16.9617 5.70213 16.8819C6.10211 16.7609 6.52431 16.8023 6.89092 16.9981C7.25645 17.1929 7.52514 17.5207 7.64673 17.9203C7.67706 18.0203 7.69736 18.1214 7.70758 18.2228C8.05961 18.1444 8.44014 18.1859 8.78247 18.3693C9.148 18.5641 9.41669 18.8918 9.53828 19.2915C9.54616 19.3172 9.55338 19.3434 9.55984 19.3699C9.58459 19.3608 9.60962 19.3527 9.63489 19.3451C10.0349 19.2234 10.4571 19.2649 10.8236 19.4614C11.1892 19.6557 11.4578 19.9832 11.5794 20.3831C11.5873 20.4093 11.5945 20.4351 11.6009 20.4613C11.6256 20.4527 11.6507 20.4443 11.676 20.4365C12.076 20.3155 12.4982 20.357 12.8648 20.5528C13.0438 20.6483 13.1994 20.7755 13.3261 20.9274L15.0824 21.8987C15.4465 22.0993 15.9056 21.9659 16.1058 21.6019C16.3041 21.2408 16.1693 20.781 15.8053 20.5766L13.3345 19.1856C13.1402 19.0761 13.0712 18.8298 13.1807 18.6354C13.29 18.4411 13.5363 18.3722 13.7307 18.4818L16.8566 20.2286C17.2206 20.4287 17.6798 20.2953 17.88 19.9314C18.0782 19.5708 17.9434 19.1109 17.5795 18.906C17.5696 18.9003 15.109 17.5091 15.109 17.5091C14.9149 17.3991 14.8463 17.1525 14.956 16.959C15.0658 16.7646 15.3122 16.6958 15.5063 16.8053L18.376 18.4263C18.7264 18.6242 19.2024 18.4777 19.3954 18.1268ZM14.6592 23.4475C14.459 23.8114 13.9998 23.9448 13.6358 23.745L13.0891 23.4439L13.5054 22.6655C13.6085 22.4726 13.6683 22.2642 13.6846 22.0515L14.3575 22.4216L14.3611 22.4235C14.7252 22.6251 14.8589 23.0845 14.6592 23.4475ZM11.6421 23.9669C11.4486 24.0255 11.245 24.0057 11.0687 23.9114C10.7023 23.7156 10.5636 23.2581 10.7595 22.8915C10.7595 22.8915 11.4637 21.5749 11.4642 21.5739C11.6573 21.2131 12.1236 21.0721 12.4846 21.2655C12.8385 21.4548 12.987 21.9224 12.7931 22.2849L12.0884 23.6025C11.9941 23.7788 11.8356 23.9084 11.6421 23.9669ZM9.50027 23.0633C9.30677 23.1219 9.10309 23.1021 8.92675 23.0078C8.56038 22.812 8.42177 22.3545 8.6177 21.9879L9.42283 20.4825C9.42283 20.4825 9.42292 20.4825 9.42292 20.4822C9.51719 20.306 9.67567 20.1766 9.86917 20.118C10.0627 20.0595 10.2664 20.0792 10.4434 20.1735C10.6188 20.2669 10.7479 20.4251 10.8066 20.6185C10.8657 20.8128 10.8463 21.0167 10.7519 21.193L9.94656 22.699C9.85234 22.8749 9.69381 23.0047 9.50027 23.0633ZM7.2685 22.3278C7.46205 22.2692 7.62044 22.1394 7.7148 21.9632L8.71066 20.1014C8.90313 19.7415 8.76222 19.2744 8.40227 19.0822C8.05384 18.8957 7.57033 19.0386 7.38367 19.3871C7.3832 19.3881 6.38594 21.2525 6.38594 21.2525C6.18991 21.6191 6.32852 22.0763 6.69503 22.2724C6.87133 22.3666 7.07505 22.3864 7.2685 22.3278ZM21.4872 6.4312C21.4872 6.4312 21.4871 6.4312 21.4873 6.43125L21.9224 8.54494L20.0468 7.47764L18.171 8.54498L18.6062 6.43125L17.0117 4.97714L19.1564 4.73789L20.0467 2.77191L20.937 4.7377L23.0818 4.97723L21.4872 6.4312ZM0.917969 4.97705L3.06278 4.7378L3.95308 2.77181L4.84342 4.73761L6.988 4.97714L5.39359 6.43116L5.82883 8.54489L3.95308 7.47759L2.07737 8.54489L2.51252 6.43116L0.917969 4.97705Z" fill="currentColor"/>
</g>
<defs>
<clipPath id="clip0_19421_210">
<rect width="24" height="24" fill="white"/>
</clipPath>
</defs>
</svg>
