<svg viewBox="0 0 24 24" fill="currentColor" xmlns="http://www.w3.org/2000/svg">
<g clip-path="url(#clip0_4927_55)">
<path d="M8.0002 15.2C8.44202 15.2 8.8002 14.8418 8.8002 14.4C8.8002 13.9581 8.44202 13.6 8.0002 13.6C7.55837 13.6 7.2002 13.9581 7.2002 14.4C7.2002 14.8418 7.55837 15.2 8.0002 15.2Z" fill="currentColor"/>
<path d="M13.1999 10.4C13.6417 10.4 13.9999 10.0419 13.9999 9.60005C13.9999 9.15822 13.6417 8.80005 13.1999 8.80005C12.7581 8.80005 12.3999 9.15822 12.3999 9.60005C12.3999 10.0419 12.7581 10.4 13.1999 10.4Z" fill="currentColor"/>
<path d="M9.543 14H14.947C15.9301 13.2229 17.1466 12.8002 18.3998 12.8V2.00005C18.3998 1.68179 18.2734 1.37656 18.0483 1.15152C17.8233 0.926477 17.5181 0.800049 17.1998 0.800049H1.9998C1.68154 0.800049 1.37632 0.926477 1.15128 1.15152C0.926233 1.37656 0.799805 1.68179 0.799805 2.00005V17.2C0.799805 17.5183 0.926233 17.8235 1.15128 18.0486C1.37632 18.2736 1.68154 18.4 1.9998 18.4H12.7998C12.7991 17.0821 13.2657 15.8065 14.1166 14.8H9.543C9.4557 15.1431 9.25658 15.4472 8.97712 15.6645C8.69766 15.8817 8.35378 15.9997 7.9998 15.9997C7.64583 15.9997 7.30195 15.8817 7.02249 15.6645C6.74303 15.4472 6.54391 15.1431 6.4566 14.8H2.3998C2.29372 14.8 2.19198 14.7579 2.11696 14.6829C2.04195 14.6079 1.9998 14.5061 1.9998 14.4C1.9998 14.294 2.04195 14.1922 2.11696 14.1172C2.19198 14.0422 2.29372 14 2.3998 14H6.4566C6.54391 13.657 6.74303 13.3528 7.02249 13.1356C7.30195 12.9184 7.64583 12.8004 7.9998 12.8004C8.35378 12.8004 8.69766 12.9184 8.97712 13.1356C9.25658 13.3528 9.4557 13.657 9.543 14ZM2.3998 4.40005H3.2566C3.34391 4.05702 3.54303 3.75285 3.82249 3.53561C4.10195 3.31836 4.44583 3.20042 4.7998 3.20042C5.15377 3.20042 5.49765 3.31836 5.77712 3.53561C6.05658 3.75285 6.2557 4.05702 6.343 4.40005H16.7998C16.9059 4.40005 17.0076 4.44219 17.0826 4.51721C17.1577 4.59222 17.1998 4.69396 17.1998 4.80005C17.1998 4.90614 17.1577 5.00788 17.0826 5.08289C17.0076 5.15791 16.9059 5.20005 16.7998 5.20005H6.343C6.2557 5.54308 6.05658 5.84725 5.77712 6.06449C5.49765 6.28174 5.15377 6.39967 4.7998 6.39967C4.44583 6.39967 4.10195 6.28174 3.82249 6.06449C3.54303 5.84725 3.34391 5.54308 3.2566 5.20005H2.3998C2.29372 5.20005 2.19198 5.15791 2.11696 5.08289C2.04195 5.00788 1.9998 4.90614 1.9998 4.80005C1.9998 4.69396 2.04195 4.59222 2.11696 4.51721C2.19198 4.44219 2.29372 4.40005 2.3998 4.40005ZM2.3998 10C2.29372 10 2.19198 9.95791 2.11696 9.88289C2.04195 9.80788 1.9998 9.70614 1.9998 9.60005C1.9998 9.49396 2.04195 9.39222 2.11696 9.31721C2.19198 9.24219 2.29372 9.20005 2.3998 9.20005H11.6566C11.7439 8.85702 11.943 8.55285 12.2225 8.33561C12.502 8.11836 12.8458 8.00042 13.1998 8.00042C13.5538 8.00042 13.8977 8.11836 14.1771 8.33561C14.4566 8.55285 14.6557 8.85702 14.743 9.20005H16.7998C16.9059 9.20005 17.0076 9.24219 17.0826 9.31721C17.1577 9.39222 17.1998 9.49396 17.1998 9.60005C17.1998 9.70614 17.1577 9.80788 17.0826 9.88289C17.0076 9.95791 16.9059 10 16.7998 10H14.743C14.6557 10.3431 14.4566 10.6472 14.1771 10.8645C13.8977 11.0817 13.5538 11.1997 13.1998 11.1997C12.8458 11.1997 12.502 11.0817 12.2225 10.8645C11.943 10.6472 11.7439 10.3431 11.6566 10H2.3998Z" fill="currentColor"/>
<path d="M4.8 5.6C5.24183 5.6 5.6 5.24183 5.6 4.8C5.6 4.35817 5.24183 4 4.8 4C4.35817 4 4 4.35817 4 4.8C4 5.24183 4.35817 5.6 4.8 5.6Z" fill="currentColor"/>
<path d="M18.7998 21.1265C19.0336 21.045 19.2363 20.8928 19.3797 20.691C19.5231 20.4891 19.6002 20.2477 19.6002 20.0001C19.6002 19.7525 19.5231 19.511 19.3797 19.3092C19.2363 19.1073 19.0336 18.9551 18.7998 18.8737V21.1265Z" fill="currentColor"/>
<path d="M18.4001 13.6C17.4508 13.6 16.5227 13.8815 15.7334 14.4089C14.944 14.9364 14.3288 15.686 13.9655 16.5631C13.6022 17.4402 13.5071 18.4053 13.6923 19.3364C13.8775 20.2675 14.3347 21.1228 15.006 21.7941C15.6773 22.4654 16.5326 22.9225 17.4637 23.1077C18.3948 23.293 19.3599 23.1979 20.237 22.8346C21.1141 22.4713 21.8637 21.8561 22.3912 21.0667C22.9186 20.2774 23.2001 19.3493 23.2001 18.4C23.1987 17.1274 22.6926 15.9073 21.7927 15.0074C20.8928 14.1075 19.6727 13.6014 18.4001 13.6ZM20.4001 20C20.3995 20.4609 20.2401 20.9074 19.9486 21.2645C19.6572 21.6215 19.2515 21.8671 18.8001 21.96V22C18.8001 22.1061 18.758 22.2078 18.6829 22.2828C18.6079 22.3578 18.5062 22.4 18.4001 22.4C18.294 22.4 18.1923 22.3578 18.1173 22.2828C18.0422 22.2078 18.0001 22.1061 18.0001 22V21.96C17.5487 21.8671 17.143 21.6215 16.8516 21.2645C16.5601 20.9074 16.4007 20.4609 16.4001 20C16.4001 19.8939 16.4422 19.7921 16.5173 19.7171C16.5923 19.6421 16.694 19.6 16.8001 19.6C16.9062 19.6 17.0079 19.6421 17.0829 19.7171C17.158 19.7921 17.2001 19.8939 17.2001 20C17.2011 20.2473 17.2785 20.4882 17.4217 20.6899C17.5649 20.8915 17.7669 21.0439 18.0001 21.1264V18.76C17.548 18.6682 17.1415 18.4229 16.8495 18.0657C16.5576 17.7085 16.3981 17.2613 16.3981 16.8C16.3981 16.3386 16.5576 15.8915 16.8495 15.5343C17.1415 15.1771 17.548 14.9318 18.0001 14.84V14.8C18.0001 14.6939 18.0422 14.5921 18.1173 14.5171C18.1923 14.4421 18.294 14.4 18.4001 14.4C18.5062 14.4 18.6079 14.4421 18.6829 14.5171C18.758 14.5921 18.8001 14.6939 18.8001 14.8V14.84C19.2515 14.9328 19.6572 15.1784 19.9486 15.5355C20.2401 15.8925 20.3995 16.3391 20.4001 16.8C20.4001 16.9061 20.358 17.0078 20.2829 17.0828C20.2079 17.1578 20.1062 17.2 20.0001 17.2C19.894 17.2 19.7923 17.1578 19.7173 17.0828C19.6422 17.0078 19.6001 16.9061 19.6001 16.8C19.5991 16.5527 19.5217 16.3117 19.3785 16.1101C19.2353 15.9085 19.0333 15.756 18.8001 15.6736V18.04C19.2515 18.1328 19.6572 18.3784 19.9486 18.7355C20.2401 19.0925 20.3995 19.5391 20.4001 20Z" fill="currentColor"/>
<path d="M17.2002 16.8C17.2012 17.0473 17.2786 17.2882 17.4218 17.4899C17.565 17.6915 17.767 17.844 18.0002 17.9264V15.6736C17.767 15.756 17.565 15.9085 17.4218 16.1101C17.2786 16.3117 17.2012 16.5527 17.2002 16.8Z" fill="currentColor"/>
</g>
<defs>
<clipPath id="clip0_4927_55">
<rect width="24" height="24" fill="white"/>
</clipPath>
</defs>
</svg>
