<svg class="svg-icon" style="width: 1em;height: 1em;vertical-align: middle;fill: currentColor;overflow: hidden;" viewBox="0 0 1024 1024" version="1.1" xmlns="http://www.w3.org/2000/svg"><path d="M847.890496 961.684329H174.592253c-61.918295 0-112.168207-50.177662-112.168207-112.168207V176.217879c0-61.990545 50.249912-112.168207 112.168207-112.168207H847.854371c61.990545 0 112.276582 50.177662 112.276582 112.168207v673.262118c0 62.02667-50.249912 112.204332-112.240457 112.204332z m56.138291-785.46645c0-30.959148-25.106893-56.138291-56.138291-56.138291H174.592253c-30.959148 0-56.029916 25.179143-56.029916 56.138291v673.262118c0 30.959148 25.106893 56.138291 56.029916 56.138291H847.854371c31.031398 0 56.138291-25.179143 56.138291-56.138291V176.217879h0.036125z m-84.171312 308.616101c-15.461511 0-28.033021-12.643759-28.03302-28.10527l0.903126-184.418261-190.487265 190.37889-39.665279-39.593029 190.74014-190.74014h-185.935511c-15.461511 0-28.033021-12.643759-28.033021-28.10527 0-15.497636 12.535384-28.033021 28.033021-28.033021h251.683059c7.839131 0 14.955761 3.215127 20.013265 8.453256 5.418754 4.551753 8.814506 11.307133 8.814506 19.579765v252.47781c0 15.461511-12.571509 28.105271-28.033021 28.10527zM455.211458 849.516122h-251.791434c-7.839131 0-14.847386-3.215127-19.941015-8.453256-5.418754-4.624003-8.886757-11.307133-8.886756-19.579764v-252.47781c0-15.461511 12.535384-28.105271 28.10527-28.105271 15.461511 0 28.033021 12.643759 28.033021 28.105271l-0.903126 184.41826 190.37889-190.37889 39.665279 39.593029-190.74014 190.74014h186.007761c15.461511 0 28.033021 12.643759 28.033021 28.105271a27.97522 27.97522 0 0 1-27.960771 28.03302z" fill="#231815" /></svg>