<svg class="svg-icon" style="width: 1em; height: 1em;vertical-align: middle;fill: currentColor;overflow: hidden;" viewBox="0 0 1024 1024" version="1.1" xmlns="http://www.w3.org/2000/svg"><path d="M512 853.333333C346.88 853.333333 213.333333 719.786667 213.333333 554.666667 213.333333 389.546667 346.88 256 512 256 677.12 256 810.666667 389.546667 810.666667 554.666667 810.666667 719.786667 677.12 853.333333 512 853.333333M811.946667 315.306667 872.533333 254.72C853.333333 232.96 834.133333 213.333333 812.373333 194.56L751.786667 256C685.653333 202.24 602.453333 170.666667 512 170.666667 299.946667 170.666667 128 342.613333 128 554.666667 128 766.72 299.946667 938.666667 512 938.666667 725.333333 938.666667 896 766.72 896 554.666667 896 464.213333 864.426667 381.013333 811.946667 315.306667M469.333333 597.333333 554.666667 597.333333 554.666667 341.333333 469.333333 341.333333M640 42.666667 384 42.666667 384 128 640 128 640 42.666667Z"  /></svg>