<svg viewBox="0 0 24 24" fill="currentColor" xmlns="http://www.w3.org/2000/svg">
<path d="M3.9579 11.3664C3.99798 11.5404 4.09803 11.6948 4.24052 11.8024L8.33423 14.9313C8.4015 14.9815 8.48133 15.012 8.5649 15.0197C8.64847 15.0273 8.73251 15.0116 8.80774 14.9744C8.88296 14.9372 8.94643 14.8799 8.99111 14.8089C9.0358 14.7379 9.05997 14.6559 9.06094 14.572C9.06278 14.4712 9.03 14.3729 8.96808 14.2934L6.99388 11.8065C6.67415 11.8444 6.35205 11.7584 6.09375 11.5662C5.83546 11.3739 5.66059 11.0901 5.60507 10.773L5.26195 8.68974C5.25346 8.63726 5.2554 8.58362 5.26765 8.53188C5.2799 8.48014 5.30222 8.43132 5.33333 8.38821C5.36445 8.3451 5.40375 8.30854 5.449 8.28062C5.49424 8.2527 5.54454 8.23396 5.59703 8.22548C5.64951 8.217 5.70316 8.21894 5.75489 8.23118C5.80663 8.24343 5.85545 8.26575 5.89856 8.29687C5.94167 8.32798 5.97823 8.36728 6.00615 8.41253C6.03407 8.45777 6.05281 8.50807 6.06129 8.56056L6.40043 10.6397C6.42059 10.7468 6.47961 10.8426 6.56614 10.9089C6.65267 10.9751 6.76061 11.007 6.86924 10.9985C6.97788 10.99 7.07954 10.9417 7.1547 10.8628C7.22987 10.7839 7.27324 10.68 7.27649 10.5711C7.27728 10.5468 7.27593 10.5225 7.27247 10.4984L6.98181 8.70991C6.95093 8.51051 6.46497 8.00722 6.36408 7.83386L5.15291 6.27147C5.12384 6.22915 5.08898 6.19457 5.06005 6.15035C4.82621 5.84607 4.66842 5.49035 4.59982 5.11278L4.15572 2.6299C4.14737 2.58014 4.12919 2.53254 4.10226 2.48987C4.07532 2.44721 4.04016 2.41033 3.99882 2.3814C3.95748 2.35246 3.9108 2.33204 3.86149 2.32134C3.81218 2.31063 3.76123 2.30985 3.71162 2.31904L2.25015 2.57338C2.19848 2.58246 2.14922 2.60204 2.10541 2.63089C2.0616 2.65975 2.02417 2.69727 1.99542 2.74115C1.96667 2.78504 1.94722 2.83434 1.93826 2.88603C1.9293 2.93772 1.93103 2.9907 1.94333 3.04169L3.9579 11.3664Z" fill="currentColor"/>
<path d="M17.1778 8.76374C17.1076 8.95733 17.0642 9.15964 17.0489 9.36501C17.0022 9.7534 16.9555 10.1418 16.9087 10.5302C16.8806 10.7643 16.893 11.0692 17.115 11.1488C17.1898 11.1675 17.2687 11.1618 17.34 11.1325C17.4114 11.1031 17.4714 11.0517 17.5114 10.9857C17.5885 10.852 17.6353 10.7029 17.6485 10.5491C17.7393 9.97972 17.83 9.41032 17.9207 8.8409C17.9353 8.68533 17.9803 8.53414 18.0531 8.39591C18.0853 8.32324 18.1406 8.26326 18.2105 8.22532C18.2803 8.18737 18.3608 8.17359 18.4393 8.18612C18.5178 8.19865 18.5899 8.23678 18.6445 8.29459C18.6991 8.35239 18.733 8.42661 18.741 8.5057C18.767 8.65888 18.7628 8.81566 18.7286 8.96722L18.5183 10.2941C18.4825 10.7197 18.3523 11.1319 18.1372 11.5009C18.0254 11.6826 17.8575 11.823 17.6588 11.9009C17.4602 11.9789 17.2416 11.99 17.036 11.9328C16.5415 12.5158 15.2711 14.0147 15.1974 14.217C15.1226 14.4223 15.1538 15.0336 15.4995 14.9894C15.6032 14.9667 15.6994 14.9179 15.7789 14.8476C17.0223 13.9212 18.2656 12.9947 19.5089 12.0683C19.7006 11.943 19.8674 11.7831 20.0005 11.5967C20.0979 11.4191 20.1654 11.2267 20.2001 11.0272C20.8094 8.39096 21.4187 5.75475 22.0279 3.11854C22.0371 3.07879 22.0462 3.03777 22.0526 2.99654C22.0741 2.90147 22.0627 2.8019 22.0203 2.71413C21.9674 2.64846 21.9006 2.59533 21.8247 2.55857C21.7488 2.5218 21.6657 2.5023 21.5814 2.50147C21.2019 2.44343 20.8223 2.38539 20.4428 2.32736C20.3045 2.2883 20.1566 2.30406 20.0297 2.37135C19.9245 2.4726 19.8632 2.61104 19.8588 2.75697C19.7465 3.47576 19.6341 4.19454 19.5217 4.91334C19.4856 5.22989 19.41 5.54069 19.2967 5.83846C19.1531 6.13626 18.9714 6.41413 18.7562 6.66512C18.3403 7.1947 17.9244 7.72431 17.5084 8.25392C17.3757 8.40814 17.2645 8.57964 17.1778 8.76374Z" fill="currentColor"/>
<path d="M15.0887 1.89509C13.997 1.36052 12.2256 1.52801 11.0393 1.5035C9.79926 1.50518 8.60012 1.94736 7.65583 2.75115C6.71153 3.55494 6.08351 4.66806 5.88379 5.89194L6.70342 6.95382C8.01152 5.04876 12.7475 2.74248 15.0887 1.89509Z" fill="currentColor"/>
<path d="M17.3531 7.14751L18.2776 5.94038C18.1725 5.22585 17.9183 4.5414 17.5316 3.93143C17.1449 3.32146 16.6343 2.79961 16.0329 2.39972C15.2779 2.68234 14.1112 3.13855 12.8516 3.72394C13.8556 3.78791 14.8185 4.14693 15.6193 4.75599C16.4201 5.36504 17.0232 6.197 17.3531 7.14751Z" fill="currentColor"/>
<path d="M9.59781 13.7887C9.76558 13.9977 9.86055 14.2557 9.86827 14.5235C10.9301 15.0363 12.7186 15.5772 14.3496 14.5599C14.3207 14.378 14.331 14.1921 14.3797 14.0146C14.4285 13.837 14.5146 13.672 14.6322 13.5303L16.3238 11.5238C16.1319 11.276 16.0436 10.9634 16.0775 10.6518L16.3157 8.76644C16.3709 8.46395 16.5142 8.18447 16.7275 7.96302C16.537 6.99606 16.0173 6.12497 15.257 5.49787C14.4967 4.87078 13.5426 4.52641 12.5571 4.52332H11.249C9.25463 5.59723 7.89814 6.63883 7.21582 7.61988C7.48292 7.88843 7.67742 8.22044 7.78105 8.58476L8.0677 10.3652C8.09854 10.5582 8.08395 10.7558 8.02508 10.9422C7.96621 11.1286 7.86468 11.2988 7.72856 11.4391L9.59781 13.7887Z" fill="currentColor"/>
<path d="M20.3044 22.1578C20.3563 20.1449 17.7951 18.6264 15.5445 18.1166C15.1859 18.0439 14.8633 17.8494 14.6316 17.5662C14.3998 17.2829 14.2731 16.9283 14.2728 16.5623V15.5207C13.6592 15.8041 12.9907 15.9488 12.3148 15.9446C11.3845 15.9263 10.469 15.7088 9.63001 15.3067C9.59821 15.3559 9.56169 15.4019 9.52099 15.444V16.7964C9.52214 17.1478 9.40602 17.4895 9.19104 17.7674C8.97605 18.0453 8.67449 18.2435 8.33412 18.3306C6.6704 18.7782 3.75511 19.5875 3.83664 21.9156V22.497H20.3044V22.1578Z" fill="currentColor"/>
</svg>
