<svg viewBox="0 0 24 24" fill="currentColor" xmlns="http://www.w3.org/2000/svg">
<path d="M21.8906 2.85938H2.10938C0.946219 2.85938 0 3.80559 0 4.96875V19.0312C0 20.1944 0.946219 21.1406 2.10938 21.1406H21.8906C23.0538 21.1406 24 20.1944 24 19.0312V4.96875C24 3.80559 23.0538 2.85938 21.8906 2.85938ZM9.14062 18.3281C5.73178 18.3281 2.8125 15.5403 2.8125 12C2.8125 8.51048 5.65111 5.67188 9.14062 5.67188C12.6301 5.67188 15.4688 8.51048 15.4688 12C15.4688 15.5675 12.5157 18.3281 9.14062 18.3281ZM20.4844 16.9219H17.5781C17.1895 16.9219 16.875 16.6074 16.875 16.2188C16.875 15.8301 17.1895 15.5156 17.5781 15.5156H20.4844C20.873 15.5156 21.1875 15.8301 21.1875 16.2188C21.1875 16.6074 20.873 16.9219 20.4844 16.9219ZM20.4844 14.1094H17.5781C17.1895 14.1094 16.875 13.7949 16.875 13.4062C16.875 13.0176 17.1895 12.7031 17.5781 12.7031H20.4844C20.873 12.7031 21.1875 13.0176 21.1875 13.4062C21.1875 13.7949 20.873 14.1094 20.4844 14.1094ZM20.4844 11.2969H17.5781C17.1895 11.2969 16.875 10.9824 16.875 10.5938C16.875 10.2051 17.1895 9.89062 17.5781 9.89062H20.4844C20.873 9.89062 21.1875 10.2051 21.1875 10.5938C21.1875 10.9824 20.873 11.2969 20.4844 11.2969ZM20.4844 8.48438H17.5781C17.1895 8.48438 16.875 8.16989 16.875 7.78125C16.875 7.39261 17.1895 7.07812 17.5781 7.07812H20.4844C20.873 7.07812 21.1875 7.39261 21.1875 7.78125C21.1875 8.16989 20.873 8.48438 20.4844 8.48438Z" fill="currentColor"/>
<path d="M9.14062 7.07812C6.42698 7.07812 4.21875 9.28636 4.21875 12C4.21875 13.0476 4.55339 14.0152 5.11364 14.8141C5.61127 14.0984 6.27656 13.5288 7.05478 13.1662C6.60802 12.6682 6.32812 12.0172 6.32812 11.2969C6.32812 9.74573 7.58948 8.48438 9.14062 8.48438C10.6918 8.48438 11.9531 9.74573 11.9531 11.2969C11.9531 12.0172 11.6732 12.6682 11.2265 13.1662C12.0047 13.5288 12.67 14.0984 13.1676 14.8141C13.7279 14.0152 14.0625 13.0476 14.0625 12C14.0625 9.28636 11.8543 7.07812 9.14062 7.07812Z" fill="currentColor"/>
<path d="M9.14062 9.89062C8.36541 9.89062 7.73438 10.5217 7.73438 11.2969C7.73438 12.0721 8.36541 12.7031 9.14062 12.7031C9.91584 12.7031 10.5469 12.0721 10.5469 11.2969C10.5469 10.5217 9.91584 9.89062 9.14062 9.89062Z" fill="currentColor"/>
<path d="M9.14049 14.1094C7.87364 14.1094 6.732 14.7774 6.10791 15.8467C6.9465 16.5095 7.9913 16.9219 9.14049 16.9219C10.2897 16.9219 11.3345 16.5095 12.1731 15.8467C11.549 14.7774 10.4073 14.1094 9.14049 14.1094Z" fill="currentColor"/>
</svg>
