<svg xmlns="http://www.w3.org/2000/svg" xmlns:xlink="http://www.w3.org/1999/xlink" viewBox="0 0 24 24">
    <path d="M22,11.3c-0.1,0.2-0.1,0.3-0.2,0.4c-0.2,0.2-0.5,0.3-0.8,0.2c-0.3-0.1-0.5-0.4-0.5-0.7V6.8c0-0.7-0.5-1.4-1.2-1.6
	c-0.4-0.1-0.9-0.1-1.3-0.1c-0.1,0-0.1,0.1-0.1,0.1c0,0.2,0,0.4,0,0.6c0,0.4-0.3,0.8-0.8,0.8c-0.4,0-0.8-0.3-0.8-0.8c0,0,0,0,0,0
	c0-0.2,0-0.4,0-0.6s0-0.2-0.1-0.2h-3.3c-0.1,0-0.1,0-0.1,0.1s0,0.4,0,0.7c0,0.4-0.3,0.8-0.8,0.8c-0.4,0-0.8-0.3-0.8-0.8V5.3
	c0-0.1,0-0.1-0.1-0.1H7.8c-0.1,0-0.1,0-0.1,0.1s0,0.4,0,0.6c0,0.4-0.3,0.8-0.8,0.8c-0.4,0-0.8-0.3-0.8-0.8V5.2c0,0,0-0.1-0.1-0.1
	c-0.4,0-0.9,0-1.3,0.1C4.1,5.4,3.6,6,3.6,6.7c0,0,0,0.1,0,0.1c0,4,0,8,0,12c0,0.7,0.4,1.4,1.1,1.6c0.2,0,0.4,0.1,0.5,0.1H11
	c0.2,0,0.5,0.1,0.7,0.2c0.3,0.3,0.3,0.8,0,1.1c-0.1,0.1-0.1,0.1-0.2,0.1l-0.2,0.1H4.8c-0.9-0.1-1.7-0.5-2.2-1.3
	C2.2,20.2,2,19.6,2,19c0-4.1,0-8.3,0-12.4c0-1.3,0.9-2.4,2.1-2.9c0.5-0.2,1.1-0.2,1.6-0.2c0.4,0,0.4,0,0.4-0.4c0-0.1,0-0.3,0-0.4
	C6.1,2.3,6.4,2,6.8,2c0,0,0,0,0,0c0.4-0.1,0.8,0.2,0.9,0.7c0,0.1,0,0.1,0,0.2v0.5c0,0.2,0,0.2,0.2,0.2h2.9c0.2,0,0.2-0.1,0.2-0.2
	c0-0.1,0-0.3,0-0.5c0-0.4,0.3-0.8,0.7-0.9c0.1,0,0.1,0,0.2,0c0.4,0,0.8,0.3,0.8,0.7c0,0,0,0.1,0,0.1v0.5c0,0.2,0,0.2,0.2,0.2h3
	c0.2,0,0.2,0,0.2-0.2s0-0.3,0-0.5c0.1-0.5,0.5-0.8,0.9-0.7c0.4,0,0.7,0.4,0.7,0.7c0,0.2,0,0.4,0,0.5s0.1,0.2,0.2,0.2h0.7
	c1.2,0,2.4,0.7,2.9,1.8c0.2,0.3,0.3,0.7,0.3,1L22,11.3z" />
    <path
        d="M7.7,10.2c0,0.4-0.3,0.8-0.8,0.8c-0.4,0-0.8-0.3-0.8-0.8c0-0.4,0.3-0.8,0.8-0.8C7.3,9.4,7.7,9.8,7.7,10.2L7.7,10.2z" />
    <path d="M10.3,11c-0.4,0-0.8-0.3-0.8-0.8c0-0.4,0.3-0.8,0.8-0.8c0.4,0,0.8,0.3,0.8,0.8c0,0,0,0,0,0C11.1,10.6,10.7,11,10.3,11
	C10.3,11,10.3,11,10.3,11z" />
    <path d="M13.7,9.4c0.4,0,0.8,0.3,0.8,0.8c0,0.4-0.3,0.8-0.8,0.8c-0.4,0-0.8-0.3-0.8-0.8c0,0,0,0,0,0C12.9,9.8,13.2,9.4,13.7,9.4
	C13.7,9.4,13.7,9.4,13.7,9.4z" />
    <path d="M17.9,10.2c0,0.4-0.3,0.8-0.8,0.8c-0.4,0-0.8-0.3-0.9-0.7c0-0.4,0.3-0.8,0.7-0.9c0.1,0,0.1,0,0.2,0
	C17.5,9.4,17.9,9.8,17.9,10.2L17.9,10.2z" />
    <path
        d="M7.7,13.6c0,0.4-0.3,0.8-0.8,0.8c-0.4,0-0.8-0.3-0.8-0.8s0.3-0.8,0.8-0.8c0,0,0,0,0,0C7.3,12.8,7.7,13.2,7.7,13.6z" />
    <path d="M10.3,14.4c-0.4,0-0.8-0.3-0.8-0.8c0-0.4,0.3-0.8,0.8-0.8c0.4,0,0.8,0.3,0.8,0.8C11.1,14,10.7,14.4,10.3,14.4
	C10.3,14.4,10.3,14.4,10.3,14.4z" />
    <path d="M7.7,17c0,0.4-0.4,0.8-0.8,0.8c-0.4,0-0.8-0.4-0.8-0.8c0-0.4,0.4-0.8,0.8-0.8C7.3,16.2,7.7,16.6,7.7,17z" />
    <path d="M11.1,17c0,0.4-0.4,0.7-0.9,0.7c-0.4,0-0.6-0.3-0.7-0.7c0-0.4,0.3-0.8,0.7-0.9c0.4,0,0.8,0.3,0.9,0.7
	C11.1,16.9,11.1,16.9,11.1,17z" />
    <path d="M22,16.8c0,0,0-0.1,0-0.1c-0.1-0.5-0.2-0.9-0.4-1.3c-0.6-1.5-2-2.5-3.6-2.7c-1.5-0.3-3.1,0.2-4.1,1.4
	c-1.1,1.1-1.5,2.6-1.2,4c0.3,1.8,1.6,3.3,3.4,3.8c0.3,0,0.5,0.1,0.8,0.2H17h0h0.5c0,0,0,0,0.1,0h0.1c0.2,0,0.3,0,0.5-0.1
	c1.3-0.3,2.4-1,3.1-2.2c0.4-0.6,0.6-1.3,0.7-2v-0.2c0,0,0-0.1,0-0.1V17V16.8z M17.3,20.4c-1.7,0-3.2-1.4-3.1-3.2
	c0-1.7,1.4-3.2,3.2-3.1c1.7,0,3.1,1.4,3.1,3.2C20.4,19,19,20.4,17.3,20.4z" />
    <path d="M16.5,16.5c0-0.3,0-0.5,0-0.8c0-0.4,0.3-0.8,0.8-0.8s0.8,0.3,0.8,0.8c0,0,0,0,0,0v0.5c0,0.3,0,0.3,0.3,0.3
	c0.1,0,0.2,0,0.3,0c0.4,0.1,0.6,0.4,0.6,0.8c0,0.4-0.3,0.7-0.7,0.7c-0.4,0-0.8,0-1.2,0c-0.4,0-0.7-0.4-0.7-0.8
	C16.5,17,16.5,16.7,16.5,16.5L16.5,16.5z" />
</svg>