<svg width="18" height="18" viewBox="0 0 18 18" fill="none" xmlns="http://www.w3.org/2000/svg">
<path d="M9 11.8125C10.5533 11.8125 11.8125 10.5533 11.8125 9C11.8125 7.4467 10.5533 6.1875 9 6.1875C7.4467 6.1875 6.1875 7.4467 6.1875 9C6.1875 10.5533 7.4467 11.8125 9 11.8125Z" stroke="#343330" stroke-width="1.5" stroke-linecap="round" stroke-linejoin="round"/>
<path d="M9.14414 14.4921C9.04993 14.4921 8.955 14.4921 8.86289 14.4921L6.60938 15.75C5.73211 15.4549 4.91841 14.9969 4.21102 14.4L4.20258 11.8688C4.15266 11.79 4.10555 11.7105 4.06196 11.629L1.8211 10.3528C1.6446 9.46005 1.6446 8.54136 1.8211 7.64859L4.05985 6.37594C4.10555 6.29508 4.15266 6.21492 4.20047 6.13617L4.21172 3.60492C4.91848 3.00631 5.73196 2.54661 6.60938 2.25L8.85938 3.50789C8.9536 3.50789 9.04852 3.50789 9.14063 3.50789L11.3906 2.25C12.2679 2.54509 13.0816 3.00311 13.789 3.6L13.7974 6.13125C13.8473 6.21 13.8945 6.28945 13.9381 6.37102L16.1775 7.64648C16.354 8.53925 16.354 9.45794 16.1775 10.3507L13.9388 11.6234C13.8931 11.7042 13.8459 11.7844 13.7981 11.8631L13.7869 14.3944C13.0806 14.9931 12.2676 15.453 11.3906 15.75L9.14414 14.4921Z" stroke="#343330" stroke-width="1.5" stroke-linecap="round" stroke-linejoin="round"/>
</svg>
