<svg width="16" height="18" viewBox="0 0 16 18" fill="none" xmlns="http://www.w3.org/2000/svg">
<g clip-path="url(#clip0_6161_52763)">
<path d="M0 6.9884C0 3.67469 2.68629 0.988403 6 0.988403H9.9922C13.3059 0.988403 15.9922 3.67469 15.9922 6.9884V11.0116C15.9922 14.3253 13.3059 17.0116 9.9922 17.0116H6.00001C2.6863 17.0116 0 14.3253 0 11.0116V6.9884Z" fill="#297F45"/>
<path d="M3.86816 9.75046L6.495 12.3773L12.4992 6.37311" stroke="white" stroke-width="1.50105" stroke-linecap="round" stroke-linejoin="round"/>
</g>
<defs>
<clipPath id="clip0_6161_52763">
<path d="M0 6.9884C0 3.67469 2.68629 0.988403 6 0.988403H9.9922C13.3059 0.988403 15.9922 3.67469 15.9922 6.9884V11.0116C15.9922 14.3253 13.3059 17.0116 9.9922 17.0116H6.00001C2.6863 17.0116 0 14.3253 0 11.0116V6.9884Z" fill="white"/>
</clipPath>
</defs>
</svg>
