<svg width="18" height="18" viewBox="0 0 18 18" fill="none" xmlns="http://www.w3.org/2000/svg">
<path d="M9 0.875C7.39303 0.875 5.82214 1.35152 4.486 2.24431C3.14985 3.1371 2.10844 4.40605 1.49348 5.8907C0.87852 7.37535 0.717618 9.00901 1.03112 10.5851C1.34463 12.1612 2.11846 13.6089 3.25476 14.7452C4.39106 15.8815 5.8388 16.6554 7.41489 16.9689C8.99099 17.2824 10.6247 17.1215 12.1093 16.5065C13.594 15.8916 14.8629 14.8502 15.7557 13.514C16.6485 12.1779 17.125 10.607 17.125 9C17.1225 6.84588 16.2657 4.7807 14.7425 3.25751C13.2193 1.73431 11.1541 0.87749 9 0.875V0.875ZM7.75 11.5C7.75 11.6658 7.68416 11.8247 7.56695 11.9419C7.44973 12.0592 7.29076 12.125 7.125 12.125C6.95924 12.125 6.80027 12.0592 6.68306 11.9419C6.56585 11.8247 6.5 11.6658 6.5 11.5V6.5C6.5 6.33424 6.56585 6.17527 6.68306 6.05806C6.80027 5.94085 6.95924 5.875 7.125 5.875C7.29076 5.875 7.44973 5.94085 7.56695 6.05806C7.68416 6.17527 7.75 6.33424 7.75 6.5V11.5ZM11.5 11.5C11.5 11.6658 11.4342 11.8247 11.3169 11.9419C11.1997 12.0592 11.0408 12.125 10.875 12.125C10.7092 12.125 10.5503 12.0592 10.4331 11.9419C10.3159 11.8247 10.25 11.6658 10.25 11.5V6.5C10.25 6.33424 10.3159 6.17527 10.4331 6.05806C10.5503 5.94085 10.7092 5.875 10.875 5.875C11.0408 5.875 11.1997 5.94085 11.3169 6.05806C11.4342 6.17527 11.5 6.33424 11.5 6.5V11.5Z" fill="#CA8A04"/>
</svg>
