<svg viewBox="0 0 96 96" fill="currentColor" xmlns="http://www.w3.org/2000/svg">
<g clip-path="url(#clip0_407_8)">
<path d="M16 16H44V8H16C11.6 8 8 11.6 8 16V44H16V16ZM40 52L24 72H72L60 56L51.88 66.84L40 52ZM68 34C68 30.68 65.32 28 62 28C58.68 28 56 30.68 56 34C56 37.32 58.68 40 62 40C65.32 40 68 37.32 68 34ZM80 8H52V16H80V44H88V16C88 11.6 84.4 8 80 8ZM80 80H52V88H80C84.4 88 88 84.4 88 80V52H80V80ZM16 52H8V80C8 84.4 11.6 88 16 88H44V80H16V52Z" fill="currentColor"/>
</g>
<defs>
<clipPath id="clip0_407_8">
<rect width="96" height="96" fill="white"/>
</clipPath>
</defs>
</svg>
