<svg width="36" height="36" viewBox="0 0 36 36" fill="none" xmlns="http://www.w3.org/2000/svg">
<mask id="path-1-inside-1_1893_24251" fill="white">
<path d="M0 8.00003C0 3.58175 3.58172 3.05176e-05 8 3.05176e-05H28C32.4183 3.05176e-05 36 3.58175 36 8.00003V28C36 32.4183 32.4183 36 28 36H8C3.58172 36 0 32.4183 0 28V8.00003Z"/>
</mask>
<path d="M0 8.00003C0 3.58175 3.58172 3.05176e-05 8 3.05176e-05H28C32.4183 3.05176e-05 36 3.58175 36 8.00003V28C36 32.4183 32.4183 36 28 36H8C3.58172 36 0 32.4183 0 28V8.00003Z" fill="#F8F8F8"/>
<path d="M8 1.00003H28V-0.999969H8V1.00003ZM35 8.00003V28H37V8.00003H35ZM28 35H8V37H28V35ZM1 28V8.00003H-1V28H1ZM8 35C4.13401 35 1 31.866 1 28H-1C-1 32.9706 3.02944 37 8 37V35ZM35 28C35 31.866 31.866 35 28 35V37C32.9706 37 37 32.9706 37 28H35ZM28 1.00003C31.866 1.00003 35 4.13404 35 8.00003H37C37 3.02947 32.9706 -0.999969 28 -0.999969V1.00003ZM8 -0.999969C3.02944 -0.999969 -1 3.02947 -1 8.00003H1C1 4.13404 4.13401 1.00003 8 1.00003V-0.999969Z" fill="#EEEEEF" mask="url(#path-1-inside-1_1893_24251)"/>
<path d="M19.6406 24.5625H17.3438V19.9688" stroke="#343330" stroke-width="1.5" stroke-linecap="round" stroke-linejoin="round"/>
<path d="M11.4375 16.6875V10.7813C11.4375 10.6072 11.5066 10.4403 11.6297 10.3172C11.7528 10.1942 11.9197 10.125 12.0938 10.125H19.9688L24.5625 14.7188V16.6875" stroke="#343330" stroke-width="1.5" stroke-linecap="round" stroke-linejoin="round"/>
<path d="M19.9688 10.125V14.7188H24.5625" stroke="#343330" stroke-width="1.5" stroke-linecap="round" stroke-linejoin="round"/>
<path d="M11.4375 19.9688L14.7188 24.5625" stroke="#343330" stroke-width="1.5" stroke-linecap="round" stroke-linejoin="round"/>
<path d="M14.7188 19.9688L11.4375 24.5625" stroke="#343330" stroke-width="1.5" stroke-linecap="round" stroke-linejoin="round"/>
<path d="M24.2261 20.1C24.2261 20.1 21.8119 19.4618 21.6175 21.0024C21.4231 22.5429 24.77 21.8325 24.5526 23.5224C24.35 25.0941 21.9457 24.4247 21.9457 24.4247" stroke="#343330" stroke-width="1.5" stroke-linecap="round" stroke-linejoin="round"/>
</svg>
