<svg width="24" height="25" viewBox="0 0 24 25" fill="none" xmlns="http://www.w3.org/2000/svg">
<path d="M9 20.7501H4.5C4.30109 20.7501 4.11032 20.6711 3.96967 20.5305C3.82902 20.3898 3.75 20.199 3.75 20.0001V15.8104C3.75009 15.6118 3.82899 15.4213 3.96938 15.2807L15.5306 3.7195C15.6713 3.57895 15.862 3.5 16.0608 3.5C16.2596 3.5 16.4503 3.57895 16.5909 3.7195L20.7806 7.90637C20.9212 8.04701 21.0001 8.2377 21.0001 8.43653C21.0001 8.63535 20.9212 8.82605 20.7806 8.96668L9 20.7501Z" />
<path d="M20.25 20.75H9" stroke="#939394" stroke-width="1.5" stroke-linecap="round" stroke-linejoin="round"/>
<path d="M12.75 6.5L18 11.75" stroke="#939394" stroke-width="1.5" stroke-linecap="round" stroke-linejoin="round"/>
</svg>
