<svg width="17" height="16" viewBox="0 0 17 16" fill="none" xmlns="http://www.w3.org/2000/svg">
<g clip-path="url(#clip0_2702_20277)">
<path d="M4.72363 6.5H2.22363V4" stroke="black" stroke-width="1.2" stroke-linecap="round" stroke-linejoin="round"/>
<path d="M4.44863 12C5.23486 12.7419 6.22229 13.2356 7.28753 13.4196C8.35277 13.6035 9.44859 13.4694 10.4381 13.0341C11.4276 12.5988 12.2668 11.8816 12.851 10.972C13.4352 10.0625 13.7384 9.00092 13.7227 7.92003C13.707 6.83914 13.3732 5.78684 12.7629 4.8946C12.1526 4.00236 11.2929 3.30975 10.2912 2.90331C9.28952 2.49687 8.19027 2.39463 7.13081 2.60935C6.07135 2.82408 5.09865 3.34625 4.33426 4.11062C3.59863 4.85562 2.99113 5.55812 2.22363 6.5" stroke="black" stroke-linecap="round" stroke-linejoin="round"/>
</g>
<defs>
<clipPath id="clip0_2702_20277">
<rect width="16" height="16" fill="white" transform="translate(0.223633)"/>
</clipPath>
</defs>
</svg>
