<svg viewBox="0 0 96 96" fill="currentColor" xmlns="http://www.w3.org/2000/svg">
<g clip-path="url(#clip0_666_5)">
<path d="M48 8C25.92 8 8 25.92 8 48C8 70.08 25.92 88 48 88C70.08 88 88 70.08 88 48C88 25.92 70.08 8 48 8ZM51.52 71.04V76H44.52V70.84C41.56 70.12 34.96 67.76 32.44 59L39.04 56.32C39.28 57.2 41.36 64.68 48.64 64.68C52.36 64.68 56.56 62.76 56.56 58.24C56.56 54.4 53.76 52.4 47.44 50.12C43.04 48.56 34.04 46 34.04 36.88C34.04 36.48 34.08 27.28 44.52 25.04V20H51.52V24.96C58.88 26.24 61.56 32.12 62.16 33.88L55.84 36.56C55.4 35.16 53.48 31.2 48.24 31.2C45.44 31.2 41 32.68 41 36.76C41 40.56 44.44 42 51.56 44.36C61.16 47.68 63.6 52.56 63.6 58.16C63.6 68.68 53.6 70.68 51.52 71.04Z" fill="currentColor"/>
</g>
<defs>
<clipPath id="clip0_666_5">
<rect width="96" height="96" fill="white"/>
</clipPath>
</defs>
</svg>
