<svg width="20" height="20" viewBox="0 0 20 20" fill="none" xmlns="http://www.w3.org/2000/svg">
<path d="M3.75 14.375V5.625" stroke="#ED1B34" stroke-width="1.25" stroke-linecap="round" stroke-linejoin="round"/>
<path d="M16.25 5.625V14.375" stroke="#ED1B34" stroke-width="1.25" stroke-linecap="round" stroke-linejoin="round"/>
<path d="M16.875 3.125H3.125C2.77982 3.125 2.5 3.40482 2.5 3.75V5C2.5 5.34518 2.77982 5.625 3.125 5.625H16.875C17.2202 5.625 17.5 5.34518 17.5 5V3.75C17.5 3.40482 17.2202 3.125 16.875 3.125Z" stroke="#ED1B34" stroke-width="1.25" stroke-linecap="round" stroke-linejoin="round"/>
<path d="M10 14.375V16.875" stroke="#ED1B34" stroke-width="1.25" stroke-linecap="round" stroke-linejoin="round"/>
<path d="M10 19.375C10.6904 19.375 11.25 18.8154 11.25 18.125C11.25 17.4346 10.6904 16.875 10 16.875C9.30964 16.875 8.75 17.4346 8.75 18.125C8.75 18.8154 9.30964 19.375 10 19.375Z" fill="#ED1B34" stroke="#ED1B34" stroke-width="1.25" stroke-linecap="round" stroke-linejoin="round"/>
<path d="M2.5 14.375H17.5" stroke="#ED1B34" stroke-width="1.25" stroke-linecap="round" stroke-linejoin="round"/>
</svg>
