<?xml version="1.0" standalone="no"?>
<!DOCTYPE svg PUBLIC "-//W3C//DTD SVG 20010904//EN"
 "http://www.w3.org/TR/2001/REC-SVG-20010904/DTD/svg10.dtd">
<svg version="1.0" xmlns="http://www.w3.org/2000/svg"
 width="360.000000pt" height="360.000000pt" viewBox="0 0 360.000000 360.000000"
 preserveAspectRatio="xMidYMid meet">

<g transform="translate(0.000000,360.000000) scale(0.100000,-0.100000)"
fill="#000000" stroke="none">
<path d="M1515 2964 c-277 -43 -545 -147 -776 -303 -123 -82 -283 -220 -305
-263 -20 -38 -20 -97 -1 -134 18 -34 281 -296 314 -313 29 -14 103 -13 129 2
60 35 322 250 332 272 7 16 12 79 12 165 l0 139 55 20 c305 114 689 119 1005
13 l85 -29 5 -146 c6 -176 0 -166 166 -295 183 -142 199 -152 258 -152 l50 0
165 165 166 165 0 59 0 60 -65 67 c-248 252 -628 441 -1015 504 -145 24 -439
26 -580 4z"/>
<path d="M1447 2230 c-8 -67 -36 -128 -83 -180 -22 -24 -138 -119 -259 -213
-361 -279 -358 -276 -413 -386 l-37 -75 0 -306 0 -306 28 -42 c15 -23 46 -54
69 -69 l42 -28 993 -3 c966 -2 994 -2 1031 17 51 26 108 91 121 138 6 22 11
141 11 283 0 260 -7 315 -51 403 -41 81 -92 128 -372 345 -155 120 -295 236
-311 257 -33 43 -60 110 -71 173 l-7 42 -342 0 -343 0 -6 -50z m478 -365 c194
-51 355 -230 385 -429 35 -229 -105 -466 -330 -557 -83 -33 -236 -38 -327 -11
-261 80 -424 360 -358 616 73 280 357 452 630 381z"/>
<path d="M1720 1759 c-160 -31 -293 -172 -319 -337 -44 -283 233 -526 505
-444 231 70 351 312 265 535 -44 113 -173 220 -299 246 -60 12 -88 13 -152 0z"/>
</g>
</svg>
