<svg class="svg-icon" style="width: 1em; height: 1em;vertical-align: middle;fill: currentColor;overflow: hidden;" viewBox="0 0 1024 1024" version="1.1" xmlns="http://www.w3.org/2000/svg"><path d="M479.9 640.4V384.1c0-17.6 14.3-31.9 31.9-31.9h0.2c17.6 0 31.9 14.3 31.9 31.9v256.3c0 17.6-14.3 31.9-31.9 31.9h-0.2c-17.6 0-31.9-14.3-31.9-31.9zM512.2 735.8h0.2c17.6 0 31.9 14.3 31.9 31.9v0.2c0 17.6-14.3 31.9-31.9 31.9h-0.2c-17.6 0-31.9-14.3-31.9-31.9v-0.2c0-17.6 14.3-31.9 31.9-31.9z"  /><path d="M511.9 195.7l362 651h-724l362-651m0-97.8c-11 0-21.9 5.5-28 16.5L67.6 863.1c-11.9 21.4 3.6 47.7 28 47.7h832.5c24.5 0 39.9-26.3 28-47.7L539.9 114.4c-6.1-11-17-16.5-28-16.5z"  /></svg>