<svg width="40" height="40" viewBox="0 0 40 40" fill="none" xmlns="http://www.w3.org/2000/svg">
<path d="M0 20C0 31.0457 8.95431 40 20 40C31.0457 40 40 31.0457 40 20C40 8.95431 31.0457 0 20 0C8.95431 0 0 8.95431 0 20Z" fill="#EEEEEF"/>
<path d="M20.002 24.1396C22.2866 24.1396 24.1387 22.2876 24.1387 20.0029C24.1387 17.7183 22.2866 15.8662 20.002 15.8662C17.7173 15.8662 15.8652 17.7183 15.8652 20.0029C15.8652 22.2876 17.7173 24.1396 20.002 24.1396Z" stroke="#6E6F6F" stroke-width="1.65469" stroke-linecap="round" stroke-linejoin="round"/>
<path d="M11.0492 25.1833C10.5921 24.3959 10.2419 23.5512 10.0078 22.6713L11.7432 20.4995C11.7235 20.1675 11.7235 19.8346 11.7432 19.5026L10.0088 17.3308C10.2425 16.4508 10.592 15.6057 11.0482 14.8177L13.8105 14.5075C14.0311 14.259 14.2662 14.0238 14.5148 13.8032L14.825 11.0419C15.6119 10.5879 16.4556 10.2405 17.3339 10.0088L19.5057 11.7441C19.8377 11.7245 20.1706 11.7245 20.5027 11.7441L22.6744 10.0098C23.5544 10.2435 24.3995 10.593 25.1875 11.0492L25.4978 13.8115C25.7463 14.032 25.9814 14.2672 26.202 14.5157L28.9633 14.826C29.4204 15.6134 29.7706 16.4582 30.0047 17.338L28.2694 19.5098C28.289 19.8418 28.289 20.1747 28.2694 20.5067L30.0037 22.6785C29.7716 23.5583 29.4239 24.4033 28.9695 25.1916L26.2072 25.5018C25.9866 25.7504 25.7514 25.9855 25.5029 26.2061L25.1927 28.9674C24.4053 29.4245 23.5605 29.7747 22.6806 30.0088L20.5089 28.2734C20.1768 28.2931 19.8439 28.2931 19.5119 28.2734L17.3401 30.0078C16.4604 29.7757 15.6153 29.428 14.8271 28.9736L14.5168 26.2113C14.2683 25.9907 14.0331 25.7555 13.8126 25.507L11.0492 25.1833Z" stroke="#6E6F6F" stroke-width="1.65469" stroke-linecap="round" stroke-linejoin="round"/>
</svg>
