<svg xmlns="http://www.w3.org/2000/svg" viewBox="0 0 24 24">
  <path
    d="M2,11.61V5.36A3.31,3.31,0,0,1,4.67,2.07,3.36,3.36,0,0,1,5.38,2h12.5a3.33,3.33,0,0,1,3.38,3.28v8.45a.49.49,0,0,1-.12.4.36.36,0,0,1-.37.08.38.38,0,0,1-.25-.31V5.4a2.58,2.58,0,0,0-2-2.59,3,3,0,0,0-.66-.07H5.41A2.6,2.6,0,0,0,2.74,5.25V17.87a2.58,2.58,0,0,0,2.52,2.64h8.65a.37.37,0,0,1,0,.73H5.44A3.33,3.33,0,0,1,2,18V11.61Z"
  />
  <path
    d="M13.85,6.07h3.91a.74.74,0,0,1,.21,0,.34.34,0,0,1,.32.35A.36.36,0,0,1,18,6.8H9.73a.35.35,0,0,1-.32-.37.34.34,0,0,1,.32-.36h0a.74.74,0,0,1,.21,0Z"
  />
  <path d="M13.87,11.26h4.07a.39.39,0,0,1,.36.36.38.38,0,0,1-.37.37H9.73a.35.35,0,0,1-.32-.37.37.37,0,0,1,.33-.36Z" />
  <path d="M11.44,17.18H9.85c-.27,0-.44-.14-.44-.37s.16-.37.43-.37h3.21c.27,0,.44.15.43.38a.36.36,0,0,1-.38.36H11.44Z" />
  <path d="M18.33,14.59A3.7,3.7,0,1,0,22,18.32v0A3.7,3.7,0,0,0,18.33,14.59Zm0,6.66a3,3,0,1,1,3-3,3,3,0,0,1-3,3h0Z" />
  <path d="M6.46,5A1.48,1.48,0,1,0,7.93,6.48h0A1.49,1.49,0,0,0,6.46,5Zm0,2.22a.73.73,0,0,1-.74-.72v0a.74.74,0,1,1,1.48,0h0a.75.75,0,0,1-.75.71Z" />
  <path d="M6.43,10.15a1.48,1.48,0,1,0,1.5,1.47,1.48,1.48,0,0,0-1.5-1.47Zm0,2.22a.7.7,0,1,1,.76-.71.74.74,0,0,1-.77.71h0Z" />
  <path
    d="M6.45,15.33a1.48,1.48,0,1,0,1.48,1.49A1.49,1.49,0,0,0,6.45,15.33Zm0,2.22a.74.74,0,0,1,0-1.48h0a.75.75,0,0,1,.74.75A.76.76,0,0,1,6.45,17.55Z"
  />
  <path
    d="M17.93,17.3v-.49a.36.36,0,0,1,.35-.37h0a.35.35,0,0,1,.36.34v.95c0,.15,0,.2.19.2h.88a.39.39,0,0,1,.42.36h0a.38.38,0,0,1-.38.38h-.95c-.13,0-.16,0-.16.16v.9c0,.3-.16.43-.38.42a.36.36,0,0,1-.36-.38v-.92c0-.29,0-.19-.17-.18h-.88c-.27,0-.44-.15-.43-.37a.38.38,0,0,1,.44-.37h.88c.13,0,.17,0,.16-.16s0-.31,0-.46Z"
  />
</svg>
