<svg width="17" height="18" viewBox="0 0 17 18" fill="none" xmlns="http://www.w3.org/2000/svg">
<path d="M8.125 0.875C6.51803 0.875 4.94714 1.35152 3.611 2.24431C2.27485 3.1371 1.23344 4.40605 0.618482 5.8907C0.00352044 7.37535 -0.157382 9.00901 0.156123 10.5851C0.469628 12.1612 1.24346 13.6089 2.37976 14.7452C3.51606 15.8815 4.9638 16.6554 6.5399 16.9689C8.11599 17.2824 9.74966 17.1215 11.2343 16.5065C12.719 15.8916 13.9879 14.8502 14.8807 13.514C15.7735 12.1779 16.25 10.607 16.25 9C16.2477 6.84581 15.391 4.78051 13.8677 3.25727C12.3445 1.73403 10.2792 0.877275 8.125 0.875ZM11.25 11.5C11.25 11.6658 11.1842 11.8247 11.0669 11.9419C10.9497 12.0592 10.7908 12.125 10.625 12.125H6.875C6.70924 12.125 6.55027 12.0592 6.43306 11.9419C6.31585 11.8247 6.25 11.6658 6.25 11.5C6.25 11.3342 6.31585 11.1753 6.43306 11.0581C6.55027 10.9408 6.70924 10.875 6.875 10.875H9.11641L5.18282 6.94219C5.06554 6.82491 4.99966 6.66585 4.99966 6.5C4.99966 6.33415 5.06554 6.17509 5.18282 6.05781C5.30009 5.94054 5.45915 5.87465 5.625 5.87465C5.79086 5.87465 5.94992 5.94054 6.06719 6.05781L10 9.99141V7.75C10 7.58424 10.0659 7.42527 10.1831 7.30806C10.3003 7.19085 10.4592 7.125 10.625 7.125C10.7908 7.125 10.9497 7.19085 11.0669 7.30806C11.1842 7.42527 11.25 7.58424 11.25 7.75V11.5Z" fill="#047BC1"/>
</svg>
