<svg width="20" height="20" viewBox="0 0 20 20" fill="none" xmlns="http://www.w3.org/2000/svg">
<g clip-path="url(#clip0_4038_36575)">
<path d="M10.625 16.8751V2.50011C10.6249 2.387 10.5942 2.27603 10.536 2.17902C10.4778 2.08202 10.3944 2.00263 10.2946 1.9493C10.1949 1.89598 10.0825 1.87072 9.96956 1.87623C9.85658 1.88174 9.74722 1.9178 9.65313 1.98058L3.40313 6.14699C3.3174 6.20418 3.24715 6.28169 3.19862 6.37261C3.1501 6.46352 3.12481 6.56503 3.125 6.66808V16.8751" stroke="#CE182D" stroke-width="1.25" stroke-linecap="round" stroke-linejoin="round"/>
<path d="M10.625 6.875H16.25C16.4158 6.875 16.5747 6.94085 16.6919 7.05806C16.8092 7.17527 16.875 7.33424 16.875 7.5V16.875" stroke="#CE182D" stroke-width="1.25" stroke-linecap="round" stroke-linejoin="round"/>
<path d="M1.25 16.875H18.75" stroke="#CE182D" stroke-width="1.25" stroke-linecap="round" stroke-linejoin="round"/>
<path d="M8.125 8.75V10" stroke="#CE182D" stroke-width="1.25" stroke-linecap="round" stroke-linejoin="round"/>
<path d="M5.625 8.75V10" stroke="#CE182D" stroke-width="1.25" stroke-linecap="round" stroke-linejoin="round"/>
<path d="M5.625 13.125V14.375" stroke="#CE182D" stroke-width="1.25" stroke-linecap="round" stroke-linejoin="round"/>
<path d="M8.125 13.125V14.375" stroke="#CE182D" stroke-width="1.25" stroke-linecap="round" stroke-linejoin="round"/>
</g>
<defs>
<clipPath id="clip0_4038_36575">
<rect width="20" height="20" fill="white"/>
</clipPath>
</defs>
</svg>
