<?xml version="1.0" standalone="no"?>
<!DOCTYPE svg PUBLIC "-//W3C//DTD SVG 20010904//EN"
 "http://www.w3.org/TR/2001/REC-SVG-20010904/DTD/svg10.dtd">
<svg version="1.0" xmlns="http://www.w3.org/2000/svg"
 width="320.000000pt" height="320.000000pt" viewBox="0 0 320.000000 320.000000"
 preserveAspectRatio="xMidYMid meet">

<g transform="translate(0.000000,320.000000) scale(0.100000,-0.100000)"
fill="#000000" stroke="none">
<path d="M421 3069 c-171 -22 -328 -151 -393 -325 -23 -59 -23 -63 -26 -734
-2 -467 0 -695 8 -740 30 -175 162 -327 333 -383 50 -16 99 -21 251 -26 l188
-6 104 -260 c57 -143 109 -271 116 -284 18 -34 66 -61 110 -61 73 0 91 27 213
334 l110 276 650 0 c707 0 732 2 845 57 77 37 179 142 218 223 52 109 53 136
50 870 -3 671 -3 675 -26 734 -67 178 -220 302 -402 326 -92 12 -2257 11
-2349 -1z m2398 -265 c56 -28 101 -80 123 -142 10 -29 13 -181 13 -702 l0
-665 -30 -54 c-16 -29 -43 -64 -60 -77 -74 -56 -47 -54 -797 -54 -381 0 -710
-3 -731 -7 -61 -10 -86 -45 -156 -222 -36 -89 -68 -164 -72 -167 -4 -2 -37 71
-74 164 -66 166 -82 193 -120 215 -13 8 -106 14 -261 17 l-241 5 -49 30 c-73
46 -110 114 -119 218 -4 45 -5 350 -3 677 3 545 4 598 21 634 29 65 63 102
119 130 l52 26 1166 0 1166 0 53 -26z"/>
</g>
</svg>
