<svg viewBox="0 0 24 24" fill="currentColor" xmlns="http://www.w3.org/2000/svg">
<g clip-path="url(#clip0_18352_277)">
<path d="M12.7041 0C11.153 0 9.84473 1.30823 9.84473 2.85937C9.84473 4.41051 11.153 5.71874 12.7041 5.71874C14.2552 5.71874 15.5166 4.41051 15.5166 2.85937C15.5166 1.30823 14.2552 0 12.7041 0Z" fill="currentColor"/>
<path d="M15.8256 5.71875C15.0529 6.57558 13.9461 7.125 12.7041 7.125C11.4621 7.125 10.3085 6.57558 9.53572 5.71875C8.8611 6.46683 8.43848 7.44684 8.43848 8.53124V9.23437C8.43848 9.62301 8.75296 9.93749 9.1416 9.93749H16.2197C16.6084 9.93749 16.9228 9.62301 16.9228 9.23437V8.53124C16.9228 7.44684 16.5002 6.46683 15.8256 5.71875Z" fill="currentColor"/>
<path d="M6.79416 21.5814L3.211 14.3976C2.86501 13.7039 2.02295 13.421 1.32841 13.7651L0.391894 14.229C0.0431915 14.402 -0.0986989 14.8257 0.0753476 15.1738L4.29409 23.6113C4.46757 23.9593 4.88959 24.0977 5.23548 23.9272L6.15995 23.4692C6.85721 23.1238 7.14141 22.2777 6.79416 21.5814Z" fill="currentColor"/>
<path d="M23.425 11.611C22.8484 11.1891 22.0469 11.2735 21.5688 11.7938L17.725 16.5188C17.4579 16.8 16.9516 16.9688 16.6844 16.9688H13.4078C13.014 16.9688 12.7047 16.6594 12.7047 16.2656C12.7047 15.8718 13.014 15.5625 13.4078 15.5625C14.3495 15.5625 15.3921 15.5625 16.2203 15.5625C16.9937 15.5625 17.6266 14.9297 17.6266 14.1563C17.6266 13.3828 16.9937 12.75 16.2203 12.75C12.9182 12.75 16.068 12.75 12.5359 12.75C12.1855 12.75 12.0108 12.5278 11.7344 12.2859C10.6465 11.3069 9.01803 10.8353 7.36944 11.2174C6.45407 11.4296 5.83677 11.7994 5.21071 12.2952L5.18985 12.2783L4.17285 13.1733L8.16959 21.1875H9.35309H16.2203C17.5422 21.1875 18.8079 20.5547 19.5954 19.5L23.7203 13.5938C24.1844 12.975 24.0578 12.0751 23.425 11.611Z" fill="currentColor"/>
</g>
<defs>
<clipPath id="clip0_18352_277">
<rect width="24" height="24" fill="white"/>
</clipPath>
</defs>
</svg>
