<svg width="16" height="16" viewBox="0 0 16 16" fill="none" xmlns="http://www.w3.org/2000/svg">
<path d="M7.00008 13H4.50008C4.0038 12.9994 3.51333 12.8932 3.06121 12.6886C2.60909 12.484 2.20565 12.1855 1.87767 11.8131C1.54969 11.4406 1.30467 11.0027 1.15886 10.5283C1.01306 10.0539 0.969798 9.55398 1.03196 9.06162C1.09412 8.56925 1.26028 8.09573 1.51941 7.67248C1.77854 7.24923 2.12471 6.88592 2.53497 6.60667C2.94522 6.32742 3.41017 6.13861 3.89896 6.05276C4.38776 5.96692 4.88922 5.986 5.37008 6.10875" stroke="#343330" stroke-width="1.5" stroke-linecap="round" stroke-linejoin="round"/>
<path d="M7.5 10L9.5 8L11.5 10" stroke="#343330" stroke-width="1.5" stroke-linecap="round" stroke-linejoin="round"/>
<path d="M9.5 13V8" stroke="#343330" stroke-width="1.5" stroke-linecap="round" stroke-linejoin="round"/>
<path d="M5 7.99999C5.00021 7.09859 5.2441 6.21401 5.70585 5.43986C6.1676 4.66571 6.83004 4.03078 7.62307 3.60227C8.4161 3.17376 9.31023 2.9676 10.2108 3.00561C11.1114 3.04361 11.985 3.32438 12.7391 3.81818C13.4932 4.31199 14.0998 5.00047 14.4947 5.81077C14.8896 6.62107 15.0581 7.52305 14.9823 8.42127C14.9066 9.31948 14.5894 10.1805 14.0644 10.9132C13.5395 11.646 12.8261 12.2232 12 12.5837" stroke="#343330" stroke-width="1.5" stroke-linecap="round" stroke-linejoin="round"/>
</svg>
