<svg class="svg-icon" style="width: 1em; height: 1em;vertical-align: middle;fill: currentColor;overflow: hidden;" viewBox="0 0 1024 1024" version="1.1" xmlns="http://www.w3.org/2000/svg"><path d="M177.495502 287.058198l182.490301-1.825771 0.793814 79.381358-182.490301 1.825772zM177.846517 471.675672l258.181666-1.938642 0.59536 79.380118-258.180426 1.937401zM177.938301 693.470908l513.095054-2.597259 0.400628 79.381358-513.093814 2.596019z"  /><path d="M876.715034 1023.987597H75.819145a39.690679 39.690679 0 0 1-39.690679-39.69068V94.568327a39.690679 39.690679 0 0 1 39.690679-39.690679h509.888791a39.690679 39.690679 0 0 1 0 79.381358H115.509824v810.347232h721.514531V482.569523a39.690679 39.690679 0 0 1 79.381358 0v501.727394a39.690679 39.690679 0 0 1-39.690679 39.69068z"  /><path d="M735.87514 567.222299l-68.627665-39.889132 226.658585-389.998133-74.643284-43.411681-226.670988 390.02294L523.976526 444.044757 770.579677 19.751397a39.690679 39.690679 0 0 1 54.264601-14.375468L968.115226 88.651935a39.690679 39.690679 0 0 1 14.375468 54.264601z"  /><path d="M595.643009 604.692781a39.690679 39.690679 0 0 1-38.338715-29.532346l-33.823901-127.754373 76.727044-20.32907 23.665568 89.304028 89.304028-23.665568 20.329069 76.727045-127.754373 33.836304a40.236426 40.236426 0 0 1-10.10872 1.41398z"  /></svg>