<?xml version="1.0" standalone="no"?>
<!DOCTYPE svg PUBLIC "-//W3C//DTD SVG 20010904//EN"
 "http://www.w3.org/TR/2001/REC-SVG-20010904/DTD/svg10.dtd">
<svg version="1.0" xmlns="http://www.w3.org/2000/svg"
 width="225.000000pt" height="225.000000pt" viewBox="0 0 225.000000 225.000000"
 preserveAspectRatio="xMidYMid meet">

<g transform="translate(0.000000,225.000000) scale(0.100000,-0.100000)"
fill="#000000" stroke="none">
<path d="M975 2239 c-168 -21 -382 -107 -515 -208 -145 -110 -263 -250 -340
-406 -210 -428 -136 -926 190 -1269 335 -353 843 -453 1284 -252 226 103 434
307 541 531 180 375 140 825 -103 1151 -251 336 -643 504 -1057 453z m311
-190 c351 -62 633 -316 741 -666 25 -81 27 -102 27 -258 0 -156 -2 -177 -27
-258 -97 -316 -328 -547 -642 -643 -83 -26 -103 -28 -260 -28 -156 0 -177 2
-258 27 -317 98 -546 327 -644 644 -25 81 -27 102 -27 258 0 157 2 177 28 260
104 341 369 584 717 660 77 16 263 19 345 4z"/>
<path d="M852 1589 c-25 -12 -55 -39 -70 -62 l-27 -41 0 -361 0 -361 27 -41
c37 -56 102 -87 171 -81 47 4 80 22 320 172 314 197 322 205 322 311 0 106 -8
114 -322 311 -250 157 -272 168 -323 171 -42 3 -65 -1 -98 -18z m347 -326
c112 -71 204 -133 204 -138 0 -8 -365 -244 -435 -281 l-28 -15 0 296 0 296 28
-15 c15 -8 119 -72 231 -143z"/>
</g>
</svg>
