<svg width="18" height="18" viewBox="0 0 18 18" fill="none" xmlns="http://www.w3.org/2000/svg">
<path d="M14.625 8.4375H3.375C3.06434 8.4375 2.8125 8.68934 2.8125 9V10.6875C2.8125 10.9982 3.06434 11.25 3.375 11.25H14.625C14.9357 11.25 15.1875 10.9982 15.1875 10.6875V9C15.1875 8.68934 14.9357 8.4375 14.625 8.4375Z" stroke="#B7B8B9" stroke-width="1.5" stroke-linecap="round" stroke-linejoin="round"/>
<path d="M14.625 3.375H3.375C3.06434 3.375 2.8125 3.62684 2.8125 3.9375V5.625C2.8125 5.93566 3.06434 6.1875 3.375 6.1875H14.625C14.9357 6.1875 15.1875 5.93566 15.1875 5.625V3.9375C15.1875 3.62684 14.9357 3.375 14.625 3.375Z" stroke="#B7B8B9" stroke-width="1.5" stroke-linecap="round" stroke-linejoin="round"/>
<path d="M7.3125 15.1875H10.6875" stroke="#B7B8B9" stroke-width="1.5" stroke-linecap="round" stroke-linejoin="round"/>
<path d="M9 13.5V16.875" stroke="#B7B8B9" stroke-width="1.5" stroke-linecap="round" stroke-linejoin="round"/>
</svg>
