<svg viewBox="0 0 70 70" fill="none" xmlns="http://www.w3.org/2000/svg">
<path d="M21.875 52.5V9.95602L20.1089 8.77332C12.6 11.7877 7.29166 19.1216 7.29166 27.7083V42.2917C7.29166 53.5675 16.4325 62.7083 27.7083 62.7083H42.2917C49.1779 62.7083 55.246 59.2842 58.9414 54.0589V52.5H21.875Z" fill="#2962FF"/>
<path d="M42.2917 7.29163H27.7083C25.0177 7.29163 22.4569 7.82538 20.1046 8.77038C15.2439 13.4895 11.6667 21.1866 11.6667 27.7083C11.6667 37.5827 13.0317 43.3635 17.08 49.0102C17.395 49.4491 17.6006 49.9625 17.6283 50.5006C17.691 51.7183 17.4402 53.9495 15.2454 55.9577C15.0092 56.1735 15.1594 56.5687 15.4787 56.5818C16.8525 56.6416 19.6248 56.5614 22.4744 55.3029C23.2867 54.9441 24.2112 55.0068 24.9958 55.4239C29.8273 57.9891 35.4856 58.3333 40.8333 58.3333C47.6525 58.3333 54.4527 56.8166 58.9414 54.0808C61.3054 50.7485 62.7083 46.687 62.7083 42.2916V27.7083C62.7083 16.4325 53.5675 7.29163 42.2917 7.29163Z" fill="#ffff"/>
<path d="M53.5938 39.375C50.5794 39.375 48.125 36.9206 48.125 33.9062C48.125 30.8919 50.5794 28.4375 53.5938 28.4375C56.6081 28.4375 59.0625 30.8919 59.0625 33.9062C59.0625 36.9206 56.6081 39.375 53.5938 39.375ZM53.5938 30.625C51.7854 30.625 50.3125 32.0979 50.3125 33.9062C50.3125 35.7146 51.7854 37.1875 53.5938 37.1875C55.4021 37.1875 56.875 35.7146 56.875 33.9062C56.875 32.0979 55.4021 30.625 53.5938 30.625Z" fill="#2962FF"/>
<path d="M45.9375 39.375H44.4792C44.0767 39.375 43.75 39.0483 43.75 38.6458V26.25H45.9375V39.375Z" fill="#2962FF"/>
<path d="M39.375 28.8021V29.559C38.4577 28.8648 37.329 28.4375 36.0938 28.4375C33.0794 28.4375 30.625 30.8919 30.625 33.9062C30.625 36.9206 33.0794 39.375 36.0938 39.375C37.329 39.375 38.4577 38.9477 39.375 38.2535V38.6458C39.375 39.0483 39.7017 39.375 40.1042 39.375H41.5625V28.8021H39.375ZM36.0938 37.1875C34.2854 37.1875 32.8125 35.7146 32.8125 33.9062C32.8125 32.0979 34.2854 30.625 36.0938 30.625C37.9021 30.625 39.375 32.0979 39.375 33.9062C39.375 35.7146 37.9021 37.1875 36.0938 37.1875Z" fill="#2962FF"/>
<path d="M30.9896 26.25H19.3229V28.4375H27.0827L18.9583 37.9167H18.9963C18.7585 38.2244 18.5938 38.5919 18.5938 39.0104V39.375H29.5312C29.9337 39.375 30.2604 39.0483 30.2604 38.6458V37.1875H22.5006L30.625 27.7083H30.5871C30.8248 27.4006 30.9896 27.0331 30.9896 26.6146V26.25Z" fill="#2962FF"/>
</svg>
