<svg viewBox="0 0 96 96" fill="currentColor" xmlns="http://www.w3.org/2000/svg">
<g clip-path="url(#clip0_47_6)">
<path d="M48 24C52.44 24 56 20.4 56 16C56 14.48 55.6 13.08 54.84 11.88L48 0L41.16 11.88C40.4 13.08 40 14.48 40 16C40 20.4 43.6 24 48 24ZM72 36H52V28H44V36H24C17.36 36 12 41.36 12 48V84C12 86.2 13.8 88 16 88H80C82.2 88 84 86.2 84 84V48C84 41.36 78.64 36 72 36ZM76 80H20V68C23.6 67.96 27.04 66.52 29.6 63.96L33.96 59.68L38.24 63.96C43.48 69.2 52.6 69.16 57.8 63.96L62.12 59.68L66.4 63.96C68.96 66.52 72.4 67.96 76 68V80V80ZM76 62C73.96 61.96 72.04 61.2 70.6 59.72L62.08 51.2L53.52 59.72C50.56 62.68 45.4 62.68 42.44 59.72L33.92 51.2L25.36 59.72C23.96 61.16 22.04 61.96 20 62V48C20 45.8 21.8 44 24 44H72C74.2 44 76 45.8 76 48V62Z" fill="currentColor"/>
</g>
<defs>
<clipPath id="clip0_47_6">
<rect width="96" height="96" fill="white"/>
</clipPath>
</defs>
</svg>
