<svg viewBox="0 0 24 24" fill="currentColor" xmlns="http://www.w3.org/2000/svg">
<g clip-path="url(#clip0_18346_223)">
<path d="M19.2656 0.411743V4.68754H23.5411L19.2656 0.411743Z" fill="currentColor"/>
<path d="M18.5625 6.09375C18.1742 6.09375 17.8594 5.77894 17.8594 5.39062V0H7.78125C6.61814 0 5.67188 0.946266 5.67188 2.10938V9.9698C5.90353 9.9488 6.13795 9.9375 6.375 9.9375C8.77163 9.9375 10.917 11.0332 12.3368 12.75H19.9688C20.3571 12.75 20.6719 13.0648 20.6719 13.4531C20.6719 13.8414 20.3571 14.1562 19.9688 14.1562H13.2632C13.7027 15.0139 13.9861 15.964 14.0771 16.9688H19.9688C20.3571 16.9688 20.6719 17.2836 20.6719 17.6719C20.6719 18.0602 20.3571 18.375 19.9688 18.375H14.0771C13.8668 20.6971 12.6261 22.7262 10.8168 24H21.8438C23.0069 24 23.9531 23.0537 23.9531 21.8906V6.09375H18.5625ZM19.9688 9.9375H9.65625C9.26794 9.9375 8.95312 9.62269 8.95312 9.23438C8.95312 8.84606 9.26794 8.53125 9.65625 8.53125H19.9688C20.3571 8.53125 20.6719 8.84606 20.6719 9.23438C20.6719 9.62269 20.3571 9.9375 19.9688 9.9375Z" fill="currentColor"/>
<path d="M6.375 11.3438C2.88567 11.3438 0.046875 14.1825 0.046875 17.6719C0.046875 21.1612 2.88567 24 6.375 24C9.86433 24 12.7031 21.1612 12.7031 17.6719C12.7031 14.1825 9.86433 11.3438 6.375 11.3438ZM5.98439 16.9688H6.76566C7.58409 16.9688 8.25 17.6347 8.25 18.4531V19.2344C8.25 19.9456 7.74703 20.5414 7.07812 20.6854V20.9531C7.07812 21.3414 6.76331 21.6562 6.375 21.6562C5.98669 21.6562 5.67188 21.3414 5.67188 20.9531V20.6854C5.00297 20.5414 4.5 19.9456 4.5 19.2344C4.5 18.846 4.81481 18.5312 5.20312 18.5312C5.59144 18.5312 5.90625 18.846 5.90625 19.2344C5.90625 19.2774 5.94131 19.3125 5.98439 19.3125H6.76566C6.80873 19.3125 6.8438 19.2774 6.8438 19.2344V18.4531C6.8438 18.4101 6.80873 18.375 6.76566 18.375H5.98439C5.16591 18.375 4.5 17.7091 4.5 16.8906V16.1094C4.5 15.3981 5.00297 14.8023 5.67188 14.6584V14.3906C5.67188 14.0023 5.98669 13.6875 6.375 13.6875C6.76331 13.6875 7.07812 14.0023 7.07812 14.3906V14.6584C7.74703 14.8023 8.25 15.3981 8.25 16.1094C8.25 16.4977 7.93519 16.8125 7.54688 16.8125C7.15856 16.8125 6.84375 16.4977 6.84375 16.1094C6.84375 16.0663 6.80869 16.0312 6.76561 16.0312H5.98434C5.94127 16.0312 5.9062 16.0663 5.9062 16.1094V16.8906C5.90625 16.9337 5.94131 16.9688 5.98439 16.9688Z" fill="currentColor"/>
<ellipse cx="6.5" cy="17.5" rx="3.5" ry="5.5" fill="currentColor"/>
<path fill-rule="evenodd" clip-rule="evenodd" d="M4.6347 15C4.3334 15 4.07592 15.1968 3.97799 15.4667H9.02428C8.92624 15.1968 8.66842 15 8.36712 15H4.6347ZM3.70137 15.9338C3.3176 15.9338 3 16.2509 3 16.6347V20.3671C3 20.7509 3.3176 21.0685 3.70137 21.0685H9.30091C9.68468 21.0685 10 20.7509 10 20.3671V16.6347C10 16.2509 9.68468 15.9338 9.30091 15.9338H3.70137ZM6.49681 16.8639C6.6291 16.8614 6.73673 16.9691 6.73424 17.1014V19.3376L7.27018 18.8031C7.2911 18.7786 7.31685 18.7588 7.3458 18.7448C7.37475 18.7308 7.40628 18.7229 7.43842 18.7217C7.47055 18.7204 7.50259 18.7259 7.53254 18.7376C7.56248 18.7493 7.58967 18.7671 7.61241 18.7899C7.63515 18.8126 7.65295 18.8398 7.66468 18.8697C7.67641 18.8997 7.68183 18.9317 7.68059 18.9639C7.67935 18.996 7.67148 19.0275 7.65748 19.0565C7.64348 19.0854 7.62364 19.1112 7.59922 19.1321L6.66543 20.0659C6.62171 20.1093 6.56256 20.1337 6.50091 20.1337C6.43926 20.1337 6.38012 20.1093 6.33639 20.0659L5.40306 19.1321C5.37114 19.1011 5.34873 19.0617 5.33849 19.0184C5.32825 18.9751 5.33059 18.9298 5.34525 18.8878C5.3599 18.8458 5.38626 18.8088 5.42121 18.7813C5.45616 18.7538 5.49825 18.7368 5.54251 18.7324C5.57739 18.7292 5.61254 18.7339 5.64536 18.7461C5.67818 18.7584 5.70782 18.7778 5.7321 18.8031L6.26758 19.339V17.1014C6.26516 16.9725 6.36789 16.8666 6.49681 16.8639Z" fill="black"/>
</g>
<defs>
<clipPath id="clip0_18346_223">
<rect width="24" height="24" fill="white"/>
</clipPath>
</defs>
</svg>
