<svg viewBox="0 0 24 24" fill="currentColor" xmlns="http://www.w3.org/2000/svg">
<g clip-path="url(#clip0_3593_237)">
<path fill-rule="evenodd" clip-rule="evenodd" d="M12.7396 6.72165C12.7396 3.32663 9.98742 0.574463 6.59245 0.574463C3.19748 0.574463 0.445312 3.32663 0.445312 6.72165C0.445312 9.31927 2.05655 11.5405 4.33425 12.4407C6.42328 10.785 9.06028 9.79088 11.929 9.77467C12.4626 8.84396 12.7396 7.79518 12.7396 6.72165ZM15.4663 18.659C15.2273 18.4199 14.8395 18.4199 14.6005 18.659L12.3785 20.881C12.2588 20.8446 12.1317 20.825 12 20.825C11.2819 20.825 10.6997 21.4072 10.6997 22.1253C10.6997 22.8434 11.2819 23.4256 12 23.4256C12.7182 23.4256 13.3004 22.8434 13.3004 22.1253C13.3004 21.9937 13.2807 21.8666 13.2443 21.7468L15.4663 19.5248C15.7054 19.2857 15.7054 18.8981 15.4663 18.659ZM15.5104 15.2517C14.5687 14.7696 13.5148 14.4757 12.3984 14.4189H12.3985V10.5782C14.2134 10.6397 15.9222 11.1197 17.4311 11.9248L15.5104 15.2517ZM18.1178 12.3222L16.197 15.6493C17.1069 16.2403 17.8845 17.0177 18.4755 17.9276L21.8025 16.0067C20.8705 14.5165 19.608 13.2542 18.1178 12.3222ZM19.7167 22.1253C19.7167 20.8614 19.4127 19.6684 18.874 18.6155L22.2008 16.6947C23.0645 18.3137 23.5547 20.1622 23.5547 22.1253H19.7167ZM6.56892 11.9248C8.07787 11.1195 9.78661 10.6397 11.6016 10.5782H11.6016V14.4189C10.4852 14.4756 9.43134 14.7697 8.48972 15.2516L6.56892 11.9248ZM2.19745 16.0067C3.12952 14.5165 4.39205 13.2543 5.88216 12.3222L7.80305 15.6493C6.8932 16.2403 6.11555 17.0177 5.5245 17.9276L2.19745 16.0067ZM5.12606 18.6155L1.7992 16.6947C0.93539 18.3137 0.445312 20.1621 0.445312 22.1253H4.28348C4.28348 20.8614 4.58728 19.6683 5.12606 18.6155Z" fill="currentColor"/>
<path d="M6.63672 3C5.76439 3 5.05469 3.7097 5.05469 4.58203C5.05469 5.45436 5.76439 6.16406 6.63672 6.16406C7.50905 6.16406 8.21875 5.45436 8.21875 4.58203C8.21875 3.7097 7.50905 3 6.63672 3Z" fill="#D0D0D0"/>
<path d="M8.60507 7.1976C8.17195 6.75782 7.59776 6.51562 6.98828 6.51562H6.28516C5.67569 6.51562 5.10149 6.75782 4.66837 7.1976C4.23736 7.63522 4 8.21289 4 8.82422C4 8.9213 4.0787 9 4.17578 9H9.09766C9.19473 9 9.27344 8.9213 9.27344 8.82422C9.27344 8.21289 9.03607 7.63522 8.60507 7.1976Z" fill="#D0D0D0"/>
</g>
<defs>
<clipPath id="clip0_3593_237">
<rect width="24" height="24" fill="white"/>
</clipPath>
</defs>
</svg>
