<svg width="18" height="18" viewBox="0 0 18 18" fill="none" xmlns="http://www.w3.org/2000/svg">
<path d="M7.59375 10.4062L11.25 6.75" stroke="#B7B8B9" stroke-width="1.5" stroke-linecap="round" stroke-linejoin="round"/>
<path d="M15.7282 2.9658C15.7553 2.86958 15.7563 2.76787 15.7311 2.67115C15.7058 2.57442 15.6552 2.48617 15.5845 2.41548C15.5139 2.3448 15.4256 2.29422 15.3289 2.26897C15.2322 2.24372 15.1305 2.2447 15.0342 2.27182L1.53423 6.36541C1.42401 6.39652 1.32592 6.46052 1.25305 6.54888C1.18019 6.63723 1.13603 6.74571 1.12647 6.85984C1.11692 6.97396 1.14243 7.08828 1.19958 7.18752C1.25674 7.28675 1.34283 7.36618 1.44634 7.41518L7.59376 10.4063L10.5849 16.553C10.6339 16.6565 10.7133 16.7426 10.8125 16.7997C10.9118 16.8569 11.0261 16.8824 11.1402 16.8729C11.2543 16.8633 11.3628 16.8191 11.4512 16.7463C11.5395 16.6734 11.6035 16.5753 11.6346 16.4651L15.7282 2.9658Z" stroke="#B7B8B9" stroke-width="1.5" stroke-linecap="round" stroke-linejoin="round"/>
</svg>
