<svg viewBox="0 0 24 24" fill="currentColor" xmlns="http://www.w3.org/2000/svg">
<path d="M13.524 13.6321C13.524 14.4721 12.8441 15.1601 12.0041 15.1601C11.1561 15.1601 10.4761 14.4721 10.4761 13.6321C10.4761 12.7921 11.1561 12.1121 12.0041 12.1121C12.8441 12.1121 13.524 12.7921 13.524 13.6321Z" fill="currentColor"/>
<path d="M19.54 5.59207H6.06016C5.58338 5.59207 5.26016 5.18845 5.26016 4.80002C5.26016 4.35203 5.62012 4.00002 6.06016 4.00002H19.54C19.9801 4.00002 20.34 3.64006 20.34 3.20002C20.34 2.76003 19.9801 2.40002 19.54 2.40002H6.06016C4.74004 2.40002 3.66016 3.47205 3.66016 4.80002V19.2C3.66016 20.4565 4.62821 21.6 6.12402 21.6H18.34C19.4361 21.6 20.34 20.696 20.34 19.6V6.40803C20.34 6.40002 20.34 6.40002 20.34 6.39207C20.34 5.95203 19.9801 5.59207 19.54 5.59207ZM16.74 14.0801C16.74 14.208 16.6441 14.3281 16.5081 14.344L15.8041 14.448C15.7001 14.464 15.6201 14.544 15.5961 14.6401C15.524 14.904 15.4281 15.152 15.3161 15.3841C15.2681 15.472 15.2681 15.576 15.324 15.656L15.7641 16.256C15.8441 16.36 15.8361 16.504 15.74 16.6L15.0281 17.312C14.94 17.4 14.7961 17.408 14.6921 17.3281L14.148 16.9281C14.0602 16.864 13.948 16.856 13.8521 16.912C13.6201 17.056 13.3641 17.168 13.1001 17.248C13.0041 17.2801 12.932 17.36 12.9161 17.456L12.8121 18.152C12.7881 18.2801 12.6841 18.376 12.5561 18.376H11.548C11.4201 18.376 11.3081 18.2801 11.2921 18.152L11.1961 17.5281C11.1801 17.424 11.1081 17.3361 11.0041 17.32C10.7161 17.2401 10.4441 17.1361 10.1881 17C10.0921 16.952 9.98809 16.96 9.90811 17.024L9.38008 17.408C9.27607 17.4801 9.13203 17.472 9.04414 17.376L8.33203 16.672C8.24414 16.576 8.22813 16.4321 8.30811 16.3281L8.66016 15.848C8.73203 15.76 8.73203 15.648 8.67607 15.552C8.52402 15.296 8.4041 15.024 8.31611 14.7281C8.28408 14.6401 8.21211 14.56 8.10811 14.544L7.48408 14.448C7.35606 14.4321 7.26807 14.3281 7.26807 14.1921V13.1841C7.26807 13.056 7.35606 12.952 7.48408 12.9281L8.08408 12.8401C8.18809 12.824 8.26807 12.744 8.29209 12.6401C8.37207 12.352 8.48408 12.0801 8.63613 11.8321C8.68408 11.7361 8.68408 11.6321 8.62012 11.544L8.23613 11.024C8.15605 10.92 8.17207 10.776 8.26016 10.6801L8.97207 9.96804C9.06016 9.88005 9.2041 9.87205 9.30811 9.94402L9.82813 10.3281C9.90811 10.3921 10.0201 10.4 10.1161 10.344C10.3561 10.208 10.6201 10.0881 10.8921 10.016C10.9961 9.98406 11.0681 9.91204 11.0841 9.80803L11.1881 9.12805C11.2041 9.00002 11.3161 8.90403 11.4441 8.90403H12.4441C12.5801 8.90403 12.6841 9.00002 12.7081 9.12805L12.8121 9.80803C12.8281 9.91204 12.9001 9.98406 12.9961 10.016C13.2602 10.0881 13.5161 10.1921 13.74 10.32C13.8361 10.368 13.94 10.368 14.0201 10.312L14.6201 9.87205C14.724 9.79207 14.8681 9.80803 14.9561 9.89602L15.6681 10.608C15.7561 10.696 15.7721 10.8401 15.6921 10.944L15.2681 11.5281C15.2041 11.608 15.1961 11.72 15.2521 11.808C15.3721 12.0321 15.4841 12.2801 15.5561 12.5281C15.5881 12.624 15.6602 12.696 15.7641 12.712L16.5081 12.824C16.6441 12.8401 16.74 12.952 16.74 13.0801V14.0801Z" fill="currentColor"/>
<path d="M13.524 13.6321C13.524 14.4721 12.8441 15.1601 12.0041 15.1601C11.1561 15.1601 10.4761 14.4721 10.4761 13.6321C10.4761 12.7921 11.1561 12.1121 12.0041 12.1121C12.8441 12.1121 13.524 12.7921 13.524 13.6321Z" fill="currentColor"/>
</svg>
