<svg viewBox="0 0 24 24" fill="currentColor" xmlns="http://www.w3.org/2000/svg">
<path d="M18.835 1.53113H5.16504C2.31737 1.53113 0 3.8991 0 6.80897V12.037C0 14.9469 2.31737 17.3148 5.16504 17.3148H13.8054L20.0867 22.4689V17.1559C22.3586 16.5773 24 14.4855 24 12.037V6.80897C24 3.8991 21.6826 1.53113 18.835 1.53113ZM5.52686 11.6774C4.9153 11.6774 4.37035 11.5441 4.01736 11.353L4.27518 10.3115C4.54251 10.4741 5.09696 10.6652 5.52691 10.6652C5.96635 10.6652 6.14802 10.5122 6.14802 10.2734C6.14802 10.0339 6.00446 9.91962 5.46029 9.738C4.49496 9.41283 4.12217 8.88767 4.13167 8.33322C4.13167 7.46383 4.87729 6.80466 6.03306 6.80466C6.57796 6.80466 7.0658 6.92843 7.35213 7.07199L7.0943 8.07539C6.88408 7.96038 6.48274 7.80732 6.08136 7.80732C5.72758 7.80732 5.52691 7.95088 5.52691 8.18966C5.52691 8.40938 5.70852 8.52439 6.28202 8.72505C7.17046 9.03049 7.54325 9.48017 7.5528 10.1679C7.55275 11.0373 6.86498 11.6774 5.52686 11.6774ZM15.4929 11.5822H14.0786V9.04068C14.0786 8.36172 13.8582 7.96989 13.3902 7.96989C13.0562 7.96989 12.8167 8.19911 12.7215 8.47673C12.6834 8.58145 12.6644 8.73456 12.6644 8.84951V11.5822H11.2501V8.96378C11.2501 8.37123 11.0399 7.96989 10.5806 7.96989C10.2086 7.96989 9.98806 8.25701 9.9024 8.49578C9.85479 8.61005 9.84529 8.74406 9.84529 8.85906V11.5822H8.431V8.39988C8.431 7.81761 8.41195 7.32027 8.3929 6.90938H9.61607L9.68273 7.53999H9.71128C9.91195 7.24411 10.3228 6.80466 11.1256 6.80466C11.7276 6.80466 12.2052 7.1101 12.4058 7.59715H12.4249C12.597 7.35838 12.8072 7.16721 13.027 7.03394C13.2855 6.88087 13.5719 6.80471 13.9161 6.80471C14.8141 6.80471 15.493 7.43532 15.493 8.82987V11.5822H15.4929ZM17.8894 11.6774C17.2778 11.6774 16.7329 11.5441 16.3799 11.353L16.6377 10.3115C16.9051 10.4741 17.4595 10.6652 17.8895 10.6652C18.3289 10.6652 18.5106 10.5122 18.5106 10.2734C18.5106 10.0339 18.367 9.91962 17.8228 9.738C16.8575 9.41283 16.4847 8.88767 16.4942 8.33322C16.4942 7.46383 17.2398 6.80466 18.3956 6.80466C18.9405 6.80466 19.4276 6.92843 19.7146 7.07199L19.4568 8.07539C19.2466 7.96038 18.8452 7.80732 18.4439 7.80732C18.0901 7.80732 17.8894 7.95088 17.8894 8.18966C17.8894 8.40938 18.071 8.52439 18.6445 8.72505C19.533 9.03049 19.9057 9.48017 19.9153 10.1679C19.9153 11.0373 19.2275 11.6774 17.8894 11.6774Z" fill="currentColor"/>
</svg>
