<svg width="190" height="149" viewBox="0 0 190 149" fill="none" xmlns="http://www.w3.org/2000/svg">
<path d="M169.597 110.774C172.773 110.774 175.348 108.199 175.348 105.023C175.348 101.846 172.773 99.2715 169.597 99.2715C166.421 99.2715 163.846 101.846 163.846 105.023C163.846 108.199 166.421 110.774 169.597 110.774Z" fill="#EF3C50" fill-opacity="0.04"/>
<path d="M158.552 126.821C160.721 126.821 162.48 125.062 162.48 122.893C162.48 120.724 160.721 118.966 158.552 118.966C156.383 118.966 154.625 120.724 154.625 122.893C154.625 125.062 156.383 126.821 158.552 126.821Z" fill="#EF3C50" fill-opacity="0.04"/>
<path d="M31.2857 30.8176C33.4549 30.8176 35.2134 29.0591 35.2134 26.8899C35.2134 24.7207 33.4549 22.9622 31.2857 22.9622C29.1165 22.9622 27.358 24.7207 27.358 26.8899C27.358 29.0591 29.1165 30.8176 31.2857 30.8176Z" fill="#EF3C50" fill-opacity="0.04"/>
<path d="M7.29858 106.566C11.3271 106.566 14.5929 103.301 14.5929 99.2721C14.5929 95.2436 11.3271 91.9778 7.29858 91.9778C3.27004 91.9778 0.00427246 95.2436 0.00427246 99.2721C0.00427246 103.301 3.27004 106.566 7.29858 106.566Z" fill="#EF3C50" fill-opacity="0.04"/>
<path d="M95.8824 143.178C135.159 143.178 167.002 111.336 167.002 71.9182C167.002 32.5009 135.159 0.658447 95.8824 0.658447C56.6054 0.658447 24.7629 32.5009 24.7629 71.9182C24.7629 111.336 56.6054 143.178 95.8824 143.178Z" fill="#EF3C50" fill-opacity="0.04"/>
<path d="M137.185 11.3694C139.3 11.3694 141.09 12.9886 141.09 15.2556V129.897C141.09 132.002 139.463 133.784 137.185 133.784H52.4048C50.2894 133.784 48.4994 132.164 48.4994 129.897V15.2556C48.4994 13.1505 50.1266 11.3694 52.4048 11.3694H137.185Z" fill="#F8A5AF"/>
<path d="M141.09 23.3517V129.735C141.09 131.84 139.463 133.622 137.185 133.622H59.7274L52.893 126.821L129.862 21.4086L136.534 18.9797L141.09 23.3517Z" fill="#EF3C50"/>
<path d="M136.859 20.2751C136.859 19.6274 136.371 18.9797 135.557 18.9797H54.1948C53.5439 18.9797 52.893 19.4655 52.893 20.2751V125.525C52.893 126.173 53.3812 126.821 54.1948 126.821H135.395C136.046 126.821 136.696 126.335 136.696 125.525L136.859 20.2751Z" fill="#FFCFD5"/>
<path d="M136.859 20.2751C136.859 19.6274 136.371 18.9797 135.557 18.9797H54.1948C53.5439 18.9797 52.893 19.4655 52.893 20.2751C53.8693 62.2133 54.1948 109.657 49.6385 121.963L127.584 120.83C132.303 99.4558 135.883 61.0799 136.859 20.2751Z" fill="#FFECEF"/>
<g filter="url(#filter0_d_961_14759)">
<path d="M136.696 19.1414C136.696 19.1414 136.533 25.4564 134.581 65.7754C134.581 66.0992 134.581 66.2611 134.581 66.585C132.14 106.094 96.9911 114.352 92.7602 114.838C90.8075 115 87.0648 115.324 80.3931 115.324C72.0941 115.648 59.4016 115.81 39.5491 115.972C38.8982 115.972 38.41 115.324 38.7355 114.676C52.4044 87.3112 52.5671 19.3033 52.5671 19.3033L136.696 19.1414Z" fill="white"/>
</g>
<path d="M134.418 66.4233C132.14 105.933 96.8287 114.191 92.5979 114.677C90.6452 114.839 86.9025 115.162 80.2308 115.162C97.8051 107.066 107.243 92.493 107.08 81.1584C115.542 81.8061 130.187 81.1584 134.418 66.4233Z" fill="#FFECEF"/>
<path d="M114.566 11.6928C114.566 11.5309 114.566 11.5309 114.566 11.6928L113.752 10.8832C113.752 10.8832 113.264 11.0451 113.101 11.369H100.409C100.409 11.0451 100.409 10.8832 100.409 10.5594C100.409 7.96859 98.1306 5.70166 95.527 5.70166C92.9234 5.70166 90.6453 7.96859 90.6453 10.5594C90.6453 10.8832 90.6453 11.0451 90.808 11.2071H77.6272C76.9763 11.2071 76.3254 11.6928 76.3254 12.6644V16.8744C76.3254 20.1129 78.6036 22.0559 81.6954 22.0559H108.708C111.962 22.0559 114.729 20.1129 114.729 16.8744V12.5025C114.891 12.1786 114.729 11.8548 114.566 11.6928Z" fill="#1C3754"/>
<path d="M114.078 11.6932V15.9032C114.078 16.227 114.078 16.389 114.078 16.7128C113.589 19.4655 111.311 21.7324 108.382 21.7324H81.2071C78.2781 21.7324 75.9999 19.4655 75.5117 16.7128C75.5117 16.389 75.5117 16.227 75.5117 15.9032V11.6932C75.5117 11.0455 75.9999 10.2359 76.8135 10.2359H90.157C90.157 9.91202 90.157 9.7501 90.157 9.58818C90.157 6.9974 92.4352 4.73047 95.0388 4.73047C97.6424 4.73047 99.9205 6.9974 99.9205 9.58818C99.9205 9.91202 99.9205 10.0739 99.9205 10.2359H113.264C113.589 10.3978 114.078 10.8836 114.078 11.6932Z" fill="url(#paint0_linear_961_14759)"/>
<path d="M94.7134 11.8547C96.0152 11.8547 96.9916 10.8831 96.9916 9.58773C96.9916 8.29234 96.0152 7.3208 94.7134 7.3208C93.4116 7.3208 92.4352 8.29234 92.4352 9.58773C92.4352 10.8831 93.5743 11.8547 94.7134 11.8547Z" fill="#EAEEF9"/>
<path d="M113.915 16.7126C113.427 19.4653 111.149 21.7323 108.22 21.7323H81.2071C78.2781 21.7323 75.9999 19.4653 75.5117 16.7126H113.915Z" fill="#FDB913"/>
<path d="M72.9081 65.9376C75.5117 65.9376 77.4644 63.8326 77.4644 61.4037C77.4644 58.813 75.349 56.8699 72.9081 56.8699C70.3045 56.8699 68.3518 58.9749 68.3518 61.4037C68.1891 63.8326 70.3045 65.9376 72.9081 65.9376Z" fill="#989FB0"/>
<path d="M109.033 65.7752C111.637 65.7752 113.589 63.6702 113.589 61.2414C113.589 58.6506 111.474 56.7075 109.033 56.7075C106.592 56.7075 104.477 58.8125 104.477 61.2414C104.477 63.6702 106.43 65.7752 109.033 65.7752Z" fill="#989FB0"/>
<path d="M95.3643 70.7954H86.5771V72.9004H95.3643V70.7954Z" fill="#989FB0"/>
<path d="M183.073 19.627C186.653 36.467 186.165 54.2786 181.283 70.7948C180.144 74.1952 179.005 77.9195 176.564 80.5102C173.147 84.5583 166.963 86.3395 161.919 85.0441C156.712 83.7487 152.481 79.2148 151.504 73.7094C150.691 70.309 151.83 66.261 154.759 64.1559C157.851 62.2129 162.244 62.6986 164.848 65.1275C167.777 67.5563 168.916 71.2806 168.753 74.8429C168.591 78.4052 167.289 81.9675 165.499 85.0441C160.129 95.0834 150.365 103.018 139.137 106.58C130.838 109.171 121.888 109.171 113.589 106.904" stroke="#BEC0CB" stroke-width="2" stroke-miterlimit="10" stroke-dasharray="4 4"/>
<path d="M189.908 14.7698C189.419 16.551 187.467 17.1987 185.514 16.0652C183.399 15.0937 181.934 14.2841 182.259 12.6648C182.748 11.0456 184.7 10.8837 186.978 10.7218C189.745 10.3979 190.233 12.9887 189.908 14.7698Z" fill="#F15B40" fill-opacity="0.2"/>
<path d="M174.123 16.3892C174.937 17.8465 177.215 18.818 178.842 17.3607C180.632 15.7415 182.097 14.608 181.283 12.9888C180.47 11.5315 179.168 12.0173 176.401 12.3411C174.123 12.8269 173.147 14.77 174.123 16.3892Z" fill="#F15B40" fill-opacity="0.2"/>
<path d="M181.283 10.3978C182.422 10.2359 183.561 10.8836 183.887 11.8552C184.049 12.179 184.212 12.6648 184.212 12.9886C184.538 15.2556 183.724 17.1986 182.422 17.3606C180.958 17.6844 179.493 16.0652 179.33 13.9602C179.33 13.3125 179.33 12.9886 179.33 12.5029C179.493 11.3694 180.144 10.5598 181.283 10.3978C181.446 10.3978 181.283 10.3978 181.283 10.3978Z" fill="#F15B40"/>
<defs>
<filter id="filter0_d_961_14759" x="16.6319" y="8.14136" width="142.064" height="140.83" filterUnits="userSpaceOnUse" color-interpolation-filters="sRGB">
<feFlood flood-opacity="0" result="BackgroundImageFix"/>
<feColorMatrix in="SourceAlpha" type="matrix" values="0 0 0 0 0 0 0 0 0 0 0 0 0 0 0 0 0 0 127 0" result="hardAlpha"/>
<feOffset dy="11"/>
<feGaussianBlur stdDeviation="11"/>
<feColorMatrix type="matrix" values="0 0 0 0 0.929412 0 0 0 0 0.105882 0 0 0 0 0.203922 0 0 0 0.15 0"/>
<feBlend mode="normal" in2="BackgroundImageFix" result="effect1_dropShadow_961_14759"/>
<feBlend mode="normal" in="SourceGraphic" in2="effect1_dropShadow_961_14759" result="shape"/>
</filter>
<linearGradient id="paint0_linear_961_14759" x1="75.5583" y1="13.2336" x2="114.115" y2="13.2336" gradientUnits="userSpaceOnUse">
<stop stop-color="#FDB913"/>
<stop offset="1" stop-color="#E3A100"/>
</linearGradient>
</defs>
</svg>
