<svg width="21" height="20" viewBox="0 0 21 20" fill="none" xmlns="http://www.w3.org/2000/svg">
<path d="M3.05469 6.00977L10.5 10.0848L17.9453 6.00977" stroke="#CE182D" stroke-width="1.25" stroke-linecap="round" stroke-linejoin="round"/>
<path d="M10.8 1.95317L17.675 5.71723C17.7732 5.77095 17.8551 5.85003 17.9123 5.94623C17.9695 6.04243 17.9997 6.15221 18 6.26411V13.736C17.9997 13.8479 17.9695 13.9577 17.9123 14.0539C17.8551 14.1501 17.7732 14.2291 17.675 14.2829L10.8 18.0469C10.708 18.0973 10.6049 18.1236 10.5 18.1236C10.3951 18.1236 10.292 18.0973 10.2 18.0469L3.325 14.2829C3.22683 14.2291 3.14488 14.1501 3.08772 14.0539C3.03055 13.9577 3.00025 13.8479 3 13.736V6.26411C3.00025 6.15221 3.03055 6.04243 3.08772 5.94623C3.14488 5.85003 3.22683 5.77095 3.325 5.71723L10.2 1.95317C10.292 1.90284 10.3951 1.87646 10.5 1.87646C10.6049 1.87646 10.708 1.90284 10.8 1.95317Z" stroke="#CE182D" stroke-width="1.25" stroke-linecap="round" stroke-linejoin="round"/>
<path d="M10.5 10.085V18.1248" stroke="#CE182D" stroke-width="1.25" stroke-linecap="round" stroke-linejoin="round"/>
</svg>
