<svg width="12" height="14" viewBox="0 0 12 14" fill="none" xmlns="http://www.w3.org/2000/svg">
<path d="M8.5003 4L3.29343 9.29312C3.11046 9.48161 3.009 9.73451 3.01098 9.99719C3.01295 10.2599 3.11821 10.5112 3.304 10.6969C3.48978 10.8826 3.74118 10.9878 4.00386 10.9896C4.26654 10.9915 4.5194 10.8899 4.7078 10.7069L10.9147 4.41437C11.2898 4.03926 11.5005 3.53049 11.5005 3C11.5005 2.46951 11.2898 1.96074 10.9147 1.58562C10.5396 1.21051 10.0308 0.999771 9.5003 0.999771C8.96981 0.999771 8.46104 1.21051 8.08593 1.58562L1.87905 7.87875C1.32401 8.4429 1.01438 9.20353 1.0176 9.99494C1.02083 10.7863 1.33664 11.5444 1.89626 12.104C2.45587 12.6637 3.21395 12.9795 4.00536 12.9827C4.79677 12.9859 5.5574 12.6763 6.12155 12.1212L11.2503 7" stroke="#CE182D" stroke-linecap="round" stroke-linejoin="round"/>
</svg>
