<?xml version="1.0" standalone="no"?>
<!DOCTYPE svg PUBLIC "-//W3C//DTD SVG 20010904//EN"
 "http://www.w3.org/TR/2001/REC-SVG-20010904/DTD/svg10.dtd">
<svg version="1.0" xmlns="http://www.w3.org/2000/svg"
 width="980.000000pt" height="676.000000pt" viewBox="0 0 980.000000 676.000000"
 preserveAspectRatio="xMidYMid meet">

<g transform="translate(0.000000,676.000000) scale(0.100000,-0.100000)"
fill="#000000" stroke="none">
<path d="M3732 6741 c13 -34 603 -1289 605 -1287 7 6 -170 1261 -178 1267 -8
5 -349 30 -407 29 -13 0 -22 -4 -20 -9z"/>
<path d="M4978 6112 c-115 -69 -208 -130 -208 -134 0 -6 299 -447 337 -497 2
-2 5 -2 7 0 5 6 78 738 74 748 -2 5 -96 -48 -210 -117z"/>
<path d="M6697 5920 c-258 -25 -507 -113 -717 -255 -119 -81 -168 -123 -154
-133 5 -4 68 -49 139 -101 308 -225 593 -389 900 -519 110 -46 177 -63 835
-212 796 -180 815 -186 908 -280 122 -124 149 -264 93 -488 -38 -157 -61 -203
-135 -278 -94 -94 -228 -144 -349 -131 -29 3 -378 80 -777 170 -429 98 -768
170 -830 177 -409 44 -782 14 -1148 -92 -84 -24 -82 -17 -22 -139 71 -141 158
-258 284 -384 177 -176 345 -281 576 -359 136 -47 1653 -391 1790 -407 204
-23 450 4 653 72 374 124 706 416 871 763 54 113 86 211 130 396 46 194 60
316 53 464 -13 271 -92 511 -245 741 -217 328 -534 541 -947 638 -433 102
-1493 338 -1550 346 -111 16 -262 20 -358 11z"/>
<path d="M3291 5549 c-68 -160 -125 -298 -128 -308 -3 -13 3 -21 24 -29 15 -5
147 -53 293 -107 504 -185 484 -178 468 -153 -8 13 -126 212 -263 443 -136
231 -253 425 -259 432 -8 9 -41 -57 -135 -278z"/>
<path d="M4860 4864 c-140 -85 -256 -158 -258 -162 -1 -4 134 -38 300 -76 465
-105 478 -108 472 -117 -3 -5 -71 -48 -151 -96 -80 -48 -142 -88 -137 -90 5
-1 230 -53 499 -115 560 -128 594 -132 702 -83 74 33 153 111 185 182 31 68
31 199 1 265 -28 62 -106 144 -163 173 -44 22 -1127 275 -1174 275 -12 0 -136
-70 -276 -156z"/>
<path d="M3455 3865 c-747 -729 -720 -697 -720 -850 0 -78 4 -97 28 -147 36
-74 119 -150 195 -178 47 -18 73 -21 143 -18 150 7 111 -25 898 744 l701 685
0 175 c0 96 -3 174 -6 174 -3 0 -135 -126 -292 -280 l-287 -281 -5 305 -5 305
-650 -634z"/>
<path d="M2440 4103 c-375 -37 -675 -175 -950 -438 -255 -244 -971 -943 -1060
-1035 -265 -273 -409 -596 -427 -959 -15 -301 72 -615 242 -873 96 -146 377
-425 525 -524 178 -118 352 -192 553 -236 87 -19 132 -22 312 -22 179 0 224 3
308 22 222 49 437 146 603 270 81 61 698 654 1149 1106 202 203 273 296 360
479 97 201 138 389 137 627 -1 122 -22 313 -36 328 -6 5 -547 -267 -714 -360
-81 -44 -205 -119 -275 -165 -141 -93 -137 -89 -853 -789 -215 -211 -413 -397
-440 -414 -97 -61 -232 -85 -343 -59 -94 21 -153 59 -272 176 -150 146 -181
203 -187 339 -5 107 11 173 60 251 20 32 235 250 552 559 286 280 548 544 583
589 210 263 413 626 539 958 50 134 52 142 34 149 -53 20 -291 32 -400 21z"/>
</g>
</svg>
