<svg viewBox="0 0 24 24" fill="currentColor" xmlns="http://www.w3.org/2000/svg">
<path d="M16.2414 16.436C15.9242 16.6186 15.5679 16.7055 15.1767 16.7055C14.8247 16.7055 14.4988 16.636 14.2381 16.5838C14.1729 16.5664 14.0295 16.536 13.9252 16.523C13.8643 16.5708 13.7861 16.6447 13.7253 16.6968C13.6253 16.788 13.5167 16.888 13.395 16.9923L16.0937 22.4853C16.1676 22.6331 16.3197 22.7287 16.4848 22.7287C16.5022 22.7287 16.5196 22.7243 16.537 22.7243C16.7195 22.7026 16.8672 22.5636 16.9063 22.3854L17.2975 20.5906L18.9532 21.3771C19.1227 21.4597 19.3226 21.425 19.4486 21.2946C19.579 21.1598 19.6137 20.96 19.5312 20.7948L17.0063 15.6451C16.8368 15.945 16.5978 16.2318 16.2414 16.436Z" fill="currentColor"/>
<path d="M9.81016 16.5184C9.71458 16.5358 9.58853 16.5619 9.50595 16.5793C9.24086 16.6358 8.91495 16.7053 8.56295 16.7053C8.16748 16.7053 7.81114 16.6141 7.49824 16.4359C7.14187 16.2316 6.90287 15.9448 6.73337 15.6493L4.20852 20.7946C4.12593 20.9598 4.15636 21.1597 4.28674 21.2944C4.41714 21.4248 4.61701 21.4595 4.78215 21.377L6.44222 20.5904L6.82899 22.3852C6.86809 22.5634 7.02022 22.7024 7.20272 22.7241C7.22009 22.7241 7.23751 22.7285 7.25488 22.7285C7.42002 22.7285 7.57209 22.6329 7.64601 22.4851L10.3447 16.9878C10.2274 16.8922 10.1231 16.7966 10.0318 16.714C9.97097 16.6575 9.87971 16.5749 9.81016 16.5184Z" fill="currentColor"/>
<path d="M11.87 4.49573C9.45906 4.49573 7.49756 6.45723 7.49756 8.86818C7.49756 11.2791 9.45906 13.2402 11.87 13.2402C14.281 13.2402 16.2425 11.2791 16.2425 8.86818C16.2425 6.45723 14.281 4.49573 11.87 4.49573ZM14.2417 8.42051L13.327 9.30887L13.5416 10.5661C13.5679 10.7054 13.5077 10.8484 13.3947 10.935C13.2781 11.0178 13.1238 11.0291 12.9958 10.9613L11.8703 10.3704L10.741 10.9613C10.6883 10.9914 10.6281 11.0065 10.5679 11.0065C10.4888 11.0065 10.4098 10.9802 10.3458 10.935C10.2291 10.8484 10.1726 10.7054 10.1952 10.5661L10.4135 9.30887L9.49887 8.42051C9.39723 8.32263 9.35958 8.17205 9.40475 8.03658C9.44993 7.90107 9.56659 7.79943 9.70964 7.78059L10.9669 7.59615L11.5315 6.45559C11.6595 6.19588 12.081 6.19588 12.2091 6.45559L12.7699 7.59615L14.0309 7.78059C14.174 7.79943 14.2907 7.90107 14.3358 8.03658C14.381 8.17205 14.3433 8.32263 14.2417 8.42051Z" fill="currentColor"/>
<path d="M19.071 7.61417C18.8885 7.4143 18.7016 7.20568 18.6581 7.04924C18.6147 6.8754 18.6755 6.59295 18.732 6.31916C18.8276 5.87155 18.9363 5.3631 18.6842 4.93288C18.4322 4.49395 17.9368 4.33315 17.4979 4.19411C17.2327 4.10716 16.959 4.02027 16.8373 3.89859C16.72 3.77689 16.6287 3.50313 16.5461 3.24238C16.4027 2.80345 16.2419 2.30371 15.8073 2.05165C15.3727 1.80393 14.8687 1.91258 14.4211 2.00386C14.1473 2.06471 13.8604 2.12554 13.691 2.07772C13.5302 2.03428 13.3259 1.84742 13.1217 1.66489C12.7784 1.352 12.3829 1 11.8701 1C11.353 1 10.9619 1.352 10.6185 1.66489C10.4143 1.84742 10.2057 2.03428 10.0493 2.07772C9.87979 2.12554 9.59295 2.06471 9.31916 2.00386C8.87157 1.91258 8.3631 1.80393 7.93288 2.05165C7.49832 2.30371 7.33751 2.80345 7.19411 3.24238C7.11155 3.50313 7.0203 3.77689 6.89859 3.89859C6.78127 4.02027 6.50749 4.10716 6.2424 4.19411C5.80351 4.33315 5.30807 4.49395 5.05601 4.93288C4.80396 5.3631 4.91261 5.87155 5.00822 6.3148C5.06471 6.59295 5.12556 6.8754 5.07774 7.04924C5.03865 7.20568 4.84742 7.4143 4.66491 7.61417C4.352 7.96184 4 8.35294 4 8.87011C4 9.38289 4.352 9.77402 4.66491 10.1217C4.84742 10.3216 5.03865 10.5302 5.07774 10.6866C5.12556 10.8605 5.06471 11.1429 5.00822 11.421C4.91261 11.8687 4.80396 12.3728 5.05601 12.803C5.30807 13.2419 5.80351 13.4027 6.2424 13.5418C6.50749 13.6287 6.78128 13.7156 6.89859 13.8373C7.0203 13.959 7.11155 14.2327 7.19411 14.4978C7.33751 14.9324 7.49832 15.4321 7.93288 15.6842C8.3631 15.9319 8.87157 15.8276 9.31916 15.732C9.59295 15.6712 9.87543 15.6103 10.0493 15.6581C10.2057 15.7016 10.4143 15.8884 10.6185 16.071C10.9619 16.3839 11.353 16.7359 11.8701 16.7359C12.3829 16.7359 12.7784 16.3839 13.1217 16.071C13.3259 15.8884 13.5302 15.7016 13.691 15.6581C13.8604 15.6147 14.143 15.6712 14.4211 15.732C14.8687 15.8276 15.3727 15.9319 15.8073 15.6842C16.2419 15.4321 16.4027 14.9324 16.5461 14.4978C16.6287 14.2327 16.72 13.959 16.8373 13.8373C16.959 13.7156 17.2327 13.6287 17.4979 13.5418C17.9368 13.4027 18.4322 13.2419 18.6842 12.803C18.9363 12.3728 18.8276 11.8643 18.732 11.421C18.6755 11.1429 18.6147 10.8605 18.6581 10.6866C18.7016 10.5302 18.8885 10.3216 19.071 10.1217C19.3839 9.77402 19.7402 9.38289 19.7402 8.87011C19.7402 8.35294 19.3839 7.96184 19.071 7.61417ZM11.8698 14.1095C8.97978 14.1095 6.62824 11.7584 6.62824 8.86831C6.62824 5.97826 8.97978 3.62672 11.8698 3.62672C14.7599 3.62672 17.1115 5.97826 17.1115 8.86831C17.1115 11.7584 14.7599 14.1095 11.8698 14.1095Z" fill="currentColor"/>
</svg>
