<svg width="24" height="24" viewBox="0 0 24 24" fill="none" xmlns="http://www.w3.org/2000/svg">
<path d="M14.25 3V8.24999H19.5" stroke="#343330" stroke-width="1.5" stroke-linecap="round" stroke-linejoin="round"/>
<path d="M16.5 21H18.75C18.9489 21 19.1397 20.921 19.2803 20.7803C19.421 20.6397 19.5 20.4489 19.5 20.25V8.24999L14.25 3H5.25C5.05109 3 4.86032 3.07902 4.71967 3.21967C4.57902 3.36032 4.5 3.55109 4.5 3.75V12" stroke="#2C2C2C" stroke-width="1.5" stroke-linecap="round" stroke-linejoin="round"/>
<path d="M5.07621 17.0137C4.86468 15.8719 5.06764 14.6922 5.64855 13.6868C6.22946 12.6813 7.15017 11.9163 8.24496 11.5293V15.1856L5.07621 17.0137Z" stroke="#343330" stroke-width="1.5" stroke-linecap="round" stroke-linejoin="round"/>
<path d="M10.2003 16.1463V11.25C11.0544 11.2501 11.8935 11.4747 12.6335 11.9011C13.3736 12.3275 13.9886 12.9409 14.417 13.6798C14.8454 14.4187 15.0721 15.2572 15.0745 16.1114C15.0769 16.9655 14.8549 17.8052 14.4306 18.5465C14.0063 19.2878 13.3948 19.9046 12.6571 20.3352C11.9195 20.7658 11.0817 20.995 10.2276 20.9999C9.37345 21.0048 8.53305 20.7853 7.7905 20.3632C7.04796 19.9411 6.42933 19.3314 5.99658 18.595L10.2003 16.1463Z" stroke="#343330" stroke-width="1.5" stroke-linecap="round" stroke-linejoin="round"/>
</svg>
