<svg class="svg-icon" style="width: 1.7em; height: 1.7em;vertical-align: middle;fill: currentColor;overflow: hidden;" viewBox="0 0 1024 1024" version="1.1" xmlns="http://www.w3.org/2000/svg"><path d="M716.8 38.4H221.866667C98.133333 38.4 0 140.8 0 260.266667v499.2C0 883.2 98.133333 981.333333 221.866667 981.333333h110.933333c29.866667 4.266667 51.2-17.066667 51.2-42.666666s-21.333333-46.933333-46.933333-46.933334H221.866667c-68.266667 0-128-55.466667-128-128V260.266667c0-68.266667 55.466667-128 128-128h490.666666c68.266667 0 128 55.466667 128 128v21.333333c0 25.6 21.333333 46.933333 46.933334 46.933333 25.6 0 46.933333-21.333333 46.933333-46.933333v-21.333333C938.666667 140.8 840.533333 38.4 716.8 38.4z" fill="#FFFFFF" /><path d="M580.266667 221.866667H183.466667c-21.333333 0-38.4 17.066667-38.4 38.4s17.066667 38.4 38.4 38.4h396.8c21.333333 0 38.4-17.066667 38.4-38.4s-17.066667-38.4-38.4-38.4zM413.866667 362.666667H183.466667c-21.333333 0-38.4 21.333333-38.4 42.666666s17.066667 38.4 38.4 38.4h226.133333c21.333333 0 38.4-17.066667 38.4-38.4s-12.8-42.666667-34.133333-42.666666zM413.866667 516.266667H183.466667c-21.333333 0-38.4 17.066667-38.4 38.4s17.066667 42.666667 38.4 42.666666h226.133333c21.333333 0 38.4-17.066667 38.4-38.4s-12.8-42.666667-34.133333-42.666666z" fill="#FFFFFF" /><path d="M678.4 857.6h-89.6c-17.066667 0-29.866667-12.8-29.866667-29.866667v-89.6c0-8.533333 4.266667-17.066667 8.533334-21.333333l247.466666-247.466667c4.266667-4.266667 12.8-8.533333 21.333334-8.533333s17.066667 4.266667 21.333333 8.533333l89.6 89.6c12.8 12.8 12.8 34.133333 0 46.933334L699.733333 853.333333c-8.533333 0-17.066667 4.266667-21.333333 4.266667z m-59.733333-64h46.933333l217.6-217.6-46.933333-46.933333-217.6 217.6v46.933333z" fill="#FFFFFF" /><path d="M994.133333 968.533333h-405.333333c-17.066667 0-29.866667-12.8-29.866667-29.866666 0-17.066667 12.8-29.866667 29.866667-29.866667h405.333333c17.066667 0 29.866667 12.8 29.866667 29.866667 0 17.066667-12.8 29.866667-29.866667 29.866666z" fill="#FFFFFF" /></svg>