<svg viewBox="0 0 96 96" fill="currentColor" xmlns="http://www.w3.org/2000/svg">
<g clip-path="url(#clip0_627_22)">
<path d="M12 20V76C12 80.4 15.56 84 20 84H76C80.4 84 84 80.4 84 76V20C84 15.6 80.4 12 76 12H20C15.56 12 12 15.6 12 20ZM60 36C60 42.64 54.64 48 48 48C41.36 48 36 42.64 36 36C36 29.36 41.36 24 48 24C54.64 24 60 29.36 60 36ZM24 68C24 60 40 55.6 48 55.6C56 55.6 72 60 72 68V72H24V68Z" fill="currentColor"/>
</g>
<defs>
<clipPath id="clip0_627_22">
<rect width="96" height="96" fill="white"/>
</clipPath>
</defs>
</svg>
