<svg viewBox="0 0 24 24" fill="currentColor" xmlns="http://www.w3.org/2000/svg">
<g clip-path="url(#clip0_18346_206)">
<path fill-rule="evenodd" clip-rule="evenodd" d="M10.6687 0.906989L13.7025 2.65852L3.86672 8.33719V12.5451C3.86672 12.7133 3.95006 12.8576 4.0957 12.9417L6.37561 14.258C6.44841 14.3001 6.53175 14.3001 6.60459 14.258C6.67739 14.216 6.71906 14.1438 6.71906 14.0597V9.98401L16.5548 4.30533L19.5886 6.05686C19.8798 6.22501 20.0466 6.51376 20.0466 6.85004V12.1136C19.2229 11.8358 18.3514 11.6859 17.481 11.6328V11.28C17.481 10.8955 17.2615 10.5507 16.9131 10.3881C16.5649 10.2255 16.1595 10.2784 15.8648 10.5251L12.3727 13.4479C12.083 13.6903 11.9247 14.0438 11.9368 14.4214C11.9489 14.8005 12.1282 15.1407 12.434 15.3651L15.9143 17.9185C16.2149 18.139 16.609 18.1714 16.9415 18.003C17.2744 17.8343 17.481 17.498 17.481 17.1249V16.7353C18.2054 16.8217 18.9224 17.0444 19.5112 17.4706C19.6254 17.5533 19.7337 17.6434 19.8345 17.7402C19.7671 17.8192 19.6846 17.8876 19.5887 17.9431L10.6687 23.0929C10.3775 23.2611 10.044 23.2611 9.75281 23.0929L0.832969 17.9431C0.541687 17.7749 0.375 17.4862 0.375 17.1498V6.85008C0.375 6.51376 0.541687 6.22501 0.832969 6.05691L9.75286 0.906989C10.0441 0.738849 10.3775 0.738849 10.6687 0.906989ZM16.731 15.9418C21.6289 15.9418 23.017 20.6199 18.9938 22.7226C18.9718 22.7341 18.9623 22.7604 18.9725 22.7831C18.9819 22.8043 19.0043 22.8155 19.0268 22.8098C25.711 21.1658 25.2437 12.3603 16.731 12.3603V11.28C16.731 11.1868 16.6802 11.107 16.5958 11.0676C16.5113 11.0282 16.4176 11.0404 16.3462 11.1002L12.854 14.0231C12.7398 14.1187 12.6816 14.2487 12.6863 14.3975C12.6911 14.5463 12.7575 14.6724 12.8776 14.7605L16.358 17.3139C16.431 17.3675 16.5217 17.3749 16.6025 17.334C16.6833 17.2931 16.731 17.2155 16.731 17.1249V15.9418Z" fill="currentColor"/>
</g>
<defs>
<clipPath id="clip0_18346_206">
<rect width="24" height="24" fill="white"/>
</clipPath>
</defs>
</svg>
