<svg class="svg-icon" style="width: 2em;height: 2em;vertical-align: middle;fill: currentColor;overflow: hidden;" viewBox="0 0 1024 1024" version="1.1" xmlns="http://www.w3.org/2000/svg"><path d="M553.6 550.4h-76.8c-28.8 0-57.6 9.6-83.2 28.8-28.8 22.4-48 48-51.2 86.4-3.2 41.6 0 89.6-3.2 134.4 3.2 0 12.8 3.2 16 3.2l28.8 6.4c41.6 9.6 80 19.2 124.8 19.2 28.8 0 64 0 96-3.2 25.6-3.2 51.2-12.8 76.8-22.4 3.2 0 3.2-3.2 3.2-9.6 3.2-38.4 3.2-73.6 3.2-105.6s-9.6-57.6-25.6-80c-28.8-35.2-60.8-54.4-99.2-54.4l-9.6-3.2z m-163.2-121.6H297.6c-19.2 0-35.2 3.2-48 9.6-51.2 19.2-89.6 70.4-89.6 124.8V672c0 3.2 0 3.2 3.2 9.6 35.2 9.6 70.4 19.2 105.6 22.4 12.8 0 32 3.2 44.8 3.2v-28.8c0-12.8 0-22.4 3.2-35.2V640c12.8-54.4 41.6-83.2 83.2-105.6l6.4-3.2c9.6-3.2 12.8-3.2 22.4-9.6-25.6-25.6-38.4-54.4-38.4-92.8z m336 0h-83.2c0 38.4-12.8 70.4-38.4 92.8 3.2 0 9.6 3.2 9.6 3.2 22.4 9.6 44.8 22.4 60.8 41.6 25.6 32 38.4 60.8 38.4 105.6v32c16-3.2 32-3.2 48-6.4l12.8-3.2c28.8-6.4 57.6-16 83.2-28.8 3.2 0 3.2-3.2 3.2-6.4v-32-57.6c0-19.2-3.2-41.6-12.8-60.8-22.4-51.2-64-80-121.6-80z m-211.2-115.2c-57.6 0-105.6 48-105.6 105.6 3.2 57.6 44.8 108.8 99.2 112h12.8c51.2-3.2 96-51.2 96-105.6v-6.4c-3.2-57.6-51.2-105.6-102.4-105.6zM688 192c-57.6 0-105.6 48-105.6 105.6 35.2 19.2 57.6 54.4 60.8 102.4 12.8 3.2 25.6 9.6 44.8 9.6 54.4 0 102.4-48 102.4-105.6v-6.4c0-60.8-48-105.6-102.4-105.6z m-352 3.2c-57.6 0-105.6 48-105.6 105.6 0 57.6 48 105.6 105.6 105.6 19.2 0 38.4-3.2 54.4-12.8 3.2-38.4 22.4-70.4 48-89.6 0-60.8-48-108.8-102.4-108.8z"  /></svg>