<svg viewBox="0 0 24 24" fill="currentColor" xmlns="http://www.w3.org/2000/svg">
<path d="M14.0023 5.50541L14.4734 5.03432V7.30447C14.4734 7.62791 14.7359 7.89041 15.0593 7.89041C15.3827 7.89041 15.6452 7.62791 15.6452 7.30447V5.03432L16.1163 5.50541C16.2307 5.61979 16.3807 5.67697 16.5307 5.67697C16.6807 5.67697 16.8307 5.61979 16.9451 5.50541C17.1738 5.27666 17.1738 4.90541 16.9451 4.67666L15.4737 3.20525C15.364 3.09557 15.2149 3.03369 15.0593 3.03369C14.9037 3.03369 14.7546 3.09557 14.6449 3.20525L13.1735 4.67666C12.9448 4.90541 12.9448 5.27666 13.1735 5.50541C13.4023 5.73416 13.7735 5.73416 14.0023 5.50541Z" fill="currentColor"/>
<path d="M20.7931 15.1177C20.8498 14.933 20.8807 14.7376 20.8807 14.5346V2.88708C20.8807 1.7888 19.9873 0.894897 18.8886 0.894897H11.2301C10.1318 0.894897 9.23793 1.7888 9.23793 2.88708V5.60771H4.14355C3.04527 5.60771 2.15137 6.50162 2.15137 7.5999V19.2474C2.15137 20.3457 3.04527 21.2396 4.14355 21.2396H11.802C12.1793 21.2396 12.5328 21.1341 12.8342 20.9508C13.7248 22.2507 15.2196 23.1052 16.9109 23.1052C19.6339 23.1052 21.8492 20.8899 21.8492 18.1665C21.8492 17.0171 21.4545 15.9577 20.7931 15.1177ZM17.9309 16.7307C18.2253 17.0729 17.6661 17.5266 17.3815 17.1872C17.0543 16.7115 15.9171 16.9993 16.4778 17.6007C16.8284 17.8463 17.6032 17.9176 17.9571 18.2672C18.6237 18.8883 18.1053 20.0133 17.2329 20.0743C17.2325 20.3265 17.3004 20.8111 16.917 20.8046C16.5195 20.8163 16.5889 20.3377 16.5884 20.0761C15.0631 19.8038 15.552 18.5391 16.2279 19.0904C16.5528 19.6196 18.0443 19.3857 17.3464 18.6844C16.909 18.4252 15.9495 18.3694 15.6893 17.784C15.3748 17.1136 15.8656 16.3215 16.5884 16.2502C16.5884 15.9886 16.5218 15.5171 16.917 15.5283C17.3103 15.5213 17.2287 16.0313 17.2329 16.2854C17.5062 16.358 17.7486 16.516 17.9309 16.7307ZM11.06 16.8207C11.06 17.1441 10.7975 17.4066 10.474 17.4066H5.47152C5.14762 17.4066 4.88559 17.1441 4.88559 16.8207C4.88559 16.4972 5.14762 16.2347 5.47152 16.2347H10.474C10.6836 16.2347 10.8673 16.3444 10.9709 16.5099C11.0271 16.5999 11.06 16.7063 11.06 16.8207ZM9.02981 10.1316C9.09074 10.0707 9.16199 10.0257 9.23793 9.99755C9.44652 9.91927 9.69074 9.9638 9.85855 10.1316C10.0873 10.3604 10.0873 10.7316 9.85855 10.9604L9.23793 11.581L8.38715 12.4318C8.27277 12.5461 8.12277 12.6033 7.97277 12.6033C7.82277 12.6033 7.67277 12.5461 7.5584 12.4318L6.08699 10.9604C5.85824 10.7316 5.85824 10.3604 6.08699 10.1316C6.31574 9.90287 6.68699 9.90287 6.91574 10.1316L7.38684 10.6027V8.33255C7.38684 8.00912 7.64934 7.74662 7.97277 7.74662C8.29621 7.74662 8.55871 8.00912 8.55871 8.33255V10.6027L9.02981 10.1316ZM9.23793 14.0063H10.474C10.7975 14.0063 11.06 14.2688 11.06 14.5922C11.06 14.844 10.9011 15.0586 10.6784 15.1416C10.6146 15.1651 10.5457 15.1782 10.474 15.1782H5.47152C5.14762 15.1782 4.88559 14.9157 4.88559 14.5922C4.88559 14.2688 5.14762 14.0063 5.47152 14.0063H9.23793ZM10.4098 2.88708C10.4098 2.43474 10.7778 2.06677 11.2301 2.06677H18.8886C19.3409 2.06677 19.7089 2.43474 19.7089 2.88708V14.0996C18.9129 13.5502 17.9487 13.2282 16.9109 13.2282C15.7301 13.2282 14.645 13.6449 13.7942 14.3386V12.6938H17.5611C17.8845 12.6938 18.147 12.4313 18.147 12.1079C18.147 11.7844 17.8845 11.5219 17.5611 11.5219H13.7942V10.4654H17.5611C17.8845 10.4654 18.147 10.2029 18.147 9.87943C18.147 9.55599 17.8845 9.29349 17.5611 9.29349H13.7942V7.5999C13.7942 6.50162 12.9003 5.60771 11.802 5.60771H10.4098V2.88708Z" fill="currentColor"/>
</svg>
