<svg width="21" height="20" viewBox="0 0 21 20" fill="none" xmlns="http://www.w3.org/2000/svg">
<path d="M3.3125 11.875V16.25H4.5625C5.14266 16.25 5.69906 16.0195 6.1093 15.6093C6.51953 15.1991 6.75 14.6427 6.75 14.0625C6.75 13.4823 6.51953 12.9259 6.1093 12.5157C5.69906 12.1055 5.14266 11.875 4.5625 11.875H3.3125Z" stroke="#CE182D" stroke-width="1.25" stroke-linecap="round" stroke-linejoin="round"/>
<path d="M17.375 15.693C17.2155 15.866 17.0224 16.0047 16.8075 16.1005C16.5925 16.1963 16.3603 16.2472 16.125 16.25C15.0891 16.25 14.25 15.2703 14.25 14.0625C14.25 12.8547 15.0891 11.875 16.125 11.875C16.3603 11.8778 16.5925 11.9287 16.8075 12.0245C17.0224 12.1203 17.2155 12.259 17.375 12.432" stroke="#CE182D" stroke-width="1.25" stroke-linecap="round" stroke-linejoin="round"/>
<path d="M4.25 8.75V3.125C4.25 2.95924 4.31585 2.80027 4.43306 2.68306C4.55027 2.56585 4.70924 2.5 4.875 2.5H12.375L16.75 6.875V8.75" stroke="#CE182D" stroke-width="1.25" stroke-linecap="round" stroke-linejoin="round"/>
<path d="M12.375 2.5V6.875H16.75" stroke="#CE182D" stroke-width="1.25" stroke-linecap="round" stroke-linejoin="round"/>
<path d="M10.5 16.25C11.5355 16.25 12.375 15.2706 12.375 14.0625C12.375 12.8544 11.5355 11.875 10.5 11.875C9.46447 11.875 8.625 12.8544 8.625 14.0625C8.625 15.2706 9.46447 16.25 10.5 16.25Z" stroke="#CE182D" stroke-width="1.25" stroke-linecap="round" stroke-linejoin="round"/>
</svg>
