<svg width="24" height="25" viewBox="0 0 24 25" fill="none" xmlns="http://www.w3.org/2000/svg">
<path d="M20.3334 20H3.69188C3.50853 19.9995 3.33284 19.9265 3.20319 19.7968C3.07355 19.6672 3.00049 19.4915 3 19.3081V8H20.25C20.4489 8 20.6397 8.07902 20.7803 8.21967C20.921 8.36032 21 8.55109 21 8.75V19.3334C21 19.5102 20.9298 19.6798 20.8048 19.8048C20.6798 19.9298 20.5102 20 20.3334 20Z" stroke="#CE182D" stroke-width="1.5" stroke-linecap="round" stroke-linejoin="round"/>
<path d="M3 8V5.75C3 5.55109 3.07902 5.36032 3.21967 5.21967C3.36032 5.07902 3.55109 5 3.75 5H8.68969C8.88834 5.00009 9.07883 5.07899 9.21937 5.21938L12 8" stroke="#CE182D" stroke-width="1.5" stroke-linecap="round" stroke-linejoin="round"/>
</svg>
