<svg viewBox="0 0 24 24" fill="currentColor" xmlns="http://www.w3.org/2000/svg">
<path fill-rule="evenodd" clip-rule="evenodd" d="M12.4999 22H11.4999V11.5H12.4999V22ZM10.4999 21.815V11.21L2.71488 7.55C2.55988 7.475 2.37988 7.49 2.23488 7.58C2.08988 7.67 2.00488 7.83 2.00488 8V17.5C2.00488 17.695 2.11488 17.87 2.28988 17.95L10.5049 21.815H10.4999ZM13.4999 11.21V21.815L21.7149 17.95C21.8899 17.87 21.9999 17.69 21.9999 17.5V8C21.9999 7.83 21.9099 7.67 21.7699 7.58C21.6249 7.49 21.4449 7.475 21.2899 7.55L13.5049 11.215L13.4999 11.21ZM15.7149 18.155L20.2149 16.04C20.4649 15.92 20.5699 15.625 20.4549 15.375C20.3399 15.125 20.0399 15.02 19.7899 15.135L15.2899 17.25C15.0399 17.37 14.9349 17.665 15.0499 17.915C15.1649 18.165 15.4649 18.27 15.7149 18.155ZM15.4999 15.47C15.4999 15.64 15.5899 15.8 15.7299 15.89C15.8749 15.98 16.0549 15.995 16.2099 15.92L19.7099 14.275C19.8849 14.19 19.9949 14.015 19.9949 13.825V11C19.9949 10.83 19.9049 10.67 19.7649 10.58C19.6199 10.49 19.4399 10.475 19.2849 10.55L15.7849 12.195C15.6099 12.275 15.4999 12.455 15.4999 12.645V15.47ZM16.4999 14.68V12.96L18.9999 11.785V13.505L16.4999 14.68ZM6.56488 8.36C6.51988 8.08 6.49988 7.79 6.49988 7.5C6.49988 4.465 8.96488 2 11.9999 2C15.0349 2 17.4999 4.465 17.4999 7.5C17.4999 7.795 17.4749 8.08 17.4349 8.36L12.4999 10.5H11.4999L6.56488 8.36ZM12.4999 4.5V4C12.4999 3.725 12.2749 3.5 11.9999 3.5C11.7249 3.5 11.4999 3.725 11.4999 4V4.525C11.2599 4.575 11.0399 4.69 10.8649 4.865C10.6299 5.1 10.4999 5.415 10.4999 5.75C10.4999 6.085 10.6299 6.4 10.8649 6.635C11.0999 6.87 11.4149 7 11.7499 7H12.2499C12.3149 7 12.3799 7.025 12.4249 7.075C12.4699 7.12 12.4999 7.185 12.4999 7.25C12.4999 7.315 12.4749 7.38 12.4249 7.425C12.3799 7.47 12.3149 7.5 12.2499 7.5H10.9999C10.7249 7.5 10.4999 7.725 10.4999 8C10.4999 8.275 10.7249 8.5 10.9999 8.5H11.4999V9C11.4999 9.275 11.7249 9.5 11.9999 9.5C12.2749 9.5 12.4999 9.275 12.4999 9V8.475C12.7399 8.425 12.9599 8.31 13.1349 8.135C13.3699 7.9 13.4999 7.585 13.4999 7.25C13.4999 6.915 13.3699 6.6 13.1349 6.365C12.8999 6.13 12.5849 6 12.2499 6H11.7499C11.6849 6 11.6199 5.975 11.5749 5.925C11.5299 5.88 11.4999 5.815 11.4999 5.75C11.4999 5.685 11.5249 5.62 11.5749 5.575C11.6199 5.53 11.6849 5.5 11.7499 5.5H12.9999C13.2749 5.5 13.4999 5.275 13.4999 5C13.4999 4.725 13.2749 4.5 12.9999 4.5H12.4999ZM18.4999 7H19.9999C20.2749 7 20.4999 6.775 20.4999 6.5C20.4999 6.225 20.2749 6 19.9999 6H18.4999C18.2249 6 17.9999 6.225 17.9999 6.5C17.9999 6.775 18.2249 7 18.4999 7ZM5.49988 6H3.99988C3.72488 6 3.49988 6.225 3.49988 6.5C3.49988 6.775 3.72488 7 3.99988 7H5.49988C5.77488 7 5.99988 6.775 5.99988 6.5C5.99988 6.225 5.77488 6 5.49988 6ZM6.22488 4.055L5.22488 3.555C4.97988 3.43 4.67488 3.53 4.55488 3.78C4.42988 4.025 4.52988 4.33 4.77988 4.45L5.77988 4.95C6.02488 5.075 6.32988 4.975 6.44988 4.725C6.57488 4.48 6.47488 4.175 6.22488 4.055ZM18.2249 4.95L19.2249 4.45C19.4699 4.325 19.5699 4.025 19.4499 3.78C19.3249 3.535 19.0249 3.435 18.7799 3.555L17.7799 4.055C17.5349 4.18 17.4349 4.48 17.5549 4.725C17.6799 4.97 17.9799 5.07 18.2249 4.95Z" fill="currentColor"/>
</svg>
