<svg viewBox="0 0 24 24" fill="currentColor" xmlns="http://www.w3.org/2000/svg">
<g clip-path="url(#clip0_3593_177)">
<path d="M12 0.000488281C5.37328 0.000488281 0 5.37271 0 12C0 18.6272 5.37275 23.9994 12 23.9994C18.6278 23.9994 24 18.6272 24 12C24 5.37271 18.6278 0.000488281 12 0.000488281ZM12 3.58847C14.1927 3.58847 15.9696 5.36586 15.9696 7.55755C15.9696 9.74976 14.1927 11.5266 12 11.5266C9.80831 11.5266 8.03145 9.74976 8.03145 7.55755C8.03145 5.36586 9.80831 3.58847 12 3.58847ZM11.9974 20.8621C9.81042 20.8621 7.80743 20.0657 6.2625 18.7474C5.88615 18.4264 5.66898 17.9557 5.66898 17.4618C5.66898 15.239 7.46798 13.46 9.69129 13.46H14.3098C16.5336 13.46 18.3257 15.239 18.3257 17.4618C18.3257 17.9562 18.1096 18.4259 17.7328 18.7469C16.1883 20.0657 14.1848 20.8621 11.9974 20.8621Z" fill="currentColor"/>
</g>
<defs>
<clipPath id="clip0_3593_177">
<rect width="24" height="24" fill="white"/>
</clipPath>
</defs>
</svg>
