<svg width="24" height="25" viewBox="0 0 24 25" fill="none" xmlns="http://www.w3.org/2000/svg">
<path d="M18.75 11V19.3334C18.75 19.421 18.7328 19.5076 18.6993 19.5885C18.6658 19.6694 18.6167 19.7429 18.5548 19.8048C18.4929 19.8667 18.4194 19.9158 18.3385 19.9493C18.2576 19.9828 18.171 20 18.0834 20H3.75C3.55109 20 3.36032 19.921 3.21967 19.7803C3.07902 19.6397 3 19.4489 3 19.25V8.75C3 8.55109 3.07902 8.36032 3.21967 8.21967C3.36032 8.07902 3.55109 8 3.75 8H7.99969C8.16197 8 8.31987 8.05263 8.44969 8.15L11.25 10.25H18C18.1989 10.25 18.3897 10.329 18.5303 10.4697C18.671 10.6103 18.75 10.8011 18.75 11Z" stroke="#2C2C2C" stroke-width="1.5" stroke-linecap="round" stroke-linejoin="round"/>
<path d="M18.75 11V19.3334C18.75 19.421 18.7328 19.5076 18.6993 19.5885C18.6658 19.6694 18.6167 19.7429 18.5548 19.8048C18.4929 19.8667 18.4194 19.9158 18.3385 19.9493C18.2576 19.9828 18.171 20 18.0834 20H3.75C3.55109 20 3.36032 19.921 3.21967 19.7803C3.07902 19.6397 3 19.4489 3 19.25V8.75C3 8.55109 3.07902 8.36032 3.21967 8.21967C3.36032 8.07902 3.55109 8 3.75 8H7.99969C8.16197 8 8.31987 8.05263 8.44969 8.15L11.25 10.25H18C18.1989 10.25 18.3897 10.329 18.5303 10.4697C18.671 10.6103 18.75 10.8011 18.75 11Z" stroke="#2C2C2C" stroke-width="1.5" stroke-linecap="round" stroke-linejoin="round"/>
<path d="M6 8V5.75C6 5.55109 6.07902 5.36032 6.21967 5.21967C6.36032 5.07902 6.55109 5 6.75 5H10.9997C11.162 5 11.3199 5.05263 11.4497 5.15L14.25 7.25H21C21.1989 7.25 21.3897 7.32902 21.5303 7.46967C21.671 7.61032 21.75 7.80109 21.75 8V16.3334C21.75 16.5102 21.6798 16.6798 21.5548 16.8048C21.4298 16.9298 21.2602 17 21.0834 17H18.75" stroke="#2C2C2C" stroke-width="1.5" stroke-linecap="round" stroke-linejoin="round"/>
</svg>
