<svg width="24" height="24" viewBox="0 0 24 24" fill="none" xmlns="http://www.w3.org/2000/svg">
<path d="M15.6002 19.1501H17.4802C19.6602 19.1501 21.2502 16.7301 21.2502 14.6901C21.2367 14.0244 21.0869 13.3687 20.81 12.7632C20.5331 12.1578 20.1349 11.6156 19.6402 11.1701C18.8607 10.4984 17.8464 10.1639 16.8202 10.2401C16.7309 10.2497 16.6404 10.2416 16.5542 10.2161C16.468 10.1906 16.3877 10.1483 16.318 10.0916C16.2482 10.0348 16.1904 9.96483 16.1479 9.88561C16.1054 9.8064 16.079 9.71954 16.0702 9.63006C15.6602 3.11006 5.90024 3.20006 5.75024 9.90006C5.74783 10.0368 5.70597 10.17 5.62968 10.2835C5.5534 10.3971 5.44594 10.4861 5.32024 10.5401C4.39593 10.9978 3.65095 11.7512 3.20348 12.6805C2.75602 13.6099 2.6317 14.662 2.85024 15.6701C2.97527 16.2979 3.2314 16.8924 3.60188 17.4145C3.97237 17.9366 4.44887 18.3747 5.00024 18.7001C5.69139 19.075 6.47635 19.2417 7.26024 19.1801H8.51024" stroke="black" stroke-width="1.5" stroke-linecap="round" stroke-linejoin="round"/>
<path d="M12 19.19V12.26" stroke="black" stroke-width="1.5" stroke-linecap="round" stroke-linejoin="round"/>
<path d="M9.83008 14.2601L12.0001 12.1001L14.1701 14.2601" stroke="black" stroke-width="1.5" stroke-linecap="round" stroke-linejoin="round"/>
</svg>
