<svg viewBox="0 0 24 24" fill="currentColor" xmlns="http://www.w3.org/2000/svg">
<g clip-path="url(#clip0_4927_94)">
<path d="M14.25 0H2.75C1.23 0 0 1.23 0 2.75V18.25C0 19.77 1.23 21 2.75 21H10.9C10.06 19.67 9.5 18.1 9.5 16.3V13.86C9.35 13.95 9.18 14 9 14H4C3.45 14 3 13.55 3 13C3 12.45 3.45 12 4 12H9C9.19 12 9.36 12.05 9.51 12.14C9.55 11.29 9.95 10.51 10.58 10H4C3.45 10 3 9.55 3 9C3 8.45 3.45 8 4 8H13C13.42 8 13.78 8.26 13.93 8.63L16.78 7.66C16.85 7.63 16.92 7.61 17 7.6V2.75C17 1.23 15.77 0 14.25 0ZM8 6H4C3.45 6 3 5.55 3 5C3 4.45 3.45 4 4 4H8C8.55 4 9 4.45 9 5C9 5.55 8.55 6 8 6Z" fill="currentColor"/>
<path d="M23.322 11.339L18.072 9.55301C17.863 9.48201 17.636 9.48201 17.427 9.55301L12.177 11.339C11.772 11.477 11.499 11.858 11.499 12.286V16.304C11.499 21.371 17.118 23.819 17.357 23.921C17.483 23.974 17.617 24 17.75 24C17.883 24 18.017 23.974 18.142 23.92C18.381 23.818 24 21.371 24 16.304V12.286C24 11.857 23.728 11.477 23.322 11.339ZM21.3 15.1L18.3 19.1C18.126 19.332 17.861 19.477 17.571 19.497C17.547 19.499 17.523 19.5 17.5 19.5C17.235 19.5 16.981 19.396 16.793 19.207L14.793 17.207C14.402 16.816 14.402 16.184 14.793 15.793C15.184 15.402 15.816 15.402 16.207 15.793L17.392 16.978L19.7 13.9C20.031 13.459 20.658 13.368 21.099 13.7C21.542 14.031 21.632 14.658 21.3 15.1Z" fill="currentColor"/>
</g>
<defs>
<clipPath id="clip0_4927_94">
<rect width="24" height="24" fill="white"/>
</clipPath>
</defs>
</svg>
