<?xml version="1.0" standalone="no"?>
<!DOCTYPE svg PUBLIC "-//W3C//DTD SVG 20010904//EN"
 "http://www.w3.org/TR/2001/REC-SVG-20010904/DTD/svg10.dtd">
<svg version="1.0" xmlns="http://www.w3.org/2000/svg"
 width="320.000000pt" height="320.000000pt" viewBox="0 0 320.000000 320.000000"
 preserveAspectRatio="xMidYMid meet">

<g transform="translate(0.000000,320.000000) scale(0.100000,-0.100000)"
fill="#000000" stroke="none">
<path d="M1515 3187 c-86 -29 -155 -93 -194 -182 -7 -16 -17 -82 -22 -146 -25
-332 -159 -554 -418 -692 l-83 -45 -36 24 c-69 47 -125 56 -340 52 -185 -3
-200 -5 -246 -27 -63 -31 -116 -84 -147 -147 l-24 -49 0 -875 0 -875 24 -49
c14 -27 41 -66 61 -86 20 -20 59 -47 86 -61 47 -23 56 -24 274 -24 225 0 225
0 276 27 47 25 109 82 131 123 9 16 28 13 249 -38 457 -106 477 -108 969 -114
281 -4 419 -2 465 6 189 34 312 184 316 382 l2 86 44 46 c101 103 160 311 127
442 -11 43 -10 46 19 79 38 43 76 125 92 197 16 72 9 204 -13 246 -17 31 -16
33 12 75 44 66 55 113 56 223 0 88 -3 107 -27 157 -52 112 -163 193 -293 217
-78 14 -404 31 -615 31 -91 0 -171 4 -178 8 -10 7 -10 24 -2 78 15 107 12 314
-6 402 -43 210 -181 409 -337 485 -69 33 -162 43 -222 24z m141 -203 c49 -24
138 -124 173 -196 48 -99 61 -166 61 -319 0 -152 -13 -237 -58 -376 l-30 -93
362 0 c403 -1 636 -12 711 -34 50 -15 91 -49 114 -93 16 -31 14 -137 -4 -180
-31 -73 -81 -91 -259 -92 -115 -1 -143 -4 -158 -18 -22 -20 -23 -41 -1 -65 14
-16 33 -18 147 -18 149 0 186 -12 221 -71 39 -67 15 -205 -48 -269 -52 -53
-79 -60 -248 -60 -128 0 -155 -3 -171 -17 -22 -20 -23 -41 -1 -65 14 -16 33
-18 145 -18 184 0 228 -24 228 -123 0 -54 -32 -157 -62 -199 -41 -58 -88 -72
-248 -76 -114 -3 -149 -7 -162 -19 -22 -20 -23 -41 -1 -65 14 -15 32 -18 125
-18 108 0 110 0 139 -29 23 -24 29 -38 29 -74 0 -51 -28 -123 -57 -149 -51
-46 -73 -48 -455 -48 -482 0 -576 10 -983 106 -294 68 -331 80 -350 107 -13
19 -15 110 -15 743 0 840 -15 746 135 818 51 24 114 58 139 75 246 169 384
418 417 748 14 144 16 151 46 179 30 28 71 31 119 8z m-1013 -995 c12 -6 30
-21 39 -33 16 -19 18 -80 18 -848 0 -620 -3 -834 -12 -853 -22 -48 -51 -55
-238 -55 -177 0 -200 4 -232 44 -16 19 -18 79 -17 851 0 890 -2 862 50 891 31
17 360 20 392 3z"/>
<path d="M395 586 c-102 -44 -122 -172 -40 -245 64 -56 147 -50 204 14 53 61
50 143 -7 198 -48 46 -102 57 -157 33z m89 -102 c31 -30 9 -84 -34 -84 -10 0
-26 7 -34 16 -9 8 -16 24 -16 34 0 10 7 26 16 34 8 9 24 16 34 16 10 0 26 -7
34 -16z"/>
</g>
</svg>
