<svg width="16" height="16" viewBox="0 0 16 16" fill="none" xmlns="http://www.w3.org/2000/svg">
<path d="M2.13117 3.83625C2.06611 3.76465 2.02322 3.67571 2.0077 3.58022C1.99218 3.48473 2.00469 3.38678 2.04373 3.29826C2.08276 3.20974 2.14664 3.13445 2.22761 3.0815C2.30858 3.02856 2.40318 3.00025 2.49992 3H13.4999C13.5968 3.00001 13.6915 3.02815 13.7727 3.08099C13.8539 3.13384 13.9179 3.20912 13.9571 3.29769C13.9963 3.38626 14.0089 3.48431 13.9934 3.57991C13.978 3.67552 13.9351 3.76457 13.8699 3.83625L9.49992 8.5V12.1656C9.49998 12.248 9.4797 12.329 9.44088 12.4017C9.40206 12.4743 9.34592 12.5362 9.27742 12.5819L7.27742 13.915C7.20219 13.9652 7.11476 13.994 7.02443 13.9985C6.9341 14.0029 6.84426 13.9828 6.76448 13.9402C6.6847 13.8976 6.61796 13.8342 6.57137 13.7566C6.52478 13.6791 6.50009 13.5904 6.49992 13.5V8.5L2.13117 3.83625Z" stroke="#343330" stroke-width="1.5" stroke-linecap="round" stroke-linejoin="round"/>
</svg>
