<svg viewBox="0 0 24 24" fill="currentColor" xmlns="http://www.w3.org/2000/svg">
<path d="M20.2161 18.8594C19.7328 17.4208 17.8063 16.5203 16.4328 15.9167C15.8947 15.681 14.405 15.2812 14.226 14.6037C14.1619 14.3596 14.1705 14.1294 14.2231 13.9089C14.1403 13.9247 14.0563 13.9341 13.9694 13.9341H13.0744C12.36 13.9341 11.7794 13.3528 11.7794 12.6388C11.7794 11.9253 12.3602 11.3452 13.0744 11.3452H13.9694C14.2651 11.3452 14.5454 11.4453 14.7715 11.6238C15.1029 11.5797 15.4226 11.5089 15.7207 11.416C16.1121 10.5959 16.4174 9.61528 16.4858 8.7712C16.7779 5.15968 14.5639 3.04672 11.3894 3.412C9.08132 3.67768 7.70252 5.39872 7.55348 7.6144C7.40276 9.8728 8.24012 11.5408 9.12956 12.7643C9.51908 13.2993 9.92828 13.6432 9.8654 14.2878C9.79244 15.0501 8.9774 15.2625 8.39444 15.4967C7.70372 15.7742 6.95972 16.1951 6.60836 16.3898C5.39804 17.0582 4.06964 17.8631 3.77108 18.9642C3.10988 21.4046 5.34284 22.1438 7.18628 22.485C8.76836 22.7769 10.5523 22.7999 12.0196 22.7999C14.6738 22.7999 19.4464 22.6936 20.2161 20.6985C20.435 20.1323 20.3412 19.2302 20.2161 18.8594Z" fill="currentColor"/>
<path d="M14.5358 12.2743C14.4144 12.0892 14.2068 11.9664 13.9699 11.9664H13.0749C12.7015 11.9664 12.4003 12.268 12.4003 12.6396C12.4003 13.0125 12.7015 13.3147 13.0749 13.3147H13.9699C14.2312 13.3147 14.453 13.1656 14.5648 12.9501C15.8126 12.8519 16.8979 12.4708 17.6596 11.908C17.8346 12.0208 18.0415 12.0868 18.2647 12.0868H18.3208C18.9429 12.0868 19.446 11.5833 19.446 10.9605V8.71219C19.446 8.26435 19.1834 7.87795 18.8047 7.69843C18.6395 4.08811 15.6508 1.19995 11.9999 1.19995C8.34907 1.19995 5.35987 4.08811 5.19547 7.69843C4.81603 7.87819 4.55371 8.26435 4.55371 8.71219V10.9605C4.55371 11.5833 5.05723 12.0868 5.67787 12.0868H5.73475C6.35587 12.0868 6.85963 11.5833 6.85963 10.9605V8.71219C6.85963 8.27083 6.60451 7.89019 6.23371 7.70611C6.39427 4.66411 8.91859 2.23939 11.9999 2.23939C15.0801 2.23939 17.6056 4.66411 17.7655 7.70611C17.3952 7.89043 17.1403 8.27083 17.1403 8.71219V10.9605C17.1403 11.1098 17.1693 11.2487 17.2204 11.3786C16.5647 11.8478 15.6103 12.1821 14.5358 12.2743Z" fill="currentColor"/>
</svg>
