<svg width="20" height="20" viewBox="0 0 20 20" fill="none" xmlns="http://www.w3.org/2000/svg">
<path d="M16.25 3.125H3.75C3.40482 3.125 3.125 3.40482 3.125 3.75V16.25C3.125 16.5952 3.40482 16.875 3.75 16.875H16.25C16.5952 16.875 16.875 16.5952 16.875 16.25V3.75C16.875 3.40482 16.5952 3.125 16.25 3.125Z" stroke="#ED1B34" stroke-width="1.25" stroke-linecap="round" stroke-linejoin="round"/>
<path d="M13.75 1.875V4.375" stroke="#ED1B34" stroke-width="1.25" stroke-linecap="round" stroke-linejoin="round"/>
<path d="M6.25 1.875V4.375" stroke="#ED1B34" stroke-width="1.25" stroke-linecap="round" stroke-linejoin="round"/>
<path d="M3.125 6.875H16.875" stroke="#ED1B34" stroke-width="1.25" stroke-linecap="round" stroke-linejoin="round"/>
<path d="M10 13.125C10.6904 13.125 11.25 12.5654 11.25 11.875C11.25 11.1846 10.6904 10.625 10 10.625C9.30964 10.625 8.75 11.1846 8.75 11.875C8.75 12.5654 9.30964 13.125 10 13.125Z" fill="#ED1B34"/>
</svg>
