<svg viewBox="0 0 24 24" fill="currentColor" xmlns="http://www.w3.org/2000/svg">
<g clip-path="url(#clip0_4927_92)">
<path d="M14.8067 7.30996C14.7442 7.33296 14.6817 7.35846 14.6192 7.37896C14.7022 7.67396 15.2697 9.54996 16.6857 10.964C16.8822 11.1595 16.8822 11.4755 16.6867 11.671C16.5892 11.769 16.4607 11.818 16.3327 11.818C16.2047 11.818 16.0762 11.769 15.9797 11.672C15.1322 10.8265 14.5597 9.85346 14.1937 9.06796C14.0017 9.56096 13.7322 10.102 13.3577 10.5785C13.1872 10.796 12.8727 10.8345 12.6567 10.663C12.4392 10.4925 12.4012 10.178 12.5717 9.96146C13.1997 9.16196 13.4802 8.10546 13.5822 7.63346C13.0942 7.71696 12.6122 7.75396 12.1482 7.75396C10.9152 7.75396 9.82122 7.51196 9.12272 7.31046C6.43772 9.48746 3.18272 14.732 3.20322 19.115C3.21422 21.4685 4.49172 24.001 7.27072 24.001H16.6612H16.6757C18.8947 23.934 20.8202 21.6475 20.7967 19.108C20.7572 14.719 17.4817 9.48146 14.8067 7.30996ZM12.0002 16.4155C13.2592 16.4155 14.2832 17.287 14.2832 18.359C14.2832 19.2845 13.5187 20.057 12.5002 20.2515V20.841C12.5002 21.1175 12.2767 21.341 12.0002 21.341C11.7237 21.341 11.5002 21.1175 11.5002 20.841V20.2515C10.4812 20.0565 9.71622 19.283 9.71622 18.359C9.71622 18.0825 9.94022 17.859 10.2162 17.859C10.4922 17.859 10.7162 18.0825 10.7162 18.359C10.7162 18.87 11.3042 19.302 12.0002 19.302C12.6957 19.302 13.2832 18.871 13.2832 18.359C13.2832 17.848 12.6962 17.4155 12.0002 17.4155C10.7407 17.4155 9.71622 16.544 9.71622 15.4715C9.71622 14.5465 10.4812 13.7735 11.5002 13.5795V13.0625C11.5002 12.786 11.7242 12.5625 12.0002 12.5625C12.2762 12.5625 12.5002 12.786 12.5002 13.0625V13.5795C13.5187 13.7745 14.2832 14.5475 14.2832 15.4715C14.2832 15.7485 14.0597 15.9715 13.7832 15.9715C13.5067 15.9715 13.2832 15.7485 13.2832 15.4715C13.2832 14.9825 12.7422 14.524 11.9972 14.524C11.2522 14.524 10.7157 14.983 10.7157 15.4715C10.7162 15.9835 11.3042 16.4155 12.0002 16.4155ZM8.91122 6.19296C7.66822 4.88696 6.47472 3.01596 6.49422 1.98446C6.51622 1.51996 6.59372 1.03446 7.00472 0.845957C7.44022 0.646457 7.84072 0.958457 8.19272 1.23246C8.42372 1.41246 8.77322 1.68046 8.94922 1.64596C9.05172 1.62246 9.18672 1.46296 9.58572 0.884457C9.98522 0.305457 10.4712 -0.0360426 10.9707 0.00145742C11.5777 0.0459574 11.8917 0.622457 12.1957 1.18046C12.4337 1.58996 12.6437 1.95996 12.9417 2.25346C13.0212 2.18596 13.1497 2.02996 13.2397 1.91996C13.7307 1.32196 14.6452 0.207457 16.5707 0.977957C16.7612 1.05346 16.8852 1.23796 16.8852 1.44246C16.8852 2.81446 15.8957 4.85646 14.8307 6.22096C12.4542 7.27346 9.66672 6.45346 8.91122 6.19296Z" fill="currentColor"/>
</g>
<defs>
<clipPath id="clip0_4927_92">
<rect width="24" height="24" fill="white"/>
</clipPath>
</defs>
</svg>
