<svg viewBox="0 0 24 24" fill="currentColor" xmlns="http://www.w3.org/2000/svg">
<g clip-path="url(#clip0_9036_3608)">
<path d="M23.6304 21.9415L22.0717 20.3828C22.5513 19.6634 22.7911 18.8241 22.7911 17.9848C22.7911 15.347 20.6329 13.1888 17.9952 13.1888C15.3574 13.1888 13.1992 15.347 13.1992 17.9848C13.1992 20.6226 15.3574 22.7807 17.9952 22.7807C18.8345 22.7807 19.6738 22.541 20.3931 22.0614L21.9518 23.62C22.1916 23.8598 22.911 24.3394 23.6304 23.62C24.11 23.1404 24.11 22.4211 23.6304 21.9415ZM17.9952 20.3828C16.6763 20.3828 15.5972 19.3037 15.5972 17.9848C15.5972 16.6659 16.6763 15.5868 17.9952 15.5868C19.3141 15.5868 20.3931 16.6659 20.3931 17.9848C20.3931 19.3037 19.3141 20.3828 17.9952 20.3828Z" fill="currentColor"/>
<path d="M17.9951 0H1.20924C0.489849 0 0.0102539 0.479595 0.0102539 1.19899V22.7808C0.0102539 23.5002 0.489849 23.9798 1.20924 23.9798H14.0384C12.12 22.6609 10.8011 20.5027 10.8011 17.9848C10.8011 14.0282 14.0384 10.7909 17.9951 10.7909C18.3548 10.7909 18.8344 10.7909 19.1941 10.9108V1.19899C19.1941 0.479595 18.7145 0 17.9951 0ZM9.60216 9.59191H3.60722C2.88783 9.59191 2.40823 8.99241 2.40823 8.39292C2.40823 7.67353 2.88783 7.19393 3.60722 7.19393H9.60216C10.3216 7.19393 10.8011 7.67353 10.8011 8.39292C10.8011 8.99241 10.3216 9.59191 9.60216 9.59191ZM15.5971 4.79595H3.60722C2.88783 4.79595 2.40823 4.19646 2.40823 3.59697C2.40823 2.87757 2.88783 2.39798 3.60722 2.39798H15.5971C16.3165 2.39798 16.7961 2.87757 16.7961 3.59697C16.7961 4.19646 16.3165 4.79595 15.5971 4.79595Z" fill="currentColor"/>
</g>
<defs>
<clipPath id="clip0_9036_3608">
<rect width="24" height="24" fill="white"/>
</clipPath>
</defs>
</svg>
