<svg viewBox="0 0 24 24" fill="currentColor" xmlns="http://www.w3.org/2000/svg">
<g clip-path="url(#clip0_3593_300)">
<path d="M20.1023 11.5562C20.0252 11.0426 19.5848 10.6724 19.0666 10.6724H10.6709L9.14619 8.86767C8.82304 8.48823 8.34874 8.24915 7.84975 8.24915H2.39482C2.00611 8.24915 1.63669 8.43116 1.38527 8.72885C1.13462 9.02732 1.02742 9.43607 1.09297 9.81938L1.23797 10.6724H1.14233C0.836925 10.6724 0.547713 10.7965 0.350277 11.0279C0.149756 11.26 0.0626069 11.5624 0.109652 11.8639L1.80328 22.8524C1.90585 23.5134 2.47502 24 3.14368 24H20.7255C21.0309 24 21.3201 23.8658 21.5175 23.6368C21.7157 23.4054 21.8052 23.1054 21.7597 22.8039L20.1023 11.5562Z" fill="currentColor"/>
<path d="M15.922 3.35559H9.35498C8.90226 3.35559 8.53516 3.76434 8.53516 4.21783C8.53516 4.67131 8.90303 5.08007 9.35498 5.08007H15.922C16.3763 5.08007 16.7426 4.67131 16.7426 4.21783C16.7426 3.76434 16.3747 3.35559 15.922 3.35559Z" fill="currentColor"/>
<path d="M23.6594 9.39826C23.4705 9.17846 23.1936 9.04041 22.9028 9.04041H21.0396L21.4637 12.9698L22.4764 19.8346L23.8939 10.2003C23.9332 9.91344 23.8499 9.61883 23.6594 9.39826Z" fill="currentColor"/>
<path d="M6.95955 1.58488H18.4232V9.3674H20.0088V1.008C20.008 0.455799 19.5468 0 18.9946 0H6.31711C5.71092 0 5.23584 0.498988 5.23584 1.10518V7.13005H6.95955V1.58488Z" fill="currentColor"/>
<path d="M15.9224 6.52466H9.3553C8.9612 6.52466 8.63266 6.83624 8.55322 7.218C9.11545 7.36145 9.62678 7.66763 10.0116 8.1188L10.1312 8.24836H15.9224C16.3766 8.24836 16.7429 7.83961 16.7429 7.38613C16.7429 6.93264 16.3751 6.52466 15.9224 6.52466Z" fill="currentColor"/>
</g>
<defs>
<clipPath id="clip0_3593_300">
<rect width="24" height="24" fill="white"/>
</clipPath>
</defs>
</svg>
