<svg viewBox="0 0 96 96" fill="currentColor" xmlns="http://www.w3.org/2000/svg">
<g clip-path="url(#clip0_631_2)">
<path d="M56 48C56 43.6 52.4 40 48 40C43.6 40 40 43.6 40 48C40 52.4 43.6 56 48 56C52.4 56 56 52.4 56 48ZM48 12C28.12 12 12 28.12 12 48H0L16 64L32 48H20C20 32.52 32.52 20 48 20C63.48 20 76 32.52 76 48C76 63.48 63.48 76 48 76C41.96 76 36.36 74.04 31.76 70.8L26.08 76.56C32.16 81.2 39.76 84 48 84C67.88 84 84 67.88 84 48C84 28.12 67.88 12 48 12Z" fill="currentColor"/>
</g>
<defs>
<clipPath id="clip0_631_2">
<rect width="96" height="96" fill="white"/>
</clipPath>
</defs>
</svg>
