<svg viewBox="0 0 512 512" xmlns="http://www.w3.org/2000/svg">
    <path
        d="M135 0C60.557 0 0 60.557 0 135s60.557 135 135 135c74.078 0 135-59.819 135-135C270 61.451 210.06 0 135 0zm15 207.237V225c0 8.291-6.709 15-15 15s-15-6.709-15-15v-17.911c-8.221-2.944-15.657-7.967-20.991-15.077-4.966-6.636-3.633-16.04 2.988-21.006 6.68-4.922 16.069-3.647 21.006 2.988C125.859 177.817 130.239 180 135 180c8.276 0 15-6.724 15-15s-6.724-15-15-15c-24.814 0-45-20.186-45-45 0-19.53 12.578-36.024 30-42.237V45c0-8.291 6.709-15 15-15s15 6.709 15 15v17.911c8.221 2.944 15.657 7.967 20.991 15.077 4.966 6.636 3.633 16.04-2.988 21.006-6.636 4.98-16.011 3.647-21.006-2.988C139.16 85.532 120 91.963 120 105c0 8.276 6.724 15 15 15 24.814 0 45 20.186 45 45 0 19.53-12.578 36.024-30 42.237z" />
    <path
        d="M497 60H281.479a167.197 167.197 0 0 1 17.582 60H435c8.291 0 15 6.709 15 15v120c0 8.291-6.709 15-15 15H229.466c-24.893 17.387-51.202 26.593-79.466 29.072V497c0 8.291 6.709 15 15 15h332c8.291 0 15-6.709 15-15V75c0-8.291-6.709-15-15-15zM315 300h30c8.291 0 15 6.709 15 15s-6.709 15-15 15h-30c-8.291 0-15-6.709-15-15s6.709-15 15-15zm0 60h30c8.291 0 15 6.709 15 15s-6.709 15-15 15h-30c-8.291 0-15-6.709-15-15s6.709-15 15-15zm-60 90h-30c-8.291 0-15-6.709-15-15s6.709-15 15-15h30c8.291 0 15 6.709 15 15s-6.709 15-15 15zm0-60h-30c-8.291 0-15-6.709-15-15s6.709-15 15-15h30c8.291 0 15 6.709 15 15s-6.709 15-15 15zm0-60h-30c-8.291 0-15-6.709-15-15s6.709-15 15-15h30c8.291 0 15 6.709 15 15s-6.709 15-15 15zm180 120H315c-8.291 0-15-6.709-15-15s6.709-15 15-15h120c8.291 0 15 6.709 15 15s-6.709 15-15 15zm0-60h-30c-8.291 0-15-6.709-15-15s6.709-15 15-15h30c8.291 0 15 6.709 15 15s-6.709 15-15 15zm0-60h-30c-8.291 0-15-6.709-15-15s6.709-15 15-15h30c8.291 0 15 6.709 15 15s-6.709 15-15 15z" />
    <path d="M420 240v-90H298.74c-3.082 33.777-16.058 64.911-36.81 90z" />
</svg>