<svg viewBox="0 0 24 24" fill="currentColor" xmlns="http://www.w3.org/2000/svg">
<g clip-path="url(#clip0_4927_51)">
<path d="M9 10C11.7614 10 14 7.76142 14 5C14 2.23858 11.7614 0 9 0C6.23858 0 4 2.23858 4 5C4 7.76142 6.23858 10 9 10Z" fill="currentColor"/>
<path d="M11.534 20.8C11.013 19.898 11.117 18.787 11.737 18C11.117 17.213 11.013 16.103 11.534 15.2L12.343 13.8C12.788 13.029 13.618 12.55 14.509 12.55C14.631 12.55 14.751 12.559 14.87 12.576C14.903 12.494 14.945 12.417 14.986 12.339C14.446 12.126 13.863 12 13.25 12H4.75C2.131 12 0 14.131 0 16.75V20.25C0 20.664 0.336 21 0.75 21H11.649L11.534 20.8Z" fill="currentColor"/>
<path d="M21.7028 18.469C21.7228 18.314 21.7498 18.16 21.7498 18C21.7498 17.839 21.7218 17.686 21.7028 17.531L22.6038 16.849C22.8048 16.697 22.8608 16.419 22.7348 16.2L21.9258 14.8C21.7998 14.582 21.5308 14.491 21.2988 14.589L20.2618 15.026C20.0088 14.833 19.7398 14.663 19.4428 14.539L19.3048 13.438C19.2728 13.188 19.0608 13 18.8088 13H17.1918C16.9398 13 16.7268 13.188 16.6958 13.438L16.5578 14.539C16.2608 14.663 15.9908 14.834 15.7388 15.026L14.7018 14.589C14.4698 14.491 14.2008 14.581 14.0748 14.8L13.2658 16.2C13.1398 16.418 13.1958 16.696 13.3968 16.849L14.2978 17.531C14.2778 17.686 14.2508 17.84 14.2508 18C14.2508 18.161 14.2788 18.314 14.2978 18.469L13.3968 19.151C13.1958 19.303 13.1398 19.581 13.2658 19.8L14.0748 21.201C14.2008 21.419 14.4698 21.51 14.7018 21.412L15.7388 20.974C15.9918 21.167 16.2608 21.337 16.5578 21.461L16.6958 22.562C16.7268 22.812 16.9388 23 17.1908 23H18.8078C19.0598 23 19.2728 22.812 19.3038 22.562L19.4418 21.461C19.7388 21.337 20.0088 21.166 20.2608 20.974L21.2978 21.411C21.5298 21.509 21.7988 21.419 21.9248 21.2L22.7338 19.799C22.8598 19.581 22.8038 19.303 22.6028 19.15L21.7028 18.469ZM17.9998 20C16.8948 20 15.9998 19.105 15.9998 18C15.9998 16.895 16.8948 16 17.9998 16C19.1048 16 19.9998 16.895 19.9998 18C19.9998 19.105 19.1048 20 17.9998 20Z" fill="currentColor"/>
</g>
<defs>
<clipPath id="clip0_4927_51">
<rect width="24" height="24" fill="white"/>
</clipPath>
</defs>
</svg>
