<svg width="24" height="24" viewBox="0 0 24 24" fill="none" stroke="#854F0B" stroke-width="1.7" stroke-linecap="round" stroke-linejoin="round">
        <!-- headset -->
        <path d="M3 18v-6a9 9 0 0118 0v6"></path>
        <path d="M21 19a2 2 0 01-2 2h-1a2 2 0 01-2-2v-3a2 2 0 012-2h3v5z"></path>
        <path d="M3 19a2 2 0 002 2h1a2 2 0 002-2v-3a2 2 0 00-2-2H3v5z"></path>
        <!-- gear badge -->
        <circle cx="19" cy="5" r="3.5" fill="#FAEEDA" stroke="#854F0B" stroke-width="1.4"></circle>
        <circle cx="19" cy="5" r="1.2" stroke="#854F0B" stroke-width="1.2" fill="none"></circle>
        <line x1="19" y1="1.5" x2="19" y2="2.5" stroke="#854F0B" stroke-width="1.2"></line>
        <line x1="19" y1="7.5" x2="19" y2="8.5" stroke="#854F0B" stroke-width="1.2"></line>
        <line x1="15.5" y1="5" x2="16.5" y2="5" stroke="#854F0B" stroke-width="1.2"></line>
        <line x1="21.5" y1="5" x2="22.5" y2="5" stroke="#854F0B" stroke-width="1.2"></line>
      </svg>