<svg width="24" height="24" viewBox="0 0 24 24" fill="none" stroke="#534AB7" stroke-width="1.7" stroke-linecap="round" stroke-linejoin="round">
        <!-- headset -->
        <path d="M3 18v-6a9 9 0 0118 0v6"></path>
        <path d="M21 19a2 2 0 01-2 2h-1a2 2 0 01-2-2v-3a2 2 0 012-2h3v5z"></path>
        <path d="M3 19a2 2 0 002 2h1a2 2 0 002-2v-3a2 2 0 00-2-2H3v5z"></path>
        <!-- plug/link = integration -->
        <line x1="16" y1="5" x2="19.5" y2="1.5" stroke-width="1.5"></line>
        <line x1="18" y1="3" x2="21" y2="6" stroke-width="1.5"></line>
        <path d="M14.5 3.5l-4 4a3 3 0 004.2 4.2l4-4" stroke-width="1.4"></path>
      </svg>