<svg width="24" height="24" viewBox="0 0 24 24" fill="none" stroke="#534AB7" stroke-width="1.7" stroke-linecap="round" stroke-linejoin="round">
        <path d="M21 16V8a2 2 0 00-1-1.73l-7-4a2 2 0 00-2 0l-7 4A2 2 0 002 8v8a2 2 0 001 1.73l7 4a2 2 0 002 0l7-4A2 2 0 0021 16z"></path>
        <polyline points="3.27 6.96 12 12.01 20.73 6.96"></polyline>
        <line x1="12" y1="22.08" x2="12" y2="12"></line>
        <!-- ruler marks -->
        <line x1="7" y1="9.5" x2="7" y2="11" stroke-width="1.3"></line>
        <line x1="17" y1="9.5" x2="17" y2="11" stroke-width="1.3"></line>
      </svg>