<svg width="24" height="24" viewBox="0 0 24 24" fill="none" stroke="#185FA5" stroke-width="1.7" stroke-linecap="round" stroke-linejoin="round">
        <!-- Zalo-style bubble -->
        <path d="M21 11.5a8.38 8.38 0 01-.9 3.8 8.5 8.5 0 01-7.6 4.7 8.38 8.38 0 01-3.8-.9L3 21l1.9-5.7a8.38 8.38 0 01-.9-3.8 8.5 8.5 0 014.7-7.6 8.38 8.38 0 013.8-.9h.5a8.48 8.48 0 018 8v.5z"></path>
        <!-- template lines + placeholder box -->
        <line x1="7.5" y1="11" x2="11" y2="11" stroke-width="1.3"></line>
        <line x1="7.5" y1="14" x2="10" y2="14" stroke-width="1.3"></line>
        <rect x="12" y="9.5" width="5" height="6" rx="1" stroke-width="1.2"></rect>
      </svg>