<svg viewBox="0 0 24 24" fill="currentColor" xmlns="http://www.w3.org/2000/svg">
<g clip-path="url(#clip0_9036_3677)">
<path d="M15.6002 6.5091C15.6002 6.32728 15.4911 6.18183 15.3092 6.14547L13.4547 5.81819C13.3456 5.52728 13.2365 5.23637 13.0547 4.94547L14.0729 3.52728C14.182 3.38183 14.1456 3.16365 14.0365 3.05456C14.0002 3.01819 12.6911 1.81819 12.582 1.74547C12.4729 1.67274 12.3638 1.63637 12.2183 1.67274C12.1456 1.7091 12.1093 1.7091 12.0729 1.74547L10.6911 2.61819C10.6547 2.65456 10.6183 2.65456 10.582 2.69092C10.2911 2.54547 10.0002 2.43637 9.70925 2.36365L9.34561 0.654557C9.30925 0.472738 9.1638 0.363647 8.98198 0.363647H6.98198C6.80016 0.363647 6.65471 0.509102 6.61834 0.69092L6.25471 2.36365C5.92743 2.47274 5.60016 2.58183 5.30925 2.72728C4.50925 2.21819 4.07289 1.96365 3.81834 1.81819C3.78198 1.78183 3.78198 1.78183 3.74561 1.74547V1.78183C3.52743 1.67274 3.49107 1.7091 3.38198 1.74547C3.38198 1.78183 3.30925 1.81819 3.30925 1.85456L1.92743 3.12728C1.78198 3.27274 1.78198 3.49092 1.92743 3.63637C2.03652 3.78183 2.3638 4.21819 2.61834 4.58183L2.90925 5.05456C2.7638 5.34547 2.61834 5.63637 2.54561 5.92728L0.727433 6.25456C0.545614 6.29092 0.436523 6.43638 0.436523 6.61819V8.5091C0.436523 8.65456 0.509251 8.76365 0.618342 8.83637C0.691069 8.87274 0.727433 8.9091 0.80016 8.87274L2.58198 9.20001C2.65471 9.41819 2.7638 9.7091 2.98198 10.0727C2.47289 10.8 2.18198 11.2 2.03652 11.4546C2.00016 11.4546 2.00016 11.4909 1.9638 11.5273C1.85471 11.7455 1.85471 11.7818 1.92743 11.8909C1.9638 11.9636 2.00016 12 2.07289 12.0364C2.32743 12.2546 3.38198 13.2364 3.45471 13.3091C3.5638 13.3818 3.67289 13.4182 3.81834 13.3818C3.85471 13.3818 3.92743 13.3455 3.9638 13.3091L5.45471 12.3273C5.74561 12.4727 6.03652 12.5818 6.32743 12.6546L6.69107 14.3636C6.72743 14.5455 6.87289 14.6546 7.05471 14.6546H9.0547C9.23652 14.6546 9.38198 14.5455 9.41834 14.3636L9.78198 12.6546C10.1093 12.5455 10.4365 12.4364 10.7274 12.2909L12.2911 13.2727C12.4365 13.3455 12.6183 13.3455 12.7274 13.2364L14.1456 11.8909C14.2911 11.7818 14.2911 11.5636 14.182 11.4182L13.1638 10C13.3093 9.7091 13.4547 9.41819 13.5274 9.12728L15.3456 8.80001C15.5274 8.76365 15.6365 8.61819 15.6365 8.43638L15.6002 6.5091ZM8.03652 10.6546C6.25471 10.6546 4.83652 9.49092 4.69107 7.56365C4.69107 7.52728 4.69107 7.52728 4.69107 7.49092C4.69107 5.92728 5.92743 4.58183 7.60016 4.36365C9.52743 4.14547 11.3456 5.52728 11.3456 7.49092C11.3456 9.23637 9.81834 10.6546 8.03652 10.6546Z" fill="currentColor"/>
<path d="M23.5639 16.9818C23.5639 16.8 23.4548 16.6545 23.273 16.6182L21.9275 16.3636C21.8548 16.1454 21.7457 15.9273 21.673 15.7454L22.4366 14.6182C22.5457 14.4727 22.5093 14.2909 22.4002 14.1454C21.273 13.0545 21.1639 12.9091 20.9457 12.9818C20.873 13.0182 19.782 13.7818 19.7457 13.8182C19.5639 13.7091 19.382 13.6364 19.1639 13.6L18.9093 12.2545C18.873 12.0727 18.7275 11.9636 18.5457 11.9636H17.0184C16.8366 11.9636 16.6911 12.1091 16.6548 12.2909L16.4002 13.6C16.182 13.6727 15.9639 13.7454 15.782 13.8545C15.4548 13.6363 14.7275 13.1636 14.6548 13.0909C14.473 12.9818 14.2548 13.0182 14.1457 13.1636C14.1093 13.2 13.0911 14.2545 13.1275 14.2182C13.0184 14.3273 12.982 14.5454 13.0911 14.6909C13.0911 14.7273 13.6002 15.4545 13.8548 15.8182C13.7457 16.0363 13.673 16.2545 13.6002 16.4727L12.2548 16.7273C12.073 16.7636 11.9639 16.9091 11.9639 17.0909V18.5454V18.6182C12.0002 18.8364 12.0366 18.8727 12.1457 18.9454C12.182 18.9818 12.2548 18.9818 12.3275 18.9818L13.6002 19.2364C13.673 19.4182 13.7457 19.6 13.8548 19.8545C13.673 20.1091 13.382 20.5454 13.2366 20.8L13.1275 20.9818C13.0184 21.1636 13.0548 21.3818 13.2366 21.4909L14.2911 22.5091C14.3639 22.5818 14.473 22.6182 14.5457 22.6182H14.6548C14.6911 22.6182 14.7639 22.5818 14.8002 22.5454L15.8911 21.7818C16.073 21.8909 16.2548 21.9636 16.473 22L16.7275 23.3454C16.7639 23.5273 16.9093 23.6363 17.0911 23.6363H18.5457C18.7275 23.6363 18.873 23.5273 18.9093 23.3454L19.1639 22C19.382 21.9273 19.6002 21.8545 19.8184 21.7454L20.9457 22.5091C21.0911 22.6182 21.273 22.5818 21.4184 22.4727L22.473 21.3818C22.582 21.2727 22.6184 21.0545 22.5093 20.9091L21.7457 19.7818C21.8548 19.5636 21.9275 19.3454 22.0002 19.1273L23.3093 18.8727C23.4911 18.8364 23.6002 18.6909 23.6002 18.5091L23.5639 16.9818ZM17.7457 20.5454C16.3275 20.5454 15.0184 19.3818 15.0184 17.8182C15.0184 16.7273 15.6366 15.7091 16.6184 15.2727C18.3639 14.5454 20.1457 15.6 20.473 17.2364C20.8366 19.0545 19.4184 20.5454 17.7457 20.5454Z" fill="currentColor"/>
<path d="M10.1821 21.3818C6.90942 21.3091 4.18215 18.8728 3.67306 15.7091L4.25487 16.2909C4.40033 16.4364 4.61851 16.4364 4.76397 16.2909C4.90942 16.1455 4.90942 15.9273 4.76397 15.7818L3.45487 14.5091C3.30942 14.3637 3.09124 14.3637 2.94578 14.5091L1.67306 15.8182C1.5276 15.9637 1.5276 16.1818 1.67306 16.3273C1.81851 16.4728 2.03669 16.4728 2.18215 16.3273L2.90942 15.6C3.38215 19.2 6.40033 22.0364 10.1821 22.1455C10.4003 22.1455 10.5458 21.9637 10.5458 21.7818C10.5458 21.5273 10.4003 21.3818 10.1821 21.3818Z" fill="currentColor"/>
<path d="M23.2728 9.81822C23.1274 9.67277 22.9092 9.67277 22.7637 9.81822L22.0728 10.5091C22.1819 6.87277 19.6365 3.63641 16.0365 2.90913C15.8547 2.87277 15.6365 3.01822 15.6365 3.23641C15.6001 3.41822 15.7456 3.60004 15.9274 3.63641C19.1637 4.29095 21.4547 7.20004 21.3819 10.4728L20.7274 9.81822C20.5819 9.67277 20.3637 9.67277 20.2183 9.81822C20.0728 9.96368 20.0728 10.1819 20.2183 10.3273L21.491 11.6C21.5637 11.6728 21.6365 11.7091 21.7456 11.7091C21.8547 11.7091 21.9274 11.6728 22.0001 11.6L23.2728 10.3273C23.4183 10.1819 23.4183 9.96368 23.2728 9.81822Z" fill="currentColor"/>
</g>
<defs>
<clipPath id="clip0_9036_3677">
<rect width="24" height="24" fill="white"/>
</clipPath>
</defs>
</svg>
