<svg class="svg-icon" style="width: 1em; height: 1em;vertical-align: middle;fill: currentColor;overflow: hidden;" viewBox="0 0 1024 1024" version="1.1" xmlns="http://www.w3.org/2000/svg"><path d="M591.36 694.272c8.192-115.712 102.4-209.408 218.112-217.6 46.592-3.072 90.624 7.168 128.512 27.136 10.752 5.632 24.064-2.56 24.064-14.848v-296.96c0-6.144-0.512-12.288-2.048-17.92-2.048 7.68-6.656 15.36-13.312 20.992l-436.224 366.08-0.512 0.512c-16.896 13.824-41.984 12.288-56.832-3.584L88.064 254.464c-17.92-14.848-20.48-41.984-5.12-59.904 14.848-17.92 41.984-20.48 59.904-5.12l339.968 284.672 408.576-343.04c5.12-4.608 11.264-7.168 17.92-8.704-6.656-2.048-13.824-3.072-20.992-3.072h-814.08C33.28 118.272 0 151.552 0 192.512v616.96c0 40.96 33.28 74.24 74.24 74.24h553.472c13.824 0 21.504-15.872 13.312-26.624-35.328-44.544-54.272-101.376-49.664-162.816z"  /><path d="M827.904 513.024c-108.544 0-196.096 87.552-196.096 196.096 0 108.544 87.552 196.096 196.096 196.096 108.544 0 196.096-87.552 196.096-196.096 0-108.032-87.552-196.096-196.096-196.096z m134.656 281.088c-0.512 2.56-3.584 3.072-5.12 1.024-20.48-28.672-55.808-48.128-96.768-48.128-9.216 0-17.92 1.024-26.624 3.072-1.536 0.512-2.048 1.536-2.048 3.072v52.224c0 2.048-2.56 3.584-4.608 2.56L681.472 711.68c-1.536-1.024-1.536-3.584 0-4.608l145.92-95.744c2.048-1.024 4.608 0 4.608 2.56v59.904c1.024 0 1.536 0 2.56-0.512 66.56-5.12 124.416 36.864 129.536 94.208 1.024 9.216 0.512 17.92-1.536 26.624z"  /></svg>