<svg viewBox="0 0 24 25" fill="currentColor" xmlns="http://www.w3.org/2000/svg">
<path d="M8.9912 10.9463C8.92478 10.5851 9.08196 10.2372 9.28194 9.92858C10.0807 8.69589 10.3445 7.48903 8.62076 5.77302C6.39245 3.55474 4.78027 4.1952 3.38909 5.58012C2.37003 6.5946 2.14399 8.11712 2.68485 9.44526C3.55349 12.3606 11.3164 20.3934 15.0526 21.7305C16.3761 22.246 17.8827 22.0148 18.8903 21.0117C20.2815 19.6267 20.828 17.9253 18.6966 15.8035C16.7893 13.9048 15.7203 14.318 14.5076 15.147C14.2191 15.3443 13.8881 15.4913 13.5423 15.4377C12.7674 15.3176 11.5712 14.8006 10.4614 13.5854C9.56493 12.6037 9.1178 11.6349 8.9912 10.9463Z" fill="currentColor"/>
<path fill-rule="evenodd" clip-rule="evenodd" d="M13.4069 3.7809C13.5143 3.13896 14.1231 2.70547 14.7665 2.81266C16.2806 3.0649 17.8618 3.92402 19.1657 5.22488C20.4696 6.52573 21.3308 8.10317 21.5836 9.61373C21.691 10.2557 21.2565 10.8629 20.6131 10.9701C19.9696 11.0773 19.3609 10.6438 19.2535 10.0019C19.0953 9.05675 18.5144 7.90818 17.4952 6.8914C16.4761 5.87463 15.3248 5.29513 14.3774 5.1373C13.734 5.03011 13.2994 4.42283 13.4069 3.7809ZM13.0467 7.47119C13.1542 6.82926 13.7629 6.39577 14.4063 6.50296C15.2172 6.63803 16.0176 7.08612 16.6578 7.72479C17.298 8.36347 17.7471 9.16205 17.8825 9.97098C17.99 10.6129 17.5554 11.2202 16.912 11.3274C16.2686 11.4346 15.6598 11.0011 15.5524 10.3591C15.5116 10.1156 15.3428 9.74591 14.9873 9.39132C14.6319 9.03672 14.2613 8.86826 14.0172 8.82759C13.3738 8.7204 12.9393 8.11312 13.0467 7.47119Z" fill="currentColor"/>
</svg>
