<svg viewBox="0 0 24 24" fill="currentColor" xmlns="http://www.w3.org/2000/svg">
<path d="M15.9666 4.02649L7.7002 7.69015L11.5 9.37427L19.7663 5.71052L15.9666 4.02649Z" fill="currentColor"/>
<path d="M6.46585 7.14323L14.7324 3.47958L11.9047 2.22651C11.7771 2.16996 11.6391 2.14075 11.4995 2.14075C11.36 2.14075 11.2219 2.16996 11.0943 2.22651L3.2334 5.71059L6.46585 7.14323Z" fill="currentColor"/>
<path d="M11 10.2463L2.5 6.479V16.3137C2.50003 16.5072 2.55625 16.6967 2.66184 16.8589C2.76743 17.0212 2.91785 17.1493 3.09484 17.2277L11 20.7313L11 10.2463Z" fill="currentColor"/>
<path d="M12 17V20.7315L13.0713 20.2566C12.3744 19.314 11.9989 18.1723 12 17Z" fill="currentColor"/>
<path d="M17.5 11.4999C18.5657 11.499 19.6085 11.8097 20.5 12.3937V6.479L12 10.2463V17C12.0016 15.5418 12.5816 14.1438 13.6127 13.1127C14.6438 12.0816 16.0418 11.5016 17.5 11.4999Z" fill="currentColor"/>
<path d="M17.5 12.5C16.61 12.5 15.74 12.7639 14.9999 13.2584C14.2599 13.7529 13.6831 14.4557 13.3425 15.2779C13.0019 16.1002 12.9128 17.005 13.0865 17.8779C13.2601 18.7508 13.6887 19.5526 14.318 20.182C14.9474 20.8113 15.7492 21.2399 16.6221 21.4135C17.495 21.5872 18.3998 21.4981 19.2221 21.1575C20.0443 20.8169 20.7471 20.2401 21.2416 19.5001C21.7361 18.76 22 17.89 22 17C22 15.8065 21.5259 14.6619 20.682 13.818C19.8381 12.9741 18.6935 12.5 17.5 12.5ZM19.3535 18.1465C19.4008 18.1927 19.4385 18.2479 19.4643 18.3087C19.4902 18.3696 19.5037 18.435 19.5041 18.5012C19.5044 18.5673 19.4917 18.6329 19.4666 18.694C19.4414 18.7552 19.4044 18.8108 19.3576 18.8576C19.3109 18.9044 19.2553 18.9414 19.1941 18.9665C19.1329 18.9916 19.0674 19.0044 19.0012 19.004C18.9351 19.0036 18.8697 18.9901 18.8088 18.9643C18.7479 18.9385 18.6927 18.9008 18.6465 18.8535L17.5 17.707L16.3535 18.8535C16.3073 18.9008 16.2522 18.9385 16.1913 18.9643C16.1304 18.9901 16.065 19.0036 15.9988 19.004C15.9327 19.0044 15.8671 18.9916 15.806 18.9665C15.7448 18.9414 15.6892 18.9044 15.6424 18.8576C15.5957 18.8108 15.5586 18.7552 15.5335 18.694C15.5084 18.6329 15.4956 18.5673 15.496 18.5012C15.4964 18.435 15.5099 18.3696 15.5357 18.3087C15.5615 18.2479 15.5992 18.1927 15.6465 18.1465L16.793 17L15.6465 15.8535C15.5992 15.8073 15.5615 15.7522 15.5357 15.6913C15.5099 15.6304 15.4964 15.565 15.496 15.4988C15.4956 15.4327 15.5084 15.3671 15.5335 15.306C15.5586 15.2448 15.5957 15.1892 15.6424 15.1424C15.6892 15.0956 15.7448 15.0586 15.806 15.0335C15.8671 15.0084 15.9327 14.9956 15.9988 14.996C16.065 14.9964 16.1304 15.0099 16.1913 15.0357C16.2522 15.0615 16.3073 15.0992 16.3535 15.1465L17.5 16.293L18.6465 15.1465C18.6927 15.0992 18.7479 15.0615 18.8087 15.0357C18.8696 15.0099 18.935 14.9964 19.0012 14.996C19.0673 14.9956 19.1329 15.0084 19.1941 15.0335C19.2552 15.0586 19.3108 15.0956 19.3576 15.1424C19.4044 15.1892 19.4414 15.2448 19.4665 15.306C19.4916 15.3671 19.5044 15.4327 19.504 15.4988C19.5036 15.565 19.4901 15.6304 19.4643 15.6913C19.4385 15.7522 19.4008 15.8073 19.3535 15.8535L18.207 17L19.3535 18.1465Z" fill="currentColor"/>
</svg>
