<svg viewBox="0 0 24 24" fill="currentColor" xmlns="http://www.w3.org/2000/svg">
<g clip-path="url(#clip0_3593_381)">
<path d="M9.00635 0V2.00206H11.0084V3.00306C11.7091 2.90298 12.3097 2.90298 13.0105 3.00306V2.00206H15.0125V0H9.00635Z" fill="currentColor"/>
<path d="M18.8163 6.60674L19.517 5.90604L20.3179 6.70687L21.7193 5.30543L18.7163 2.30237L17.3148 3.70381L18.1156 4.5046L17.2147 5.40552C12.4098 2.50254 6.20349 4.00407 3.40065 8.80897C0.597803 13.6139 2.09929 19.62 6.8041 22.523C11.5089 25.4259 17.7152 23.9244 20.5181 19.1195C23.0206 15.0153 22.3199 9.81002 18.8163 6.60674ZM12.0094 20.9214C8.10541 20.9214 5.00226 17.8182 5.00226 13.9142C5.00226 10.0102 8.10541 6.90705 12.0094 6.90705V13.9142H19.0165C19.0166 17.8182 15.9134 20.9214 12.0094 20.9214Z" fill="currentColor"/>
</g>
<defs>
<clipPath id="clip0_3593_381">
<rect width="24" height="24" fill="white"/>
</clipPath>
</defs>
</svg>
