<svg viewBox="0 0 24 24" fill="currentColor" xmlns="http://www.w3.org/2000/svg">
<g clip-path="url(#clip0_4927_90)">
<path d="M21.5409 2.45911C19.9552 0.873413 17.8467 0 15.6037 0C13.3612 0 11.2527 0.873413 9.66705 2.45911C8.08118 4.04498 7.20795 6.15344 7.20795 8.39667C7.20795 10.4033 7.90741 12.3023 9.19025 13.816L7.49249 15.5134C6.62256 15.0648 5.52466 15.2049 4.79626 15.9335L0.677307 20.0524C0.240417 20.4893 0 21.0701 0 21.6881C0 22.3059 0.240417 22.8867 0.677307 23.3236C1.1283 23.7746 1.72083 24 2.31281 24C2.90533 24 3.49731 23.7746 3.9483 23.3236L8.06726 19.2045C8.50415 18.7676 8.74457 18.1868 8.74457 17.569C8.74457 17.1936 8.6554 16.8316 8.48767 16.5071L10.1845 14.8103C11.6981 16.0939 13.5974 16.7928 15.6037 16.7928C17.8467 16.7928 19.9552 15.9194 21.5409 14.3335C23.1268 12.7476 24 10.6392 24 8.39667C24 6.15344 23.1268 4.04498 21.5409 2.45911ZM12.7443 11.3967C12.7443 11.7849 12.4299 12.1 12.0412 12.1C11.6532 12.1 11.3381 11.7849 11.3381 11.3967V9.14612C11.3381 8.75812 11.6532 8.44299 12.0412 8.44299C12.4299 8.44299 12.7443 8.75793 12.7443 9.14612V11.3967ZM15.0881 11.3967C15.0881 11.7849 14.7737 12.1 14.3849 12.1C13.9969 12.1 13.6818 11.7849 13.6818 11.3967V6.80237C13.6818 6.41418 13.9969 6.09906 14.3849 6.09906C14.7737 6.09906 15.0881 6.41418 15.0881 6.80237V11.3967ZM17.4318 11.3967C17.4318 11.7849 17.1174 12.1 16.7287 12.1C16.3407 12.1 16.0256 11.7849 16.0256 11.3967V7.73987C16.0256 7.35168 16.3407 7.03674 16.7287 7.03674C17.1174 7.03674 17.4318 7.35168 17.4318 7.73987V11.3967ZM19.7756 11.3967C19.7756 11.7849 19.4612 12.1 19.0724 12.1C18.6844 12.1 18.3693 11.7849 18.3693 11.3967V5.39594C18.3693 5.00793 18.6844 4.69281 19.0724 4.69281C19.4612 4.69281 19.7756 5.00775 19.7756 5.39594V11.3967Z" fill="currentColor"/>
</g>
<defs>
<clipPath id="clip0_4927_90">
<rect width="24" height="24" fill="white"/>
</clipPath>
</defs>
</svg>
