<svg class="svg-icon" style="width: 1em; height: 1em;vertical-align: middle;fill: currentColor;overflow: hidden;" viewBox="0 0 1024 1024" version="1.1" xmlns="http://www.w3.org/2000/svg"><path d="M837.233 492.969l-307.764-326.602c-10.013-10.425-26.383-10.425-36.187 0l-307.216 325.829-0.366 0.772c-10.192 10.41-10.192 27.785 0 38.405l307.581 326.215c9.804 10.601 26.175 10.601 36.187 0l307.764-326.215c10.193-10.62 10.193-27.997 0.001-38.405v0 0zM511.455 800.066v0l-271.527-287.809 271.527-287.963 271.367 287.963-271.367 287.809zM455.948 390.263v0c-6.358-5.946-15.824-5.946-21.819 0l-81.002 86.311c-6.177 5.967-6.177 16.759 0 22.957 6.022 6.163 15.639 6.163 21.846 0l54.592-58.311v180.677c0 8.885 6.91 16.606 15.667 16.606 8.343 0 15.071-7.722 15.071-16.606v-180.677l55.137 58.311c5.66 6.163 15.459 6.163 21.484 0 5.838-6.197 5.838-16.991 0-22.957l-80.794-85.541-0.183-0.77zM485.799 524.618v0c-5.994 6.564-5.994 16.799 0.158 23.17l80.092 84.922c6.207 7.34 17.286 7.34 23.307 0l80.27-84.922c5.97-6.371 5.97-16.606 0-23.17-5.655-6.354-15.459-6.354-21.665 0l-54.985 58.098v-180.655c0-9.097-6.91-16.433-15.275-16.433-8.37 0-15.279 7.337-15.279 16.433v180.655l-54.956-58.098c-5.842-6.355-15.67-6.355-21.667 0v0 0zM485.799 524.618z"  /></svg>