<svg viewBox="0 0 482 482" xmlns="http://www.w3.org/2000/svg">
  <path
    d="M105.464 15c0-8.284-6.716-15-15-15s-15 6.716-15 15v17h30zM225.539 15c0-8.284-6.716-15-15-15s-15 6.716-15 15v17h30zM345.439 15c0-8.284-6.716-15-15-15s-15 6.716-15 15v17h30zM405.511 47c0-8.284-6.716-15-15-15h-45.072v31.939c0 8.284-6.716 15-15 15s-15-6.716-15-15V32h-89.9v31.939c0 8.284-6.716 15-15 15s-15-6.716-15-15V32h-90.074v31.939c0 8.284-6.716 15-15 15s-15-6.716-15-15V32H30.511c-8.284 0-15 6.716-15 15v84h390zM233.861 421.01l-38.43-.02c-8.29-.01-15-6.73-14.99-15.01 0-8.251 6.688-14.99 15.01-14.99l31.76.01c-1-9.583-.987-19.776.22-30h-31.99c-8.29 0-15-6.72-15-15s6.71-15 15-15h39.13c25.06-68.982 101.146-105.805 170.94-81.63V161h-390v305c0 8.28 6.72 15 15 15h244.99c-18.899-15.66-33.47-36.34-41.64-59.99zM285.441 211h30.1c8.28 0 15 6.72 15 15s-6.72 15-15 15h-30.1c-8.29 0-15-6.72-15-15s6.71-15 15-15zm-90 0h30.1c8.28 0 15 6.72 15 15s-6.72 15-15 15h-30.1c-8.29 0-15-6.72-15-15s6.71-15 15-15zm0 60h30.1c8.28 0 15 6.72 15 15s-6.72 15-15 15h-30.1c-8.29 0-15-6.72-15-15s6.71-15 15-15zm-59.899 149.94h-.01l-30.1-.03c-8.29 0-15-6.72-14.99-15.01 0-8.28 6.72-14.99 15-14.99h.01l30.1.03c8.28.01 14.99 6.73 14.99 15.01-.011 8.28-6.72 14.99-15 14.99zm0-59.94h-30.1c-8.29 0-15-6.72-15-15s6.71-15 15-15h30.1c8.28 0 15 6.72 15 15s-6.72 15-15 15zm0-60h-30.1c-8.29 0-15-6.72-15-15s6.71-15 15-15h30.1c8.28 0 15 6.72 15 15s-6.72 15-15 15z" />
  <path
    d="M361.489 272c-57.897 0-105 47.103-105 105s47.103 105 105 105 105-47.103 105-105-47.103-105-105-105zm25 114c0 8.284-6.716 15-15 15h-45.95c-8.284 0-15-6.716-15-15s6.716-15 15-15h30.95v-45c0-8.284 6.716-15 15-15s15 6.716 15 15z" />
</svg>