<svg viewBox="0 0 24 24" fill="currentColor" xmlns="http://www.w3.org/2000/svg">
<g clip-path="url(#clip0_18352_162)">
<path d="M6.76953 9.48718H10.6157V24H6.76953V9.48718Z" fill="currentColor"/>
<path d="M13.3848 12.5641H17.2309V24H13.3848V12.5641Z" fill="currentColor"/>
<path d="M20 7.12817H23.8462V24H20V7.12817Z" fill="currentColor"/>
<path d="M0.154297 14.9744H4.00045V24H0.154297V14.9744Z" fill="currentColor"/>
<path d="M21.7913 0C20.7158 0 19.844 0.871231 19.844 1.94595C19.844 2.19749 19.8922 2.43764 19.9792 2.65831L16.2262 5.85539C15.9509 5.70631 15.6354 5.62164 15.3002 5.62164C14.7437 5.62164 14.242 5.85533 13.8872 6.22944L10.6474 4.90256C10.6476 4.89 10.6483 4.87754 10.6483 4.86487C10.6483 3.79015 9.77649 2.91892 8.701 2.91892C7.62552 2.91892 6.75372 3.79015 6.75372 4.86487C6.75372 4.97364 6.76305 5.08015 6.78023 5.18405L3.41434 7.17415C3.0829 6.91303 2.66485 6.75677 2.21003 6.75677C1.13454 6.75677 0.262695 7.628 0.262695 8.70272C0.262695 9.77744 1.13454 10.6487 2.21003 10.6487C3.28552 10.6487 4.15731 9.77744 4.15731 8.70272C4.15731 8.59395 4.14798 8.48744 4.1308 8.38354L7.4967 6.39344C7.82813 6.65456 8.24618 6.81082 8.70106 6.81082C9.25762 6.81082 9.75926 6.57713 10.1141 6.20303L13.3539 7.5299C13.3537 7.54246 13.353 7.55492 13.353 7.56754C13.353 8.64226 14.2248 9.51349 15.3003 9.51349C16.3758 9.51349 17.2476 8.64226 17.2476 7.56754C17.2476 7.34236 17.2089 7.12631 17.1384 6.92513L20.9328 3.69272C21.1919 3.82005 21.4831 3.8919 21.7913 3.8919C22.8668 3.8919 23.7386 3.02067 23.7386 1.94595C23.7386 0.871231 22.8667 0 21.7913 0Z" fill="currentColor"/>
</g>
<defs>
<clipPath id="clip0_18352_162">
<rect width="24" height="24" fill="white"/>
</clipPath>
</defs>
</svg>
