<svg version="1.0" xmlns="http://www.w3.org/2000/svg"
 width="360.000000pt" height="360.000000pt" viewBox="0 0 360.000000 360.000000"
 preserveAspectRatio="xMidYMid meet">

<g transform="translate(0.000000,360.000000) scale(0.100000,-0.100000)"
fill="#015aa4" stroke="none">
<path d="M1954 3171 c-140 -85 -106 -287 54 -317 80 -15 157 31 188 111 30 79
-6 174 -79 208 -47 23 -124 22 -163 -2z"/>
<path d="M1400 3169 c-157 -66 -118 -299 50 -299 63 0 110 27 138 81 39 74 20
150 -50 202 -30 23 -103 31 -138 16z"/>
<path d="M2500 2947 c-85 -27 -143 -133 -119 -220 47 -177 274 -197 350 -32
35 75 14 164 -50 218 -52 43 -114 55 -181 34z"/>
<path d="M870 2892 c-55 -27 -83 -77 -77 -136 4 -41 11 -55 40 -83 42 -38 73
-48 122 -39 129 25 150 211 29 262 -44 18 -72 18 -114 -4z"/>
<path d="M2855 2505 c-83 -29 -144 -130 -132 -217 20 -146 194 -226 315 -145
49 32 92 113 92 171 -1 109 -102 207 -210 206 -14 -1 -43 -7 -65 -15z"/>
<path d="M523 2429 c-95 -28 -108 -166 -21 -219 123 -75 248 89 146 190 -16
17 -35 30 -41 30 -7 0 -21 2 -32 4 -11 3 -34 0 -52 -5z"/>
<path d="M2998 1956 c-135 -36 -200 -183 -138 -311 89 -184 363 -148 409 55
35 158 -113 298 -271 256z"/>
<path d="M395 1841 c-65 -28 -82 -118 -32 -168 22 -22 37 -28 72 -28 126 0
139 184 14 200 -18 3 -43 1 -54 -4z"/>
</g>
</svg>
