<svg viewBox="0 0 24 24" fill="currentColor" xmlns="http://www.w3.org/2000/svg">
<g clip-path="url(#clip0_7174_1265)">
<path d="M5.27997 23.0769H18.7106C21.1199 23.0769 23.0767 21.12 23.0767 18.72V5.27999C23.0767 2.88001 21.1199 0.923096 18.7106 0.923096H15.7198V6.59069C15.7198 6.74777 15.6276 6.90462 15.489 6.98766C15.3507 7.07071 15.1846 7.07071 15.0367 6.9969L12.286 5.52924C12.009 5.37228 11.6584 5.38152 11.3814 5.54772L8.9538 6.98766C8.56759 7.18077 8.26149 6.89054 8.26149 6.59069V0.923096H5.27997C2.87064 0.923096 0.922852 2.88001 0.922852 5.27999V18.72C0.922852 21.12 2.87064 23.0769 5.27997 23.0769ZM5.87988 12.5631V12.5538C5.94175 12.4612 7.60576 10.8178 7.69832 10.7262C8.05822 10.3662 8.63987 10.3662 8.99977 10.7262C9.3599 11.0862 9.3599 11.6676 8.99977 12.0277L8.87988 12.1476H14.566C16.6061 12.1476 18.2675 13.8 18.2675 15.8399C18.2675 17.88 16.6061 19.5415 14.566 19.5415H11.0307C10.523 19.5415 10.1076 19.1261 10.1076 18.6184C10.1076 18.1108 10.523 17.6953 11.0307 17.6953H14.566C15.5907 17.6953 16.4213 16.8647 16.4213 15.8399C16.4213 14.8247 15.5907 13.9938 14.566 13.9938H8.87064L8.99977 14.1231C9.3599 14.483 9.3599 15.0738 8.99977 15.4338C8.63821 15.7954 8.04973 15.7852 7.69832 15.4338C7.60597 15.341 5.8911 13.6169 5.99977 13.7262C5.63447 13.2695 5.67515 12.9717 5.87988 12.5631Z" fill="currentColor"/>
</g>
<defs>
<clipPath id="clip0_7174_1265">
<rect width="24" height="24" fill="white"/>
</clipPath>
</defs>
</svg>
