<svg class="svg-icon" style="width: 1em; height: 1em;vertical-align: middle;fill: currentColor;overflow: hidden;" viewBox="0 0 1024 1024" version="1.1" xmlns="http://www.w3.org/2000/svg"><path d="M872.3456 874.7008C772.7104 974.2336 652.6976 1024 512 1024c-140.5952 0-261.12-50.0736-361.472-150.528C50.176 773.12 0 652.6976 0 512c0-140.5952 50.176-261.12 150.528-361.472C250.88 50.176 371.4048 0 512 0c140.6976 0 261.12 50.176 361.472 150.528C973.824 250.88 1024 371.4048 1024 512 1024 652.6976 973.4144 773.5296 872.3456 874.7008zM846.2336 177.7664C752.9472 84.5824 641.536 37.888 512 37.888c-129.536 0-240.9472 46.592-334.2336 139.8784C84.5824 271.0528 37.888 382.464 37.888 512c0 129.536 46.592 240.9472 139.8784 334.2336C271.0528 939.52 382.464 986.112 512 986.112c129.536 0 240.9472-46.592 334.2336-139.8784C939.4176 752.9472 986.112 641.536 986.112 512 986.112 382.464 939.4176 271.0528 846.2336 177.7664zM530.944 493.056 530.944 267.8784c31.6416 3.1744 58.4704 15.4624 80.5888 36.7616 22.1184 21.2992 33.1776 46.1824 33.1776 74.6496 0 12.6976 6.3488 18.944 18.944 18.944 12.5952 0 18.944-6.2464 18.944-18.944 0-39.424-14.6432-73.5232-43.8272-101.888-29.2864-28.4672-65.2288-45.056-107.8272-49.7664L530.944 170.7008c0-12.5952-6.3488-18.944-18.944-18.944-12.5952 0-18.944 6.3488-18.944 18.944l0 56.9344C450.3552 232.3456 414.4128 248.9344 385.2288 277.2992c-29.184 28.4672-43.8272 62.464-43.8272 101.888 0 39.5264 14.6432 73.5232 43.8272 101.888 29.2864 28.4672 65.2288 45.056 107.8272 49.7664l0 225.1776c-31.6416-3.1744-58.4704-15.36-80.5888-36.7616C390.3488 698.0608 379.2896 673.1776 379.2896 644.7104c0-12.5952-6.3488-18.944-18.944-18.944S341.2992 632.1152 341.2992 644.7104c0 39.5264 14.6432 73.5232 43.8272 101.888 29.2864 28.4672 65.2288 45.056 107.8272 49.7664l0 56.9344c0 12.6976 6.3488 18.944 18.944 18.944 12.5952 0 18.944-6.2464 18.944-18.944L530.8416 796.4672c42.7008-4.7104 78.6432-21.2992 107.8272-49.7664 29.184-28.4672 43.8272-62.464 43.8272-101.888 0-39.424-14.6432-73.5232-43.8272-101.888C609.5872 514.3552 573.6448 497.7664 530.944 493.056zM493.056 267.8784l0 222.8224c-31.6416-3.1744-58.4704-15.36-80.5888-36.7616C390.3488 432.5376 379.2896 407.6544 379.2896 379.2896c0-28.4672 11.0592-53.3504 33.1776-74.6496C434.5856 283.2384 461.4144 271.0528 493.056 267.8784zM530.944 756.1216 530.944 533.2992C562.5856 536.576 589.4144 548.7616 611.5328 570.0608c22.1184 21.2992 33.1776 46.1824 33.1776 74.6496 0 28.4672-11.0592 53.3504-33.1776 74.6496C589.4144 740.7616 562.5856 752.9472 530.944 756.1216z"  /></svg>