<svg xmlns="http://www.w3.org/2000/svg" xmlns:xlink="http://www.w3.org/1999/xlink" viewBox="0 0 24 24">
  <path
    d="M7.5,8.9c0-2,1.6-3.6,3.6-4l0,0l0-0.9C11.1,3.4,11.5,3,12,3s0.9,0.4,0.9,0.9v0.9l0,0.1c2,0.4,3.6,2,3.6,4
	c0,0.5-0.4,0.9-0.9,0.9c-0.5,0-0.8-0.3-0.9-0.8l0-0.1c0-1.2-1.2-2.3-2.7-2.3s-2.7,1-2.7,2.3c0,1.2,1.1,2.2,2.5,2.2l0.2,0
	c2.5,0,4.5,1.8,4.5,4c0,2-1.6,3.6-3.6,4l0,1c0,0.5-0.4,0.9-0.9,0.9s-0.9-0.4-0.9-0.9l0-1c-2-0.4-3.6-2-3.6-4c0-0.5,0.4-0.9,0.9-0.9
	c0.5,0,0.9,0.4,0.9,0.9c0,1.2,1.2,2.2,2.7,2.2s2.7-1,2.7-2.2c0-1.2-1.1-2.2-2.5-2.2l-0.2,0C9.5,12.9,7.5,11.1,7.5,8.9z"
  />
</svg>
