<svg class="svg-icon" style="width: 1em; height: 1em;vertical-align: middle;fill: currentColor;overflow: hidden;" viewBox="0 0 1024 1024" version="1.1" xmlns="http://www.w3.org/2000/svg"><path d="M980.650667 27.221333a21.333333 21.333333 0 0 0-30.634667-23.850666L76.074667 461.610667a62.336 62.336 0 0 0-4.266667 107.818666l194.56 122.965334a10.666667 10.666667 0 0 0 12.8-1.024L797.866667 227.669333a10.624 10.624 0 0 1 15.402666 14.592L398.762667 762.197333a10.666667 10.666667 0 0 0 2.645333 15.658667L675.84 951.466667a62.037333 62.037333 0 0 0 93.44-38.186667zM336.426667 818.432a10.709333 10.709333 0 0 0-16.426667 9.002667v152.96a42.666667 42.666667 0 0 0 72.832 30.165333l86.101333-86.058667a10.709333 10.709333 0 0 0-1.834666-16.554666z"  /></svg>