<svg viewBox="0 0 24 24" fill="currentColor" xmlns="http://www.w3.org/2000/svg">
<g clip-path="url(#clip0_18346_189)">
<path d="M10.7531 10.4953C10.8914 10.6279 11.072 10.7073 11.2633 10.7198L15.1551 10.9713C15.1729 10.9725 15.1906 10.973 15.2083 10.973C15.6331 10.973 15.9907 10.6428 16.0185 10.2127C16.0474 9.76493 15.7078 9.37833 15.2598 9.34937L11.6641 9.11693L11.4218 8.8844L10.5439 10.2946L10.7531 10.4953Z" fill="currentColor"/>
<path d="M13.17 20.7306L12.9028 20.9323L12.6535 20.7306L12.3685 20.9323L12.0894 20.7306L11.8974 20.9323V18.2249H9.29297V23.8591H16.0694V18.2249H13.4649V20.9323L13.17 20.7306Z" fill="currentColor"/>
<path d="M20.7549 20.9323L20.4601 20.7306L20.1929 20.9323L19.9435 20.7306L19.6585 20.9323L19.3795 20.7306L19.1875 20.9323V18.2249H16.583V23.8591H23.3594V18.2249H20.7549V20.9323Z" fill="currentColor"/>
<path d="M16.0694 12.037H13.4649V14.7444L13.17 14.5427L12.9028 14.7444L12.6535 14.5427L12.3685 14.7444L12.0894 14.5427L11.8974 14.7444V12.037H9.29297V17.6713H16.0694V12.037Z" fill="currentColor"/>
<path d="M20.7549 14.7444L20.4601 14.5427L20.1929 14.7444L19.9435 14.5427L19.6585 14.7444L19.3795 14.5427L19.1875 14.7444V12.037H16.583V17.6713H23.3594V12.037H20.7549V14.7444Z" fill="currentColor"/>
<path d="M6.7601 0.0458924C5.52297 -0.204572 4.31689 0.595288 4.0664 1.83255C3.81592 3.0698 4.61591 4.2758 5.85306 4.52626C7.09042 4.77677 8.29629 3.97686 8.54677 2.73961C8.79726 1.50235 7.99746 0.296398 6.7601 0.0458924Z" fill="currentColor"/>
<path d="M6.9714 22.7441V12.8469L7.47399 10.3644L6.32728 9.93417C6.29844 9.92335 6.27097 9.91019 6.24423 9.89587L1.89463 10.2312L1.51075 12.1274C1.50303 12.1655 1.49921 12.2035 1.49713 12.2412C1.48438 12.313 1.47656 12.3865 1.47656 12.462V22.7441C1.47656 23.438 2.03904 24 2.73247 24C3.4261 24 3.98858 23.438 3.98858 22.7441V13.4301L4.4594 13.5254V22.7441C4.4594 23.438 5.02188 24 5.71531 24C6.40892 24 6.9714 23.438 6.9714 22.7441Z" fill="currentColor"/>
<path d="M9.61887 10.9196C9.74161 10.9657 9.8798 10.9187 9.94907 10.8074L12.5698 6.59714C12.6615 6.44972 12.5954 6.2552 12.4328 6.19419L9.15704 4.96502C8.95533 4.88934 8.72824 4.9665 8.61441 5.1494L7.00281 7.73854L8.07287 7.65605C8.10024 7.65391 8.12743 7.65292 8.15431 7.65292C8.69706 7.65292 9.15487 8.07721 9.19654 8.61891C9.21807 8.89747 9.12978 9.1678 8.94794 9.38004C8.76609 9.59229 8.51244 9.721 8.23377 9.74249L6.78027 9.85454L9.61887 10.9196ZM8.91193 5.62669C8.97323 5.52051 9.10721 5.4831 9.21116 5.54313C9.31512 5.60315 9.34971 5.73787 9.28841 5.84405C9.22711 5.95022 9.09315 5.98764 8.98918 5.92761C8.88521 5.86758 8.85063 5.73286 8.91193 5.62669Z" fill="currentColor"/>
<path d="M0.826627 9.73315C0.981684 9.92093 1.21183 10.0284 1.4532 10.0284C1.47403 10.0284 1.49487 10.0276 1.51579 10.026L8.21595 9.50949C8.66346 9.47497 8.99827 9.08421 8.96374 8.63675C8.92931 8.18925 8.54084 7.85454 8.09095 7.88891L2.58321 8.31355C2.78206 7.75026 2.97035 7.34358 3.1352 7.04984L3.37708 7.09564C3.24583 7.32045 3.09349 7.62954 2.92893 8.05255L6.71382 7.76078L8.02554 5.65336C8.01058 5.64421 7.99532 5.63576 7.97993 5.62767C7.8887 5.55832 7.78141 5.50724 7.66153 5.48297L3.81491 4.7042C3.73337 4.68769 3.6523 4.6847 3.57381 4.69326C3.07518 4.71487 2.26889 5.06253 1.47659 6.73584C1.20137 7.31709 0.927835 8.05779 0.669487 9.00102C0.599648 9.25613 0.658282 9.52923 0.826627 9.73315Z" fill="currentColor"/>
</g>
<defs>
<clipPath id="clip0_18346_189">
<rect width="24" height="24" fill="white"/>
</clipPath>
</defs>
</svg>
