<svg viewBox="0 0 24 24" fill="currentColor" xmlns="http://www.w3.org/2000/svg">
<g clip-path="url(#clip0_4927_124)">
<path d="M0.829915 4.15725L9.06623 10.8584C9.09356 10.8814 9.12384 10.9009 9.15609 10.917C9.26545 10.9722 9.3817 11.0005 9.5008 11.0005C9.62774 11.0005 9.75473 10.9673 9.94026 10.855L18.1708 4.15772C18.2928 4.05858 18.3612 3.9082 18.3554 3.75145C18.3495 3.5947 18.2704 3.44967 18.1415 3.35986C17.8036 3.1245 17.409 3 16.9999 3H1.99987C1.5907 3 1.19615 3.1245 0.859258 3.35939C0.730352 3.44925 0.651227 3.59423 0.645368 3.75098C0.639508 3.90773 0.707852 4.05811 0.829915 4.15725Z" fill="currentColor"/>
<path d="M13.1973 11.6108L14.6114 10.1967C14.9375 9.87059 15.3878 9.707 15.8565 9.76902C16.0294 9.78561 16.2071 9.7197 16.3155 9.58006C16.6026 9.21139 17.0342 8.99998 17.5 8.99998H18.5C18.7763 8.99998 19 8.77634 19 8.49997V5.82373C19 5.63084 18.8887 5.45506 18.7148 5.37209C18.541 5.29006 18.335 5.3135 18.1845 5.43608L10.5127 11.6787L10.4258 11.7368C9.8467 12.0908 9.13772 12.1089 8.48925 11.6792L0.815437 5.43552C0.666 5.31345 0.459 5.29002 0.285141 5.37153C0.111328 5.45459 0 5.63037 0 5.82322V15C0 16.103 0.897469 17 2.00002 17H11.5C11.7764 17 12 16.7764 12 16.5V14.5C12 14.0332 12.212 13.6015 12.5801 13.3154C12.7198 13.207 12.792 13.0332 12.7696 12.8579C12.711 12.3955 12.8672 11.9409 13.1973 11.6108Z" fill="currentColor"/>
<path d="M23.6212 14.0152L22.6632 13.7754L23.171 12.9287C23.2892 12.7319 23.2579 12.48 23.0958 12.3179L21.6817 10.9038C21.5186 10.7397 21.2667 10.7109 21.0704 10.8286L20.2247 11.3364L19.9854 10.3784C19.9297 10.1562 19.7296 9.99994 19.5001 9.99994H17.5C17.2705 9.99994 17.0703 10.1562 17.0147 10.3784L16.7755 11.3364L15.9297 10.8286C15.7334 10.7109 15.4815 10.7417 15.3184 10.9038L13.9043 12.3179C13.7422 12.48 13.711 12.7319 13.8291 12.9287L14.3369 13.7754L13.3789 14.0152C13.1562 14.0708 13 14.2705 13 14.5V16.5C13 16.7295 13.1562 16.9292 13.3789 16.9849L14.3369 17.2246L13.8291 18.0713C13.711 18.2681 13.7422 18.5201 13.9043 18.6822L15.3184 20.0963C15.4815 20.2593 15.7334 20.2882 15.9297 20.1714L16.7755 19.6636L17.0147 20.6217C17.0704 20.8439 17.2705 21.0001 17.5 21.0001H19.5001C19.7296 21.0001 19.9298 20.8439 19.9855 20.6217L20.2247 19.6636L21.0704 20.1714C21.2667 20.2882 21.5187 20.2593 21.6818 20.0963L23.0958 18.6822C23.2579 18.5201 23.2892 18.2681 23.171 18.0713L22.6632 17.2246L23.6213 16.9849C23.8439 16.9292 24.0002 16.7295 24.0002 16.5V14.5C24.0001 14.2705 23.8439 14.0708 23.6212 14.0152ZM18.5001 18C17.1212 18 16.0001 16.8784 16.0001 15.5C16.0001 14.1216 17.1213 13 18.5001 13C19.879 13 21.0001 14.1216 21.0001 15.5C21.0001 16.8785 19.879 18 18.5001 18Z" fill="currentColor"/>
</g>
<defs>
<clipPath id="clip0_4927_124">
<rect width="24" height="24" fill="white"/>
</clipPath>
</defs>
</svg>
