<?xml version="1.0" standalone="no"?>
<!DOCTYPE svg PUBLIC "-//W3C//DTD SVG 20010904//EN"
 "http://www.w3.org/TR/2001/REC-SVG-20010904/DTD/svg10.dtd">
<svg version="1.0" xmlns="http://www.w3.org/2000/svg"
 width="512.000000pt" height="512.000000pt" viewBox="0 0 512.000000 512.000000"
 preserveAspectRatio="xMidYMid meet">

<g transform="translate(0.000000,512.000000) scale(0.100000,-0.100000)"
fill="#000000" stroke="none">
<path d="M3650 4835 c-504 -102 -823 -588 -713 -1088 8 -38 11 -73 7 -77 -11
-10 -1031 -550 -1039 -550 -4 0 -25 15 -48 34 -95 77 -220 137 -357 172 -98
25 -305 25 -402 1 -286 -71 -507 -250 -627 -509 -60 -127 -72 -184 -78 -353
-4 -137 -2 -159 21 -247 81 -316 313 -557 631 -654 82 -25 104 -28 250 -28
145 0 168 3 248 27 136 42 242 100 354 194 28 23 54 43 58 43 6 0 869 -370
956 -410 25 -11 26 -14 16 -54 -18 -73 -11 -281 12 -368 79 -301 266 -517 547
-634 133 -56 333 -78 480 -55 359 58 649 324 740 679 23 88 25 111 21 247 -4
129 -8 162 -32 235 -53 164 -124 278 -246 396 -324 310 -836 336 -1182 60
l-68 -54 -347 150 c-191 83 -417 180 -502 217 l-155 67 5 54 c8 84 3 213 -10
276 -7 30 -10 57 -8 58 1 2 243 130 536 285 l533 282 87 -55 c103 -65 219
-110 339 -131 278 -49 560 39 771 239 122 116 194 231 247 396 24 73 28 106
32 235 4 136 2 159 -21 247 -90 350 -375 615 -730 677 -80 15 -246 12 -326 -4z
m272 -436 c163 -34 311 -174 352 -334 74 -282 -110 -550 -405 -590 -66 -8
-173 11 -245 46 -165 78 -264 236 -264 419 0 140 47 248 149 342 117 109 260
149 413 117z m-2546 -1500 c224 -41 384 -232 384 -458 0 -138 -46 -246 -142
-338 -120 -113 -281 -157 -431 -118 -301 78 -444 396 -302 674 57 114 193 215
320 239 70 13 102 14 171 1z m2524 -1260 c150 -24 280 -123 346 -264 68 -141
57 -315 -26 -443 -163 -252 -493 -296 -711 -95 -102 95 -149 203 -149 343 0
220 150 409 363 455 78 17 97 17 177 4z"/>
</g>
</svg>
