<?xml version="1.0" standalone="no"?>
<!DOCTYPE svg PUBLIC "-//W3C//DTD SVG 20010904//EN"
 "http://www.w3.org/TR/2001/REC-SVG-20010904/DTD/svg10.dtd">
<svg version="1.0" xmlns="http://www.w3.org/2000/svg"
 width="512.000000pt" height="510.000000pt" viewBox="0 0 512.000000 510.000000"
 preserveAspectRatio="xMidYMid meet">

<g transform="translate(0.000000,510.000000) scale(0.100000,-0.100000)"
fill="#000000" stroke="none">
<path d="M966 5090 c-181 -23 -325 -75 -462 -166 -280 -186 -450 -505 -494
-924 -59 -571 142 -1222 582 -1883 348 -524 854 -1045 1351 -1391 228 -159
627 -395 817 -484 403 -187 762 -263 1100 -232 154 14 384 59 509 100 352 115
573 314 689 623 100 268 76 491 -69 621 -71 64 -1003 600 -1073 617 -176 42
-325 -51 -553 -346 -143 -185 -212 -245 -285 -245 -43 0 -271 127 -469 262
-383 259 -703 585 -976 993 -102 153 -224 366 -230 400 -14 85 45 157 268 327
252 191 329 290 337 429 3 38 -1 84 -9 106 -6 21 -81 153 -164 293 -84 140
-234 392 -333 560 -132 224 -188 310 -210 323 -36 21 -217 31 -326 17z"/>
</g>
</svg>
