<svg viewBox="0 0 24 24" fill="currentColor" xmlns="http://www.w3.org/2000/svg">
<g clip-path="url(#clip0_7259_1341)">
<path d="M8.02965 16.5024C8.54107 16.5024 9.0436 16.4527 9.53357 16.3586C8.46995 15.4868 7.59615 14.3709 7.00368 13.0689C6.82222 13.0275 6.64286 12.9763 6.46559 12.913C4.04342 12.0512 2.77377 9.37859 3.63606 6.95538C4.29704 5.10057 6.06294 3.85393 8.03017 3.85393C8.56094 3.85393 9.087 3.94544 9.59371 4.12585C12.0164 4.98867 13.2861 7.6608 12.4232 10.0835C12.3579 10.267 12.2815 10.4438 12.1958 10.6153C12.1973 10.6195 12.1989 10.6242 12.201 10.6289C12.6789 11.7307 13.6866 12.4853 14.8506 12.662C15.1288 12.2045 15.3636 11.7145 15.5482 11.1973C17.0239 7.05107 14.8517 2.47812 10.7065 1.00192C9.8421 0.694439 8.9411 0.538086 8.03017 0.538086C4.66308 0.538086 1.64164 2.67056 0.511609 5.84365C-0.799878 9.52763 0.769409 13.5494 4.04447 15.4351L3.06608 18.183L2.7335 17.4813C2.39308 16.7654 1.53706 16.46 0.820655 16.7999C0.104253 17.1398 -0.20061 17.9969 0.139812 18.7127L2.00612 22.642C2.25189 23.1597 2.76645 23.4619 3.30349 23.4619C3.51004 23.4619 3.71921 23.4175 3.91844 23.3228L7.65158 21.5496C8.36798 21.2097 8.67284 20.3526 8.33294 19.6373C7.99305 18.9203 7.13702 18.6155 6.42062 18.9564L5.71938 19.2895L6.74901 16.3972C7.17154 16.4668 7.60033 16.5024 8.02965 16.5024Z" fill="currentColor"/>
<path d="M23.881 17.3563C23.5657 16.6284 22.7217 16.2958 21.9943 16.6096L20.4141 17.2946L19.8043 15.8885C21.1451 14.9959 22.1842 13.7225 22.7897 12.194C23.5741 10.2122 23.5401 8.04309 22.6919 6.08737C21.4264 3.16424 18.5504 1.27649 15.3653 1.27649C14.7545 1.27649 14.288 1.32303 13.6987 1.46056C14.8565 2.19735 15.6921 3.21496 16.2731 4.69064C17.801 4.9589 19.0163 5.94984 19.6475 7.40565C20.1421 8.54876 20.162 9.81579 19.7045 10.9746C19.2459 12.1329 18.3647 13.0438 17.2206 13.5385C16.6292 13.7937 16.0074 13.9233 15.371 13.9233C15.0939 13.9233 14.8204 13.8988 14.5542 13.8512C13.0294 13.5808 11.7184 12.5653 11.0888 11.1116C10.6124 10.0114 10.5763 8.79662 10.9821 7.67443C10.9978 7.63051 11.0146 7.58658 11.0318 7.54213C11.1228 7.31309 11.2342 7.09713 11.3565 6.88848C10.8059 5.95298 9.95407 5.24546 8.91869 4.8768C8.85751 4.85536 8.79475 4.84543 8.73357 4.82713C8.424 5.292 8.15784 5.79035 7.94814 6.32163C7.93716 6.34935 7.92723 6.37654 7.91625 6.40373C7.16533 8.36417 7.2103 10.4998 8.04541 12.4288C8.99451 14.6204 10.8493 16.2305 13.0602 16.8982C13.7975 17.121 14.5746 17.2392 15.3715 17.2392C15.9807 17.2392 16.5805 17.1628 17.1683 17.0258L17.7791 18.4341L16.1983 19.1196C15.4709 19.4344 15.1367 20.2795 15.4515 21.0068C15.6853 21.5491 16.2145 21.8717 16.7698 21.8717C16.9602 21.8717 17.1531 21.8341 17.3393 21.753L18.919 21.0685L19.5031 22.4151C19.7369 22.9568 20.265 23.2805 20.8209 23.2805C21.0107 23.2805 21.2047 23.2423 21.3904 23.1618C22.1183 22.8465 22.4524 22.0014 22.1376 21.2746L21.5535 19.9275L23.1348 19.243C23.8627 18.9287 24.1969 18.0842 23.881 17.3563Z" fill="currentColor"/>
</g>
<defs>
<clipPath id="clip0_7259_1341">
<rect width="24" height="23.9995" fill="white"/>
</clipPath>
</defs>
</svg>
