<svg viewBox="0 0 24 24" fill="currentColor" xmlns="http://www.w3.org/2000/svg">
<path d="M12 11.1L6.73877 14.2575L12 17.4112L17.2613 14.2575L12 11.1Z" fill="currentColor"/>
<path d="M12.375 22.8749L17.625 19.7249V14.9137L12.375 18.0637V22.8749Z" fill="currentColor"/>
<path d="M6.375 19.7249L11.625 22.8749V18.0637L6.375 14.9137V19.7249Z" fill="currentColor"/>
<path d="M7.50021 9.57379C7.78835 9.75979 8.13153 9.84144 8.47256 9.80512C8.81359 9.76881 9.13188 9.61672 9.37439 9.37422C9.61689 9.13171 9.76898 8.81342 9.80529 8.47239C9.84161 8.13136 9.75996 7.78818 9.57396 7.50004C9.92635 7.4438 10.2471 7.26377 10.4787 6.99228C10.7103 6.72079 10.8375 6.37564 10.8375 6.01879C10.8375 5.66195 10.7103 5.31679 10.4787 5.0453C10.2471 4.77382 9.92635 4.59379 9.57396 4.53754C9.78308 4.25047 9.88356 3.8985 9.8575 3.54429C9.83144 3.19008 9.68055 2.85661 9.43167 2.60323C9.18278 2.34985 8.85207 2.193 8.49838 2.1606C8.1447 2.1282 7.79099 2.22235 7.50021 2.42629C7.44397 2.07391 7.26394 1.75312 6.99245 1.52153C6.72096 1.28994 6.37581 1.16272 6.01896 1.16272C5.66212 1.16272 5.31696 1.28994 5.04547 1.52153C4.77399 1.75312 4.59396 2.07391 4.53771 2.42629C4.24878 2.21986 3.89597 2.12262 3.54208 2.15189C3.18818 2.18116 2.85614 2.33503 2.60505 2.58612C2.35395 2.83722 2.20008 3.16926 2.17081 3.52316C2.14154 3.87705 2.23878 4.22986 2.44521 4.51879C2.09283 4.57504 1.77204 4.75507 1.54045 5.02655C1.30886 5.29804 1.18164 5.6432 1.18164 6.00004C1.18164 6.35689 1.30886 6.70204 1.54045 6.97353C1.77204 7.24502 2.09283 7.42505 2.44521 7.48129C2.23878 7.77023 2.14154 8.12303 2.17081 8.47693C2.20008 8.83082 2.35395 9.16286 2.60505 9.41396C2.85614 9.66506 3.18818 9.81893 3.54208 9.84819C3.89597 9.87746 4.24878 9.78023 4.53771 9.57379C4.59396 9.92618 4.77399 10.247 5.04547 10.4786C5.31696 10.7101 5.66212 10.8374 6.01896 10.8374C6.37581 10.8374 6.72096 10.7101 6.99245 10.4786C7.26394 10.247 7.44397 9.92618 7.50021 9.57379ZM6.37521 8.62504C6.37521 8.7245 6.3357 8.81988 6.26538 8.89021C6.19505 8.96053 6.09967 9.00004 6.00021 9.00004C5.90076 9.00004 5.80537 8.96053 5.73505 8.89021C5.66472 8.81988 5.62521 8.7245 5.62521 8.62504V7.87504C5.32684 7.87504 5.0407 7.75652 4.82972 7.54554C4.61874 7.33456 4.50021 7.04841 4.50021 6.75004C4.50021 6.65059 4.53972 6.5552 4.61005 6.48488C4.68037 6.41455 4.77576 6.37504 4.87521 6.37504C4.97467 6.37504 5.07005 6.41455 5.14038 6.48488C5.2107 6.5552 5.25021 6.65059 5.25021 6.75004C5.25021 6.8495 5.28972 6.94488 5.36005 7.01521C5.43037 7.08553 5.52576 7.12504 5.62521 7.12504H6.37521C6.47467 7.12504 6.57005 7.08553 6.64038 7.01521C6.7107 6.94488 6.75021 6.8495 6.75021 6.75004C6.75021 6.65059 6.7107 6.5552 6.64038 6.48488C6.57005 6.41455 6.47467 6.37504 6.37521 6.37504H5.62521C5.32684 6.37504 5.0407 6.25652 4.82972 6.04554C4.61874 5.83456 4.50021 5.54841 4.50021 5.25004C4.50021 4.95167 4.61874 4.66552 4.82972 4.45455C5.0407 4.24357 5.32684 4.12504 5.62521 4.12504V3.37504C5.62521 3.27558 5.66472 3.1802 5.73505 3.10988C5.80537 3.03955 5.90076 3.00004 6.00021 3.00004C6.09967 3.00004 6.19505 3.03955 6.26538 3.10988C6.3357 3.1802 6.37521 3.27558 6.37521 3.37504V4.12504C6.67358 4.12504 6.95973 4.24357 7.17071 4.45455C7.38169 4.66552 7.50021 4.95167 7.50021 5.25004C7.50021 5.3495 7.4607 5.44488 7.39038 5.51521C7.32005 5.58553 7.22467 5.62504 7.12521 5.62504C7.02576 5.62504 6.93037 5.58553 6.86005 5.51521C6.78972 5.44488 6.75021 5.3495 6.75021 5.25004C6.75021 5.15058 6.7107 5.0552 6.64038 4.98488C6.57005 4.91455 6.47467 4.87504 6.37521 4.87504H5.62521C5.52576 4.87504 5.43037 4.91455 5.36005 4.98488C5.28972 5.0552 5.25021 5.15058 5.25021 5.25004C5.25021 5.3495 5.28972 5.44488 5.36005 5.51521C5.43037 5.58553 5.52576 5.62504 5.62521 5.62504H6.37521C6.67358 5.62504 6.95973 5.74357 7.17071 5.95455C7.38169 6.16552 7.50021 6.45167 7.50021 6.75004C7.50021 7.04841 7.38169 7.33456 7.17071 7.54554C6.95973 7.75652 6.67358 7.87504 6.37521 7.87504V8.62504Z" fill="currentColor"/>
<path d="M21.574 4.51879C21.7708 4.231 21.8612 3.88363 21.8297 3.53639C21.7982 3.18915 21.6467 2.86373 21.4013 2.61608C21.1559 2.36842 20.8318 2.21401 20.4849 2.17937C20.1379 2.14474 19.7898 2.23205 19.5002 2.42629C19.444 2.07391 19.2639 1.75312 18.9925 1.52153C18.721 1.28994 18.3758 1.16272 18.019 1.16272C17.6621 1.16272 17.317 1.28994 17.0455 1.52153C16.774 1.75312 16.594 2.07391 16.5377 2.42629C16.2488 2.21986 15.896 2.12262 15.5421 2.15189C15.1882 2.18116 14.8561 2.33503 14.605 2.58612C14.3539 2.83722 14.2001 3.16926 14.1708 3.52316C14.1415 3.87705 14.2388 4.22986 14.4452 4.51879C14.0928 4.57504 13.772 4.75507 13.5404 5.02655C13.3089 5.29804 13.1816 5.6432 13.1816 6.00004C13.1816 6.35689 13.3089 6.70204 13.5404 6.97353C13.772 7.24502 14.0928 7.42505 14.4452 7.48129C14.2388 7.77023 14.1415 8.12303 14.1708 8.47693C14.2001 8.83082 14.3539 9.16286 14.605 9.41396C14.8561 9.66506 15.1882 9.81893 15.5421 9.84819C15.896 9.87746 16.2488 9.78023 16.5377 9.57379C16.594 9.92618 16.774 10.247 17.0455 10.4786C17.317 10.7101 17.6621 10.8374 18.019 10.8374C18.3758 10.8374 18.721 10.7101 18.9925 10.4786C19.2639 10.247 19.444 9.92618 19.5002 9.57379C19.7884 9.75979 20.1315 9.84144 20.4726 9.80512C20.8136 9.76881 21.1319 9.61672 21.3744 9.37422C21.6169 9.13171 21.769 8.81342 21.8053 8.47239C21.8416 8.13136 21.76 7.78818 21.574 7.50004C21.9263 7.4438 22.2471 7.26377 22.4787 6.99228C22.7103 6.72079 22.8375 6.37564 22.8375 6.01879C22.8375 5.66195 22.7103 5.31679 22.4787 5.0453C22.2471 4.77382 21.9263 4.59379 21.574 4.53754V4.51879ZM16.7215 3.59629C16.8262 3.49096 16.9598 3.41908 17.1054 3.38978C17.251 3.36048 17.402 3.37507 17.5393 3.43171C17.6767 3.48834 17.7941 3.58447 17.8767 3.7079C17.9593 3.83133 18.0034 3.97652 18.0034 4.12504C18.0034 4.27357 17.9593 4.41875 17.8767 4.54218C17.7941 4.66562 17.6767 4.76174 17.5393 4.81838C17.402 4.87501 17.251 4.8896 17.1054 4.8603C16.9598 4.831 16.8262 4.75913 16.7215 4.65379C16.5818 4.51327 16.5034 4.32318 16.5034 4.12504C16.5034 3.9269 16.5818 3.73681 16.7215 3.59629ZM19.279 8.38504C19.1743 8.49038 19.0406 8.56225 18.895 8.59155C18.7494 8.62085 18.5984 8.60626 18.4611 8.54963C18.3238 8.49299 18.2064 8.39687 18.1238 8.27343C18.0412 8.15 17.9971 8.00482 17.9971 7.85629C17.9971 7.70777 18.0412 7.56258 18.1238 7.43915C18.2064 7.31572 18.3238 7.21959 18.4611 7.16296C18.5984 7.10632 18.7494 7.09173 18.895 7.12103C19.0406 7.15033 19.1743 7.22221 19.279 7.32754C19.4187 7.46806 19.4971 7.65815 19.4971 7.85629C19.4971 8.05443 19.4187 8.24452 19.279 8.38504ZM19.8752 4.67254L16.6727 7.87504C16.6029 7.94432 16.5086 7.98338 16.4102 7.98379C16.3609 7.98408 16.3119 7.97462 16.2662 7.95596C16.2206 7.93729 16.179 7.9098 16.144 7.87504C16.0741 7.80478 16.0349 7.70974 16.0349 7.61067C16.0349 7.5116 16.0741 7.41655 16.144 7.34629L19.3277 4.16254C19.3601 4.12261 19.4003 4.08976 19.446 4.06604C19.4916 4.04231 19.5416 4.02822 19.5928 4.02464C19.6441 4.02106 19.6956 4.02806 19.7441 4.04521C19.7925 4.06236 19.837 4.08929 19.8746 4.12433C19.9122 4.15938 19.9422 4.20178 19.9628 4.24891C19.9833 4.29604 19.9939 4.34689 19.994 4.3983C19.994 4.44971 19.9835 4.50059 19.9631 4.54776C19.9427 4.59494 19.9128 4.63741 19.8752 4.67254Z" fill="currentColor"/>
</svg>
