<svg viewBox="0 0 96 96" fill="currentColor" xmlns="http://www.w3.org/2000/svg">
<g clip-path="url(#clip0_624_10)" filter="url(#filter0_d_624_10)">
<path d="M66.84 21.16L76 12H44V44L53.2 34.8C61.08 40.64 66.2 49.92 66.2 60.48C66.2 65.72 64.92 70.64 62.68 75C72 68.92 78.2 58.44 78.2 46.48C78.2 36.4 73.76 27.4 66.84 21.16Z" fill="currentColor"/>
<path d="M29.84 35.52C29.84 30.28 31.12 25.36 33.36 21C24 27.08 17.84 37.56 17.84 49.52C17.84 59.6 22.24 68.6 29.2 74.84L20 84H52V52L42.8 61.2C34.96 55.36 29.84 46.08 29.84 35.52Z" fill="currentColor"/>
</g>
<defs>
<filter id="filter0_d_624_10" x="-4" y="0" width="104" height="104" filterUnits="userSpaceOnUse" color-interpolation-filters="sRGB">
<feFlood flood-opacity="0" result="BackgroundImageFix"/>
<feColorMatrix in="SourceAlpha" type="matrix" values="0 0 0 0 0 0 0 0 0 0 0 0 0 0 0 0 0 0 127 0" result="hardAlpha"/>
<feOffset dy="4"/>
<feGaussianBlur stdDeviation="2"/>
<feComposite in2="hardAlpha" operator="out"/>
<feColorMatrix type="matrix" values="0 0 0 0 0 0 0 0 0 0 0 0 0 0 0 0 0 0 0.25 0"/>
<feBlend mode="normal" in2="BackgroundImageFix" result="effect1_dropShadow_624_10"/>
<feBlend mode="normal" in="SourceGraphic" in2="effect1_dropShadow_624_10" result="shape"/>
</filter>
<clipPath id="clip0_624_10">
<rect width="96" height="96" fill="white"/>
</clipPath>
</defs>
</svg>
