<svg viewBox="0 0 24 24" fill="currentColor" xmlns="http://www.w3.org/2000/svg">
<path d="M22.5 12C22.5 14.7848 21.3938 17.4555 19.4246 19.4246C17.4555 21.3938 14.7848 22.5 12 22.5C9.21523 22.5 6.54451 21.3938 4.57538 19.4246C2.60625 17.4555 1.5 14.7848 1.5 12C1.5 11.8011 1.57902 11.6103 1.71967 11.4697C1.86032 11.329 2.05109 11.25 2.25 11.25C2.44891 11.25 2.63968 11.329 2.78033 11.4697C2.92098 11.6103 3 11.8011 3 12C2.997 14.0085 3.66495 15.9606 4.89784 17.5462C6.13074 19.1318 7.85792 20.2602 9.80526 20.7523C11.7526 21.2444 13.8085 21.0719 15.6466 20.2623C17.4848 19.4527 18.9999 18.0524 19.9514 16.2835C20.9029 14.5146 21.2363 12.4786 20.8988 10.4987C20.5612 8.51868 19.572 6.70818 18.0881 5.35452C16.6043 4.00086 14.7108 3.18161 12.7082 3.0268C10.7056 2.87199 8.70874 3.39049 7.03445 4.50001H7.5C7.69891 4.50001 7.88968 4.57902 8.03033 4.71968C8.17098 4.86033 8.25 5.05109 8.25 5.25001C8.25 5.44892 8.17098 5.63968 8.03033 5.78034C7.88968 5.92099 7.69891 6.00001 7.5 6.00001H5.25C5.15149 6.00006 5.05394 5.9807 4.96292 5.94303C4.8719 5.90536 4.7892 5.85012 4.71954 5.78046C4.64989 5.71081 4.59465 5.6281 4.55698 5.53708C4.5193 5.44607 4.49994 5.34851 4.5 5.25001V3.00001C4.5 2.80109 4.57902 2.61033 4.71967 2.46968C4.86032 2.32902 5.05109 2.25001 5.25 2.25001C5.44891 2.25001 5.63968 2.32902 5.78033 2.46968C5.92098 2.61033 6 2.80109 6 3.00001V3.38545C7.57408 2.28833 9.41875 1.64361 11.3336 1.52134C13.2484 1.39907 15.16 1.80394 16.8609 2.69194C18.5617 3.57994 19.9867 4.91711 20.9809 6.55814C21.975 8.19918 22.5005 10.0813 22.5 12ZM18.75 12C18.75 13.335 18.3541 14.6401 17.6124 15.7501C16.8707 16.8601 15.8165 17.7253 14.5831 18.2362C13.3497 18.7471 11.9925 18.8808 10.6831 18.6203C9.37377 18.3599 8.17103 17.717 7.22703 16.773C6.28302 15.829 5.64015 14.6262 5.3797 13.3169C5.11925 12.0075 5.25292 10.6503 5.76381 9.41689C6.2747 8.18349 7.13987 7.12929 8.2499 6.38759C9.35993 5.64589 10.665 5.25001 12 5.25001C13.7896 5.25196 15.5054 5.96375 16.7708 7.22919C18.0363 8.49464 18.748 10.2104 18.75 12ZM14.666 12.876L12.75 11.5986V8.25001C12.75 8.05109 12.671 7.86033 12.5303 7.71968C12.3897 7.57902 12.1989 7.50001 12 7.50001C11.8011 7.50001 11.6103 7.57902 11.4697 7.71968C11.329 7.86033 11.25 8.05109 11.25 8.25001V12C11.25 12.1235 11.2805 12.245 11.3388 12.3539C11.397 12.4627 11.4813 12.5555 11.584 12.624L13.834 14.124C13.9995 14.232 14.201 14.2704 14.3946 14.2307C14.5882 14.191 14.7583 14.0764 14.8679 13.912C14.9776 13.7475 15.0179 13.5465 14.9801 13.3525C14.9423 13.1585 14.8294 12.9872 14.666 12.876Z" fill="currentColor"/>
</svg>
