<svg class="svg-icon" style="width: 1em; height: 1em;vertical-align: middle;fill: currentColor;overflow: hidden;" viewBox="0 0 1024 1024" version="1.1" xmlns="http://www.w3.org/2000/svg"><path d="M843.262693 180.705882C876.547081 180.705882 903.529412 207.660539 903.529412 240.850964L903.529412 903.619623C903.529412 936.836837 876.574753 963.764706 843.384329 963.764706L180.61567 963.764706C147.398458 963.764706 120.470588 936.810047 120.470588 903.619623L120.470588 210.922907C120.470588 194.234505 133.802476 180.705882 150.556809 180.705882L210.823529 180.705882C227.457047 180.705882 240.941176 167.221752 240.941176 150.588235 240.941176 133.954718 227.457047 120.470588 210.823529 120.470588L180.705882 120.470588C147.507659 120.470588 180.705882 120.470588 180.705882 120.470588 114.171814 120.470588 60.235294 174.284639 60.235294 240.919335L60.235294 903.551253C60.235294 970.07326 114.049345 1024 180.684041 1024L843.315959 1024C909.837966 1024 963.764706 970.185948 963.764706 903.551253L963.764706 240.919335C963.764706 174.397329 909.824238 120.470588 843.28832 120.470588L813.176471 120.470588C796.542955 120.470588 783.058824 133.954718 783.058824 150.588235 783.058824 167.221752 796.542955 180.705882 813.176471 180.705882L843.262693 180.705882ZM722.823529 120.470588C722.823529 54.071903 668.980019 0 602.560684 0L421.439316 0C355.006641 0 301.176471 53.93652 301.176471 120.470588L301.176471 150.588235C301.176471 167.221752 314.544635 180.705882 331.294118 180.705882 347.927635 180.705882 361.411765 167.337718 361.411765 150.588235L361.411765 120.470588C361.411765 87.174657 388.302613 60.235294 421.439316 60.235294L602.560684 60.235294C635.632562 60.235294 662.588235 87.258491 662.588235 120.470588L662.588235 150.588235C662.588235 167.221752 675.956399 180.705882 692.705882 180.705882 709.339398 180.705882 722.823529 167.337718 722.823529 150.588235L722.823529 120.470588ZM722.823529 361.411765 301.176471 361.411765C284.542953 361.411765 271.058824 374.895896 271.058824 391.529412 271.058824 408.162927 284.542953 421.647059 301.176471 421.647059L722.823529 421.647059C739.457045 421.647059 752.941176 408.162927 752.941176 391.529412 752.941176 374.895896 739.457045 361.411765 722.823529 361.411765ZM722.823529 542.117647 301.176471 542.117647C284.542953 542.117647 271.058824 555.601778 271.058824 572.235294 271.058824 588.86881 284.542953 602.352941 301.176471 602.352941L722.823529 602.352941C739.457045 602.352941 752.941176 588.86881 752.941176 572.235294 752.941176 555.601778 739.457045 542.117647 722.823529 542.117647ZM722.823529 722.823529 301.176471 722.823529C284.542953 722.823529 271.058824 736.307661 271.058824 752.941176 271.058824 769.574692 284.542953 783.058824 301.176471 783.058824L722.823529 783.058824C739.457045 783.058824 752.941176 769.574692 752.941176 752.941176 752.941176 736.307661 739.457045 722.823529 722.823529 722.823529Z"  /></svg>