<svg viewBox="0 0 24 24" fill="currentColor" xmlns="http://www.w3.org/2000/svg">
<g clip-path="url(#clip0_18346_200)">
<path d="M19.2656 0.411743V4.68754H23.5411L19.2656 0.411743Z" fill="currentColor"/>
<path d="M18.5625 6.09375C18.1742 6.09375 17.8594 5.77894 17.8594 5.39062V0H7.78125C6.61814 0 5.67188 0.946266 5.67188 2.10938V9.9698C5.90353 9.9488 6.13795 9.9375 6.375 9.9375C8.77163 9.9375 10.917 11.0332 12.3368 12.75H19.9688C20.3571 12.75 20.6719 13.0648 20.6719 13.4531C20.6719 13.8414 20.3571 14.1562 19.9688 14.1562H13.2632C13.7027 15.0139 13.9861 15.964 14.0771 16.9688H19.9688C20.3571 16.9688 20.6719 17.2836 20.6719 17.6719C20.6719 18.0602 20.3571 18.375 19.9688 18.375H14.0771C13.8668 20.6971 12.6261 22.7262 10.8168 24H21.8438C23.0069 24 23.9531 23.0537 23.9531 21.8906V6.09375H18.5625ZM19.9688 9.9375H9.65625C9.26794 9.9375 8.95312 9.62269 8.95312 9.23438C8.95312 8.84606 9.26794 8.53125 9.65625 8.53125H19.9688C20.3571 8.53125 20.6719 8.84606 20.6719 9.23438C20.6719 9.62269 20.3571 9.9375 19.9688 9.9375Z" fill="currentColor"/>
<path d="M6.375 11.3438C2.88567 11.3438 0.046875 14.1825 0.046875 17.6719C0.046875 21.1612 2.88567 24 6.375 24C9.86433 24 12.7031 21.1612 12.7031 17.6719C12.7031 14.1825 9.86433 11.3438 6.375 11.3438ZM5.98439 16.9688H6.76566C7.58409 16.9688 8.25 17.6347 8.25 18.4531V19.2344C8.25 19.9456 7.74703 20.5414 7.07812 20.6854V20.9531C7.07812 21.3414 6.76331 21.6562 6.375 21.6562C5.98669 21.6562 5.67188 21.3414 5.67188 20.9531V20.6854C5.00297 20.5414 4.5 19.9456 4.5 19.2344C4.5 18.846 4.81481 18.5312 5.20312 18.5312C5.59144 18.5312 5.90625 18.846 5.90625 19.2344C5.90625 19.2774 5.94131 19.3125 5.98439 19.3125H6.76566C6.80873 19.3125 6.8438 19.2774 6.8438 19.2344V18.4531C6.8438 18.4101 6.80873 18.375 6.76566 18.375H5.98439C5.16591 18.375 4.5 17.7091 4.5 16.8906V16.1094C4.5 15.3981 5.00297 14.8023 5.67188 14.6584V14.3906C5.67188 14.0023 5.98669 13.6875 6.375 13.6875C6.76331 13.6875 7.07812 14.0023 7.07812 14.3906V14.6584C7.74703 14.8023 8.25 15.3981 8.25 16.1094C8.25 16.4977 7.93519 16.8125 7.54688 16.8125C7.15856 16.8125 6.84375 16.4977 6.84375 16.1094C6.84375 16.0663 6.80869 16.0312 6.76561 16.0312H5.98434C5.94127 16.0312 5.9062 16.0663 5.9062 16.1094V16.8906C5.90625 16.9337 5.94131 16.9688 5.98439 16.9688Z" fill="currentColor"/>
<ellipse cx="6.5" cy="17.5" rx="3.5" ry="5.5" fill="currentColor"/>
<path d="M9.375 16.875H7.25C7.18097 16.875 7.125 16.819 7.125 16.75V14.625C7.125 14.2798 6.84515 14 6.5 14C6.15485 14 5.875 14.2798 5.875 14.625V16.75C5.875 16.819 5.81903 16.875 5.75 16.875H3.625C3.27985 16.875 3 17.1548 3 17.5C3 17.8452 3.27985 18.125 3.625 18.125H5.75C5.81903 18.125 5.875 18.181 5.875 18.25V20.375C5.875 20.7202 6.15485 21 6.5 21C6.84515 21 7.125 20.7202 7.125 20.375V18.25C7.125 18.181 7.18097 18.125 7.25 18.125H9.375C9.72015 18.125 10 17.8452 10 17.5C10 17.1548 9.72015 16.875 9.375 16.875Z" fill="black"/>
</g>
<defs>
<clipPath id="clip0_18346_200">
<rect width="24" height="24" fill="white"/>
</clipPath>
</defs>
</svg>
