<svg  viewBox="0 0 96 96" fill="currentColor" xmlns="http://www.w3.org/2000/svg">
<g clip-path="url(#clip0_102_2)">
<path d="M80 24H48L40 16H16C11.6 16 8.04 19.6 8.04 24L8 72C8 76.4 11.6 80 16 80H80C84.4 80 88 76.4 88 72V32C88 27.6 84.4 24 80 24ZM80 72H16V32H80V72Z" fill="currentColor"/>
<g clip-path="url(#clip1_102_2)">
<path d="M40 16H16C11.6 16 8.04 19.6 8.04 24L8 72C8 76.4 11.6 80 16 80H80C84.4 80 88 76.4 88 72V32C88 27.6 84.4 24 80 24H48L40 16Z" fill="currentColor"/>
</g>
</g>
<defs>
<clipPath id="clip0_102_2">
<rect width="96" height="96" fill="white"/>
</clipPath>
<clipPath id="clip1_102_2">
<rect width="96" height="96" fill="white"/>
</clipPath>
</defs>
</svg>
