<svg viewBox="0 0 24 24" fill="currentColor" xmlns="http://www.w3.org/2000/svg">
<g clip-path="url(#clip0_7184_1281)">
<path d="M2.41916 16.5632H0.848098C0.637781 16.5632 0.467285 16.7337 0.467285 16.944V22.906C0.467285 23.1163 0.637781 23.2868 0.848098 23.2868H2.41916C2.62948 23.2868 2.79997 23.1163 2.79997 22.906V16.944C2.79997 16.7337 2.62948 16.5632 2.41916 16.5632Z" fill="currentColor"/>
<path d="M23.4411 18.6426L22.8698 18.2301C22.7272 18.1283 22.5681 18.0517 22.3996 18.0036C22.2238 17.9536 22.0404 17.9358 21.8583 17.9513C22.1343 17.514 22.3566 17.1246 22.4798 16.8778C22.5267 16.7876 22.5511 16.6873 22.5508 16.5856C22.5506 16.4838 22.5258 16.3837 22.4785 16.2936C22.4569 16.2539 22.4318 16.2163 22.4035 16.1811C22.3357 16.096 22.2516 16.0252 22.1562 15.973C22.0607 15.9207 21.9558 15.8879 21.8476 15.8766C21.5854 15.8498 21.323 15.9263 21.1163 16.0898L16.6023 19.9798C16.322 19.9941 16.041 19.9798 15.7636 19.9373C15.7141 19.9315 10.5766 19.2403 10.5766 19.2403C10.5147 19.232 10.4551 19.2115 10.4011 19.1801C10.3471 19.1487 10.2998 19.1069 10.262 19.0572C10.2242 19.0076 10.1965 18.9509 10.1805 18.8905C10.1646 18.8301 10.1607 18.7672 10.169 18.7053C10.1774 18.6434 10.1979 18.5838 10.2293 18.5298C10.2607 18.4758 10.3025 18.4286 10.3522 18.3907C10.4018 18.3529 10.4585 18.3252 10.5189 18.3093C10.5793 18.2933 10.6422 18.2894 10.7041 18.2978L11.8535 18.4512C12.3139 18.5127 12.7823 18.4391 13.2017 18.2394C13.6211 18.0397 13.9735 17.7224 14.216 17.3262C14.2375 17.2927 14.25 17.2543 14.2523 17.2146C14.2547 17.1749 14.2467 17.1352 14.2293 17.0995C14.2131 17.0636 14.1883 17.0322 14.157 17.0083C14.1258 16.9844 14.0891 16.9686 14.0502 16.9624L7.97933 15.9844C7.61194 15.9251 7.23534 15.9673 6.89014 16.1063L3.75195 17.3706V22.2205L10.3595 23.5705C10.9103 23.685 11.4788 23.6844 12.0293 23.5686C15.5369 22.803 19.2614 21.3141 23.4183 19.0157C23.4516 18.9989 23.4798 18.9733 23.4999 18.9418C23.52 18.9103 23.5312 18.874 23.5325 18.8367C23.535 18.7992 23.5279 18.7618 23.5119 18.7278C23.4959 18.6939 23.4716 18.6645 23.4411 18.6426Z" fill="currentColor"/>
<path d="M8.21258 9.43703L10.4832 14.072H11.4376V10.9125C11.1181 10.7821 10.8538 10.5447 10.6899 10.241C10.526 9.93732 10.4727 9.58611 10.5392 9.24747C10.6056 8.90882 10.7876 8.60378 11.0541 8.3845C11.3206 8.16522 11.655 8.04533 12.0001 8.04533C12.3452 8.04533 12.6796 8.16522 12.946 8.3845C13.2125 8.60378 13.3945 8.90882 13.461 9.24747C13.5274 9.58611 13.4741 9.93732 13.3103 10.241C13.1464 10.5447 12.8821 10.7821 12.5626 10.9125V14.0718H13.517L15.7857 9.43685C16.033 8.81815 16.1248 8.14828 16.0533 7.48586C15.9818 6.82343 15.7491 6.18862 15.3754 5.63695C15.0018 5.08529 14.4987 4.63357 13.9101 4.32133C13.3215 4.00909 12.6654 3.84583 11.9991 3.84583C11.3329 3.84583 10.6767 4.00909 10.0881 4.32133C9.49957 4.63357 8.99646 5.08529 8.62284 5.63695C8.24922 6.18862 8.01647 6.82343 7.94495 7.48586C7.87343 8.14828 7.96532 8.81833 8.21258 9.43703Z" fill="currentColor"/>
<path d="M11.9999 3.00155C12.0917 3.00155 12.1827 2.98346 12.2676 2.9483C12.3524 2.91315 12.4296 2.86162 12.4945 2.79666C12.5595 2.7317 12.611 2.65458 12.6462 2.5697C12.6813 2.48483 12.6994 2.39386 12.6994 2.30199V1.04368C12.6994 0.858143 12.6257 0.680207 12.4945 0.549013C12.3633 0.41782 12.1854 0.344116 11.9999 0.344116C11.8143 0.344116 11.6364 0.41782 11.5052 0.549013C11.374 0.680207 11.3003 0.858143 11.3003 1.04368V2.30199C11.3003 2.39386 11.3184 2.48483 11.3535 2.5697C11.3887 2.65458 11.4402 2.7317 11.5052 2.79666C11.6364 2.92785 11.8143 3.00155 11.9999 3.00155Z" fill="currentColor"/>
<path d="M16.7855 4.57384L17.6753 3.68415C17.7417 3.6195 17.7945 3.54232 17.8308 3.4571C17.867 3.37187 17.886 3.28029 17.8866 3.18767C17.8872 3.09506 17.8694 3.00324 17.8342 2.91756C17.799 2.83188 17.7472 2.75403 17.6817 2.68854C17.6162 2.62305 17.5384 2.57121 17.4527 2.53604C17.367 2.50087 17.2752 2.48307 17.1826 2.48366C17.09 2.48425 16.9984 2.50323 16.9131 2.53949C16.8279 2.57575 16.7507 2.62858 16.6861 2.6949L15.7962 3.58478C15.7299 3.64943 15.6771 3.7266 15.6408 3.81183C15.6045 3.89706 15.5856 3.98863 15.585 4.08125C15.5844 4.17387 15.6022 4.26568 15.6374 4.35137C15.6725 4.43705 15.7244 4.5149 15.7899 4.58039C15.8554 4.64588 15.9332 4.69772 16.0189 4.73289C16.1046 4.76806 16.1964 4.78586 16.289 4.78527C16.3816 4.78468 16.4732 4.7657 16.5584 4.72944C16.6436 4.69318 16.7208 4.64035 16.7855 4.57403V4.57384Z" fill="currentColor"/>
<path d="M7.21441 12.1661L6.32454 13.056C6.25822 13.1207 6.20539 13.1979 6.16913 13.2831C6.13287 13.3683 6.11389 13.4599 6.1133 13.5525C6.1127 13.6451 6.13051 13.7369 6.16568 13.8226C6.20085 13.9083 6.25269 13.9861 6.31818 14.0516C6.38367 14.1171 6.46152 14.169 6.5472 14.2041C6.63288 14.2393 6.72469 14.2571 6.81731 14.2565C6.90993 14.2559 7.00151 14.2369 7.08674 14.2007C7.17196 14.1644 7.24914 14.1116 7.31379 14.0453L8.20366 13.1556C8.26999 13.0909 8.32281 13.0138 8.35908 12.9285C8.39534 12.8433 8.41432 12.7517 8.41491 12.6591C8.4155 12.5665 8.39769 12.4747 8.36252 12.389C8.32735 12.3033 8.27552 12.2255 8.21003 12.16C8.14453 12.0945 8.06669 12.0426 7.98101 12.0075C7.89532 11.9723 7.80351 11.9545 7.71089 11.9551C7.61827 11.9557 7.52669 11.9747 7.44147 12.0109C7.35624 12.0472 7.27906 12.0998 7.21441 12.1661Z" fill="currentColor"/>
<path d="M17.3687 8.37C17.3687 8.46187 17.3867 8.55284 17.4219 8.63771C17.4571 8.72259 17.5086 8.79971 17.5735 8.86467C17.6385 8.92963 17.7156 8.98116 17.8005 9.01631C17.8854 9.05147 17.9763 9.06956 18.0682 9.06956H19.3265C19.4193 9.07108 19.5115 9.05411 19.5977 9.01964C19.6839 8.98518 19.7624 8.9339 19.8286 8.86879C19.8948 8.80369 19.9473 8.72607 19.9832 8.64045C20.0191 8.55483 20.0375 8.46293 20.0375 8.37009C20.0375 8.27726 20.0191 8.18536 19.9832 8.09974C19.9473 8.01412 19.8948 7.9365 19.8286 7.8714C19.7624 7.80629 19.6839 7.75501 19.5977 7.72055C19.5115 7.68608 19.4193 7.66911 19.3265 7.67063H18.0682C17.8827 7.67063 17.7048 7.7443 17.5736 7.87546C17.4424 8.00661 17.3687 8.1845 17.3687 8.37Z" fill="currentColor"/>
<path d="M4.67342 9.06956H5.93173C6.02455 9.07108 6.11674 9.05411 6.20294 9.01964C6.28913 8.98518 6.3676 8.9339 6.43378 8.86879C6.49996 8.80369 6.55252 8.72607 6.58839 8.64045C6.62427 8.55483 6.64275 8.46293 6.64275 8.37009C6.64275 8.27726 6.62427 8.18536 6.58839 8.09974C6.55252 8.01412 6.49996 7.9365 6.43378 7.8714C6.3676 7.80629 6.28913 7.75501 6.20294 7.72055C6.11674 7.68608 6.02455 7.66911 5.93173 7.67063H4.67342C4.5806 7.66911 4.4884 7.68608 4.40221 7.72055C4.31601 7.75501 4.23754 7.80629 4.17137 7.8714C4.10519 7.9365 4.05263 8.01412 4.01675 8.09974C3.98088 8.18536 3.9624 8.27726 3.9624 8.37009C3.9624 8.46293 3.98088 8.55483 4.01675 8.64045C4.05263 8.72607 4.10519 8.80369 4.17137 8.86879C4.23754 8.9339 4.31601 8.98518 4.40221 9.01964C4.4884 9.05411 4.5806 9.07108 4.67342 9.06956Z" fill="currentColor"/>
<path d="M15.7962 12.1661C15.665 12.2973 15.5913 12.4752 15.5913 12.6608C15.5913 12.8463 15.665 13.0242 15.7962 13.1554L16.686 14.0451C16.7507 14.1114 16.8279 14.1642 16.9131 14.2005C16.9983 14.2367 17.0899 14.2557 17.1825 14.2563C17.2751 14.2569 17.3669 14.2391 17.4526 14.2039C17.5383 14.1688 17.6162 14.1169 17.6817 14.0514C17.7471 13.9859 17.799 13.9081 17.8342 13.8224C17.8693 13.7367 17.8871 13.6449 17.8865 13.5523C17.8859 13.4597 17.867 13.3681 17.8307 13.2829C17.7944 13.1976 17.7416 13.1205 17.6753 13.0558L16.7854 12.1659C16.6542 12.0348 16.4763 11.9611 16.2908 11.9612C16.1052 11.9612 15.9273 12.0349 15.7962 12.1661Z" fill="currentColor"/>
<path d="M7.21441 4.5739C7.27906 4.64023 7.35624 4.69305 7.44147 4.72932C7.52669 4.76558 7.61827 4.78456 7.71089 4.78515C7.80351 4.78574 7.89532 4.76793 7.98101 4.73276C8.06669 4.69759 8.14453 4.64576 8.21003 4.58027C8.27552 4.51477 8.32735 4.43693 8.36252 4.35124C8.39769 4.26556 8.4155 4.17375 8.41491 4.08113C8.41432 3.98851 8.39534 3.89693 8.35908 3.81171C8.32281 3.72648 8.26999 3.6493 8.20366 3.58465L7.31379 2.69478C7.24914 2.62846 7.17196 2.57563 7.08674 2.53937C7.00151 2.5031 6.90993 2.48413 6.81731 2.48353C6.72469 2.48294 6.63288 2.50075 6.5472 2.53592C6.46152 2.57109 6.38367 2.62293 6.31818 2.68842C6.25269 2.75391 6.20085 2.83176 6.16568 2.91744C6.13051 3.00312 6.1127 3.09493 6.1133 3.18755C6.11389 3.28017 6.13287 3.37175 6.16913 3.45698C6.20539 3.5422 6.25822 3.61938 6.32454 3.68403L7.21441 4.5739Z" fill="currentColor"/>
</g>
<defs>
<clipPath id="clip0_7184_1281">
<rect width="24" height="24" fill="white"/>
</clipPath>
</defs>
</svg>
