<svg viewBox="0 0 460.054 460.054" xmlns="http://www.w3.org/2000/svg">
    <path
        d="M40.003 69.679C17.914 69.679 0 87.592 0 109.697c0 22.089 17.914 39.987 40.003 39.987s40.003-17.898 40.003-39.987c0-22.105-17.914-40.018-40.003-40.018zM40.003 190.032C17.914 190.032 0 207.93 0 230.035c0 22.089 17.914 40.002 40.003 40.002s40.003-17.913 40.003-40.002c0-22.105-17.914-40.003-40.003-40.003zM40.003 310.37C17.914 310.37 0 328.283 0 350.372c0 22.089 17.914 40.003 40.003 40.003s40.003-17.914 40.003-40.003-17.914-40.002-40.003-40.002zM429.973 79.601H145.419c-16.611 0-30.081 13.47-30.081 30.096 0 16.612 13.469 30.081 30.081 30.081h284.554c16.61 0 30.081-13.469 30.081-30.081 0-16.626-13.471-30.096-30.081-30.096zM429.973 199.939H145.419c-16.611 0-30.081 13.469-30.081 30.096 0 16.612 13.469 30.081 30.081 30.081h284.554c16.61 0 30.081-13.469 30.081-30.081 0-16.627-13.471-30.096-30.081-30.096zM429.973 320.291H145.419c-16.611 0-30.081 13.469-30.081 30.081 0 16.611 13.469 30.08 30.081 30.08h284.554c16.61 0 30.081-13.469 30.081-30.08 0-16.613-13.471-30.081-30.081-30.081z" />
</svg>