<svg class="svg-icon" style="width: 1em;height: 1em;vertical-align: middle;fill: currentColor;overflow: hidden;" viewBox="0 0 1024 1024" version="1.1" xmlns="http://www.w3.org/2000/svg"><path d="M456.170667 600.405333l79.808 46.08a42.666667 42.666667 0 1 0 12.266666-17.557333l-81.514666-47.061333a53.290667 53.290667 0 0 0 0-33.066667l77.504-44.736a32 32 0 1 0-10.453334-18.602667l-77.610666 44.8a53.333333 53.333333 0 1 0 0 70.144zM277.333333 213.333333h101.696a85.333333 85.333333 0 0 1 62.250667 26.965334l109.44 116.736A85.333333 85.333333 0 0 0 612.970667 384H746.666667a85.333333 85.333333 0 0 1 85.333333 85.333333v256a85.333333 85.333333 0 0 1-85.333333 85.333334H277.333333a85.333333 85.333333 0 0 1-85.333333-85.333334V298.666667a85.333333 85.333333 0 0 1 85.333333-85.333334z m264.832 21.333334H736a53.333333 53.333333 0 0 1 53.333333 53.333333V320a21.333333 21.333333 0 0 1-21.333333 21.333333h-144.149333a64 64 0 0 1-45.269334-18.752l-51.498666-51.498666A21.333333 21.333333 0 0 1 542.165333 234.666667z" fill="currentColor" /></svg>