<svg viewBox="0 0 24 24" fill="currentColor" xmlns="http://www.w3.org/2000/svg">
<g clip-path="url(#clip0_7247_1323)">
<path d="M23.8242 1.98503L22.6241 0.785134C22.3901 0.550941 22.0103 0.550758 21.7761 0.784767C21.7759 0.784951 21.7758 0.784951 21.7758 0.785134L14.5757 7.98503C14.4633 8.09764 14.3999 8.25017 14.3999 8.40929V9.60936C14.3999 9.9406 14.6685 10.2092 14.9999 10.2092H16.2C16.3591 10.2092 16.5117 10.146 16.6241 10.0336L23.8242 2.83354C24.0584 2.59934 24.0585 2.21977 23.8245 1.98539C23.8243 1.98539 23.8242 1.98521 23.8242 1.98503Z" fill="currentColor"/>
<path d="M16.2001 11.4092H15C14.0063 11.4082 13.201 10.6029 13.1999 9.60932V8.40925C13.1988 7.93171 13.3887 7.47339 13.7272 7.13666L17.8546 3.00928H3C1.34381 3.01111 0.00183106 4.35309 0 6.00928V16.8092C0.00183106 18.4654 1.34381 19.8076 3 19.8092H8.39997V22.8092C8.39997 23.1406 8.66859 23.4093 9.00001 23.4093C9.12983 23.4093 9.25617 23.3671 9.35999 23.2891L14.0006 19.8092H19.7999C21.4561 19.8074 22.7983 18.4652 22.7999 16.8092V5.55463L17.4727 10.8819C17.1358 11.2207 16.6776 11.4103 16.2001 11.4092ZM4.20008 6.60932H10.2001C10.5313 6.60932 10.7999 6.87793 10.7999 7.20935C10.7999 7.54059 10.5313 7.80921 10.2001 7.80921H4.20008C3.86866 7.80921 3.60004 7.54078 3.60004 7.20935C3.60004 6.87793 3.86866 6.60932 4.20008 6.60932ZM4.20008 10.2092H10.2001C10.5313 10.2092 10.7999 10.4778 10.7999 10.8092C10.7999 11.1406 10.5313 11.4092 10.2001 11.4092H4.20008C3.86866 11.4092 3.60004 11.1406 3.60004 10.8092C3.60004 10.478 3.86866 10.2092 4.20008 10.2092ZM19.1999 14.4093C19.1999 14.7407 18.9313 15.0093 18.6001 15.0093H4.20008C3.86866 15.0093 3.60004 14.7407 3.60004 14.4093C3.60004 14.078 3.86866 13.8092 4.20008 13.8092H18.6001C18.9313 13.8092 19.1999 14.0778 19.1999 14.4093Z" fill="currentColor"/>
</g>
<defs>
<clipPath id="clip0_7247_1323">
<rect width="24" height="24" fill="white"/>
</clipPath>
</defs>
</svg>
