<svg viewBox="0 0 24 24" fill="currentColor" xmlns="http://www.w3.org/2000/svg">
<g clip-path="url(#clip0_4927_82)">
<path d="M18.4144 22.8694C17.7964 22.594 17.2513 22.1783 16.8223 21.6552C16.3933 21.1321 16.0922 20.5161 15.9431 19.8563C15.9291 19.7963 15.8963 19.7424 15.8494 19.7025C15.3866 19.3022 14.9987 18.8229 14.7037 18.2869C14.5873 18.0814 14.5315 17.8471 14.5428 17.6111C14.5541 17.3752 14.6322 17.1473 14.7678 16.9539C14.9035 16.7606 15.0912 16.6096 15.3092 16.5187C15.5272 16.4277 15.7665 16.4004 15.9994 16.44C16.1502 16.4674 16.3038 16.4768 16.4569 16.4681C16.4981 16.4657 16.5383 16.4541 16.5746 16.4344C16.6109 16.4146 16.6424 16.3871 16.6669 16.3538C17.2592 15.5434 18.1218 14.9715 19.0988 14.7413C19.1598 14.7266 19.214 14.6918 19.2528 14.6424C19.2916 14.5931 19.3126 14.5321 19.3125 14.4694V12.4181C19.3124 12.3503 19.288 12.2847 19.2436 12.2334C19.1992 12.1821 19.1378 12.1485 19.0706 12.1388C18.9075 12.1144 18.7631 12.0881 18.63 12.0563C18.0729 11.9216 17.5444 11.6879 17.07 11.3663C17.0183 11.3293 16.9552 11.312 16.8919 11.3175C16.2035 11.3572 15.5137 11.2721 14.8556 11.0663C13.8208 10.7987 13.5906 9.31238 14.4956 8.74313C14.6695 8.62553 14.8271 8.48558 14.9644 8.32688C14.9912 8.29654 15.0111 8.26063 15.0224 8.22173C15.0338 8.18283 15.0363 8.1419 15.03 8.10188C14.903 7.21253 15.029 6.30539 15.3937 5.48438C15.718 4.74608 16.2257 4.10301 16.8686 3.61631C17.5116 3.12961 18.2683 2.81547 19.0669 2.70375C19.1361 2.69358 19.199 2.65798 19.2434 2.60389C19.2878 2.54981 19.3104 2.48112 19.3069 2.41125C19.2775 1.76142 18.9984 1.148 18.5279 0.698802C18.0574 0.249608 17.4317 -0.000712033 16.7812 1.52134e-06H7.21875C6.54773 0.000993429 5.90447 0.267996 5.42998 0.742483C4.95549 1.21697 4.68849 1.86023 4.6875 2.53125V6.7125C4.68791 6.75183 4.6965 6.79064 4.71271 6.82647C4.72892 6.86231 4.75241 6.89438 4.78168 6.92065C4.81094 6.94692 4.84536 6.96682 4.88273 6.97908C4.9201 6.99134 4.95961 6.9957 4.99875 6.99188C5.21363 6.96905 5.42954 6.95716 5.64563 6.95625C6.83134 6.95736 7.99168 7.29969 8.98811 7.94236C9.98455 8.58504 10.775 9.50091 11.265 10.5806C11.2811 10.6168 11.3046 10.6491 11.334 10.6756C11.3634 10.7021 11.398 10.7221 11.4356 10.7344C11.797 10.8528 12.1747 10.9136 12.555 10.9144C12.8315 10.9157 13.1021 10.9951 13.3354 11.1435C13.5687 11.2919 13.7554 11.5033 13.8738 11.7532C13.9922 12.0031 14.0375 12.2814 14.0045 12.556C13.9716 12.8305 13.8617 13.0902 13.6875 13.305C13.1027 14.0474 12.3785 14.6684 11.5556 15.1331C11.4955 15.1646 11.4493 15.2174 11.4262 15.2813C10.9866 16.4615 10.196 17.4787 9.16089 18.1961C8.12573 18.9134 6.89568 19.2965 5.63625 19.2938C5.42325 19.2921 5.21048 19.2795 4.99875 19.2563C4.95962 19.2525 4.92013 19.2569 4.88279 19.2692C4.84544 19.2815 4.81105 19.3014 4.7818 19.3276C4.75254 19.3539 4.72905 19.3859 4.71282 19.4217C4.69659 19.4575 4.68797 19.4963 4.6875 19.5356V21.4688C4.68849 22.1398 4.95549 22.783 5.42998 23.2575C5.90447 23.732 6.54773 23.999 7.21875 24H16.7812C17.4143 24.0001 18.0241 23.7618 18.4894 23.3325C18.5235 23.301 18.5494 23.2615 18.5645 23.2176C18.5797 23.1737 18.5838 23.1267 18.5763 23.0808C18.5689 23.0349 18.5502 22.9916 18.522 22.9547C18.4937 22.9178 18.4567 22.8885 18.4144 22.8694ZM10.2375 2.0625C10.0223 2.05577 9.81293 1.99085 9.63168 1.87464C9.45043 1.75842 9.30405 1.59526 9.20813 1.4025L8.75812 0.562502H15.2438L14.7919 1.4025C14.6959 1.59526 14.5496 1.75842 14.3683 1.87464C14.1871 1.99085 13.9777 2.05577 13.7625 2.0625H10.2375ZM13.9688 21.5625H10.0312C9.95666 21.5625 9.88512 21.5329 9.83238 21.4801C9.77963 21.4274 9.75 21.3558 9.75 21.2813C9.75 21.2067 9.77963 21.1351 9.83238 21.0824C9.88512 21.0296 9.95666 21 10.0312 21H13.9688C14.0433 21 14.1149 21.0296 14.1676 21.0824C14.2204 21.1351 14.25 21.2067 14.25 21.2813C14.25 21.3558 14.2204 21.4274 14.1676 21.4801C14.1149 21.5329 14.0433 21.5625 13.9688 21.5625Z" fill="currentColor"/>
<path d="M19.7783 19.3125H20.5212L20.7222 18.5625H19.9793L19.7783 19.3125Z" fill="currentColor"/>
<path d="M18.7162 15.45C17.9823 15.7449 17.3629 16.2682 16.9496 16.9425C16.9433 16.9524 16.9351 16.9608 16.9254 16.9672C16.9157 16.9737 16.9048 16.9781 16.8933 16.98C16.5663 17.0464 16.2298 17.0515 15.9009 16.9952C15.7734 16.9736 15.6423 16.9885 15.523 17.0384C15.4036 17.0883 15.3009 17.171 15.2267 17.2769C15.1525 17.3829 15.1099 17.5077 15.1038 17.6369C15.0977 17.7661 15.1284 17.8943 15.1923 18.0068C15.4924 18.5623 15.908 19.0471 16.4111 19.4286C16.4198 19.4347 16.4273 19.4424 16.433 19.4514C16.4387 19.4604 16.4426 19.4704 16.4445 19.4809C16.7083 21.2892 18.4104 22.72 20.1871 22.7005C20.8674 22.6927 21.5327 22.5 22.1116 22.1428C22.6906 21.7857 23.1615 21.2777 23.4737 20.6733C23.7859 20.0689 23.9276 19.3909 23.8838 18.7121C23.8399 18.0332 23.612 17.3791 23.2246 16.8199C22.7384 16.1159 22.028 15.5973 21.2094 15.3485C20.3907 15.0998 19.5119 15.1356 18.7162 15.45ZM21.8441 18.5625H21.3046L21.1038 19.3125H21.6566C21.7312 19.3125 21.8027 19.3422 21.8555 19.3949C21.9082 19.4477 21.9378 19.5192 21.9378 19.5938C21.9378 19.6684 21.9082 19.7399 21.8555 19.7927C21.8027 19.8454 21.7312 19.875 21.6566 19.875H20.9531L20.7733 20.5457C20.7637 20.5814 20.7472 20.6149 20.7247 20.6442C20.7022 20.6735 20.6741 20.6982 20.6421 20.7166C20.6101 20.7351 20.5748 20.7471 20.5381 20.7519C20.5015 20.7568 20.4643 20.7543 20.4285 20.7448C20.3928 20.7352 20.3594 20.7187 20.33 20.6962C20.3007 20.6737 20.2761 20.6456 20.2576 20.6136C20.2392 20.5816 20.2272 20.5463 20.2223 20.5096C20.2175 20.473 20.22 20.4357 20.2295 20.4L20.3701 19.875H19.6273L19.4454 20.554C19.4358 20.5897 19.4193 20.6231 19.3968 20.6525C19.3743 20.6818 19.3463 20.7064 19.3143 20.7249C19.2822 20.7434 19.2469 20.7554 19.2103 20.7602C19.1736 20.765 19.1364 20.7626 19.1007 20.753C19.065 20.7434 19.0315 20.7269 19.0022 20.7044C18.9729 20.6819 18.9482 20.6539 18.9298 20.6219C18.9113 20.5899 18.8993 20.5545 18.8945 20.5179C18.8896 20.4812 18.8921 20.444 18.9016 20.4083L19.0445 19.875H18.6566C18.582 19.875 18.5104 19.8454 18.4577 19.7927C18.405 19.7399 18.3753 19.6684 18.3753 19.5938C18.3753 19.5192 18.405 19.4477 18.4577 19.3949C18.5104 19.3422 18.582 19.3125 18.6566 19.3125H19.196L19.3968 18.5625H18.8441C18.7695 18.5625 18.6979 18.5329 18.6452 18.4802C18.5925 18.4274 18.5628 18.3559 18.5628 18.2813C18.5628 18.2067 18.5925 18.1352 18.6452 18.0824C18.6979 18.0297 18.7695 18 18.8441 18H19.5476L19.7274 17.3293C19.7467 17.2572 19.7939 17.1958 19.8585 17.1584C19.9232 17.1211 20 17.111 20.0721 17.1303C20.1442 17.1496 20.2057 17.1968 20.243 17.2615C20.2803 17.3261 20.2905 17.4029 20.2711 17.475L20.1305 18H20.8734L21.0553 17.3211C21.0648 17.2854 21.0813 17.2519 21.1038 17.2226C21.1263 17.1933 21.1544 17.1687 21.1864 17.1502C21.2184 17.1317 21.2538 17.1197 21.2904 17.1149C21.327 17.1101 21.3643 17.1125 21.4 17.1221C21.4357 17.1316 21.4692 17.1481 21.4985 17.1706C21.5278 17.1931 21.5524 17.2212 21.5709 17.2532C21.5894 17.2852 21.6014 17.3206 21.6062 17.3572C21.611 17.3938 21.6086 17.4311 21.599 17.4668L21.4554 18H21.8441C21.9187 18 21.9902 18.0297 22.043 18.0824C22.0957 18.1352 22.1253 18.2067 22.1253 18.2813C22.1253 18.3559 22.0957 18.4274 22.043 18.4802C21.9902 18.5329 21.9187 18.5625 21.8441 18.5625Z" fill="currentColor"/>
<path d="M15.9094 5.71158C15.5467 6.52342 15.4515 7.42957 15.6375 8.29908C15.6413 8.31759 15.6413 8.3367 15.6373 8.35519C15.6334 8.37367 15.6257 8.39115 15.6147 8.40651C15.3994 8.7215 15.1276 8.9938 14.8129 9.20958C14.6984 9.2885 14.6084 9.39811 14.5533 9.52584C14.4981 9.65356 14.4801 9.79423 14.5013 9.93172C14.5224 10.0692 14.5819 10.198 14.6729 10.3032C14.7638 10.4084 14.8826 10.4859 15.0156 10.5268C15.6856 10.7438 16.3946 10.8132 17.094 10.7304C17.1099 10.728 17.1261 10.7289 17.1417 10.7328C17.1573 10.7367 17.1719 10.7437 17.1848 10.7533C17.925 11.317 18.8286 11.6244 19.759 11.6289C22.8409 11.643 24.912 8.27076 23.4878 5.50364C21.8879 2.39639 17.3275 2.50157 15.9094 5.71158ZM20.0391 9.30708C19.9606 9.3516 19.8719 9.375 19.7817 9.375C19.6914 9.375 19.6027 9.3516 19.5242 9.30708C18.4242 8.68176 17.7992 7.90532 17.8259 6.92114C17.8252 6.77621 17.8531 6.63256 17.9079 6.49841C17.9628 6.36426 18.0435 6.24222 18.1455 6.13927C18.2475 6.03632 18.3688 5.95447 18.5025 5.89839C18.6361 5.84232 18.7795 5.81311 18.9244 5.81245C19.0894 5.81237 19.2523 5.84974 19.4008 5.92174C19.5493 5.99375 19.6795 6.09851 19.7817 6.22814C19.8838 6.09851 20.014 5.99375 20.1625 5.92174C20.311 5.84974 20.4739 5.81237 20.6389 5.81245C20.7838 5.81311 20.9272 5.84232 21.0609 5.89839C21.1945 5.95447 21.3158 6.03632 21.4178 6.13927C21.5198 6.24222 21.6006 6.36426 21.6554 6.49841C21.7103 6.63256 21.7381 6.77621 21.7375 6.92114C21.765 7.90532 21.1392 8.6812 20.0391 9.30708Z" fill="currentColor"/>
<path d="M10.9689 14.886C10.9804 14.8527 10.9983 14.8219 11.0216 14.7956C11.045 14.7692 11.0734 14.7478 11.1051 14.7324C11.9414 14.2993 12.6741 13.6903 13.2529 12.9472C13.3594 12.8149 13.4264 12.6552 13.4462 12.4865C13.4661 12.3178 13.438 12.1469 13.3653 11.9935C13.2925 11.84 13.1779 11.7101 13.0347 11.6188C12.8915 11.5275 12.7254 11.4783 12.5556 11.477C12.0252 11.4743 11.4999 11.3731 11.0064 11.1785C10.9695 11.1646 10.9358 11.1433 10.9074 11.1158C10.8789 11.0884 10.8565 11.0554 10.8413 11.019C10.396 9.91969 9.61307 8.99029 8.60532 8.36492C4.64176 5.88054 -0.441365 9.17829 0.0823226 13.8037C0.391885 16.5375 2.92089 18.7957 5.6477 18.7387C7.94832 18.789 10.2698 17.1433 10.9689 14.886ZM4.3127 15.5102C4.22739 15.5601 4.13031 15.5865 4.03145 15.5865H3.28145C3.13226 15.5865 2.98919 15.5272 2.8837 15.4217C2.77821 15.3162 2.71895 15.1732 2.71895 15.024V12.2115C2.71895 12.0623 2.77821 11.9192 2.8837 11.8137C2.98919 11.7082 3.13226 11.649 3.28145 11.649H4.03145C4.13016 11.6488 4.22718 11.6747 4.3127 11.724V15.5102ZM4.8752 15.2582V11.8895C5.42607 11.3784 5.78045 10.3378 6.01651 9.84729C6.43201 8.98329 7.26901 10.1422 7.06445 10.766C6.99376 10.982 6.84395 11.6473 6.84395 11.6473C7.2915 11.6473 7.72072 11.8251 8.03719 12.1415C8.35366 12.458 8.53145 12.8872 8.53145 13.3348V13.8973C8.53145 14.3448 8.35366 14.7741 8.03719 15.0905C7.72072 15.407 7.2915 15.5848 6.84395 15.5848H5.79695C5.62231 15.5848 5.45007 15.5441 5.29389 15.4659L4.8752 15.2582Z" fill="currentColor"/>
</g>
<defs>
<clipPath id="clip0_4927_82">
<rect width="24" height="24" fill="white"/>
</clipPath>
</defs>
</svg>
