<svg viewBox="0 0 24 24" fill="currentColor" xmlns="http://www.w3.org/2000/svg">
<g clip-path="url(#clip0_3593_239)">
<path d="M13.6324 15.9427C13.5428 15.8445 13.4294 15.7711 13.3122 15.7099C13.0571 15.5769 12.778 15.4962 12.501 15.4233V17.5702C12.9507 17.5194 13.467 17.3562 13.7031 16.9364C13.8158 16.7358 13.8382 16.4894 13.7923 16.2662C13.7674 16.1452 13.7159 16.0342 13.6324 15.9427Z" fill="currentColor"/>
<path d="M13.7007 16.9404C13.7016 16.9389 13.7021 16.9379 13.7031 16.9363C13.7023 16.9376 13.7015 16.939 13.7007 16.9404Z" fill="currentColor"/>
<path d="M10.3916 12.5106C10.3143 12.6235 10.2658 12.7517 10.2524 12.8881C10.239 13.0247 10.2465 13.1766 10.2984 13.3052C10.3478 13.4278 10.4514 13.5182 10.5582 13.5911C10.6781 13.6726 10.81 13.7363 10.9442 13.7903C11.0569 13.8357 11.1836 13.879 11.3202 13.921V11.9783C10.9751 12.0519 10.5981 12.2091 10.3916 12.5106Z" fill="currentColor"/>
<path d="M13.712 16.9204C13.7092 16.9254 13.7061 16.9307 13.7031 16.9362C13.7066 16.9298 13.7094 16.925 13.712 16.9204Z" fill="currentColor"/>
<path d="M13.7231 16.9004C13.7239 16.899 13.724 16.8989 13.7231 16.9004V16.9004Z" fill="currentColor"/>
<path d="M13.2572 5.22201C15.0829 3.68831 16.3028 0.233111 15.5521 0.0819888C14.5545 -0.118886 12.3883 0.761927 11.3413 0.917115C9.85629 1.09642 8.23889 -0.693219 7.33103 0.304324C6.59287 1.11539 7.86024 4.06499 9.84307 5.34998C3.92739 8.25745 -4.38751 22.8532 10.1183 23.9122C30.1895 25.3777 20.1391 8.05528 13.2572 5.22201ZM14.9809 16.7329C14.9192 17.3019 14.6176 17.8165 14.1668 18.1659C13.6909 18.5347 13.0939 18.7063 12.5008 18.7544V19.3831C12.5008 19.5513 12.4273 19.714 12.3014 19.8254C12.1283 19.9785 11.8739 20.0163 11.6638 19.9195C11.4564 19.8241 11.3201 19.6113 11.3201 19.3831V18.6959C11.2184 18.6766 11.1174 18.6536 11.0177 18.6262C10.4633 18.4739 9.94913 18.177 9.57353 17.7378C9.38643 17.5188 9.2339 17.2704 9.1284 17.0022C9.10084 16.9321 9.07628 16.8608 9.05476 16.7886C9.03528 16.7232 9.01517 16.6568 9.00823 16.5887C8.99654 16.4745 9.01918 16.3579 9.07244 16.2562C9.18188 16.0468 9.41252 15.9204 9.64801 15.9414C9.87978 15.9619 10.0829 16.1228 10.1559 16.3437C10.1784 16.4117 10.1936 16.4815 10.2188 16.5488C10.2439 16.6157 10.2741 16.6807 10.3096 16.7426C10.3797 16.8644 10.4676 16.9768 10.5688 17.0743C10.7774 17.2753 11.0431 17.4059 11.3201 17.4837V15.1478C10.7785 15.0076 10.2194 14.8265 9.77214 14.4787C9.55478 14.3096 9.37033 14.0996 9.24954 13.8509C9.12208 13.5885 9.06928 13.2961 9.06713 13.0057C9.06493 12.7109 9.12095 12.4186 9.24395 12.15C9.35915 11.8984 9.52501 11.6726 9.72837 11.4854C10.1632 11.0852 10.7408 10.8619 11.3202 10.7799V10.7286V10.1273C11.3202 9.9591 11.3937 9.79635 11.5196 9.68498C11.6927 9.53188 11.947 9.49405 12.1571 9.59084C12.3645 9.68634 12.5008 9.89901 12.5008 10.1273V10.7286V10.7764C12.578 10.7861 12.655 10.7977 12.7316 10.8116C13.3005 10.9146 13.8569 11.1495 14.2729 11.5597C14.47 11.7539 14.6314 11.9854 14.7448 12.2379C14.7765 12.3083 14.8042 12.3803 14.8282 12.4538C14.8506 12.5223 14.8731 12.5928 14.8838 12.6643C14.9008 12.7785 14.8834 12.8964 14.8346 13.0008C14.7345 13.2147 14.5101 13.3509 14.274 13.3408C14.042 13.3307 13.8318 13.1797 13.7487 12.9628C13.724 12.8983 13.7116 12.83 13.6864 12.7657C13.6609 12.7006 13.6279 12.6385 13.5899 12.5798C13.516 12.4657 13.4203 12.3679 13.311 12.2873C13.0744 12.1126 12.7874 12.0216 12.5006 11.9707V14.206C12.8415 14.2876 13.1826 14.3766 13.5091 14.5054C14.0026 14.7 14.4703 14.9984 14.7396 15.4689C14.6979 15.3956 14.6572 15.3242 14.7411 15.4713C14.8234 15.6159 14.7841 15.547 14.7427 15.4746C14.9571 15.8523 15.0275 16.3039 14.9809 16.7329Z" fill="currentColor"/>
<path d="M13.6944 16.9515C13.6909 16.9577 13.6879 16.9631 13.6855 16.9672C13.6876 16.9637 13.6906 16.9583 13.6944 16.9515Z" fill="currentColor"/>
</g>
<defs>
<clipPath id="clip0_3593_239">
<rect width="24" height="24" fill="white"/>
</clipPath>
</defs>
</svg>
