<svg  viewBox="0 0 12 12" fill="currentColor" xmlns="http://www.w3.org/2000/svg">
<g clip-path="url(#clip0_2538_339)">
<path d="M11.0156 2.92587L8.70837 1.00915L8.05648 1.78097L10.3637 3.69743L11.0156 2.92587ZM3.91856 1.75591L3.26639 0.984375L0.984375 2.92587L1.63627 3.69741L3.91856 1.75591ZM6.2508 4.04597H5.49844V7.03298L7.88084 8.45187L8.25703 7.82953L6.25078 6.6596V4.04597H6.2508ZM6 2.05465C3.49219 2.05465 1.48591 4.07077 1.48591 6.5351C1.48591 8.99953 3.49219 11.0156 6 11.0156C8.48287 11.0156 10.5141 8.99953 10.5141 6.5351C10.5141 4.07079 8.48287 2.05465 6 2.05465ZM6 10.02C4.06891 10.02 2.48906 8.45189 2.48906 6.53512C2.48906 4.61848 4.06891 3.05034 6 3.05034C7.93111 3.05034 9.51094 4.61845 9.51094 6.53512C9.51094 8.47666 7.93111 10.02 6 10.02Z" fill="currentColor"/>
</g>
<defs>
<clipPath id="clip0_2538_339">
<rect width="12" height="12" fill="white"/>
</clipPath>
</defs>
</svg>
