<svg viewBox="0 0 136 136" fill="currentColor" xmlns="http://www.w3.org/2000/svg">
<g clip-path="url(#clip0_40_10)">
<path d="M97.2157 61.1851L67.6475 96.4231C61.9653 103.195 51.878 104.077 45.1062 98.3952C38.3344 92.713 37.4518 82.6258 43.1341 75.8539L75.2735 37.5517C78.8216 33.3232 85.1332 32.771 89.3618 36.3191C93.5903 39.8673 94.1425 46.1789 90.5943 50.4075L63.5973 82.5813C62.1831 84.2666 59.6472 84.4885 57.9619 83.0744C56.2766 81.6602 56.0548 79.1243 57.4689 77.439L81.8948 48.3293L77.2986 44.4726L52.8726 73.5823C49.3245 77.8109 49.8766 84.1224 54.1052 87.6706C58.3338 91.2188 64.6453 90.6666 68.1935 86.4381L95.1906 54.2642C100.873 47.4924 99.9903 37.4051 93.2185 31.7229C86.4467 26.0406 76.3594 26.9232 70.6772 33.695L38.5378 71.9972C30.7215 81.3123 31.9344 95.1752 41.2495 102.992C50.5646 110.808 64.4275 109.595 72.2438 100.28L101.812 65.0418L97.2157 61.1851Z" fill="currentColor"/>
</g>
<defs>
<clipPath id="clip0_40_10">
<rect width="96" height="96" fill="white" transform="translate(62.0837 0.376053) rotate(40)"/>
</clipPath>
</defs>
</svg>
