<svg viewBox="0 0 24 24" fill="currentColor" xmlns="http://www.w3.org/2000/svg">
<g clip-path="url(#clip0_3593_6)">
<path d="M23.5971 10.9252L19.9598 7.28788V3.08616C19.9598 2.32644 19.3442 1.71074 18.5833 1.71074C17.8242 1.71074 17.2086 2.32644 17.2086 3.08616V4.53668L14.5003 1.82832C13.1613 0.490046 10.8333 0.49242 9.49731 1.83074L0.402658 10.9252C-0.134219 11.4631 -0.134219 12.3336 0.402658 12.8707C0.939778 13.4085 1.8119 13.4085 2.34883 12.8707L11.4426 3.77599C11.7389 3.48129 12.261 3.48129 12.5557 3.77511L21.651 12.8707C21.9207 13.1396 22.2723 13.2734 22.6239 13.2734C22.9761 13.2734 23.3283 13.1395 23.5972 12.8707C24.1343 12.3336 24.1343 11.4632 23.5971 10.9252Z" fill="currentColor"/>
<path d="M12.4778 6.3869C12.2136 6.12282 11.7857 6.12282 11.5223 6.3869L3.52261 14.3842C3.39631 14.5105 3.32471 14.6828 3.32471 14.8627V20.6956C3.32471 22.0644 4.43451 23.1741 5.8032 23.1741H9.76384V17.0404H14.2354V23.1741H18.196C19.5647 23.1741 20.6745 22.0644 20.6745 20.6957V14.8627C20.6745 14.6828 20.6035 14.5105 20.4766 14.3842L12.4778 6.3869Z" fill="currentColor"/>
</g>
<defs>
<clipPath id="clip0_3593_6">
<rect width="24" height="24" fill="white"/>
</clipPath>
</defs>
</svg>
