<svg viewBox="0 0 24 24" fill="currentColor" xmlns="http://www.w3.org/2000/svg">
<path fill-rule="evenodd" clip-rule="evenodd" d="M6.87314 13.2947L4.56783 14.6304L6.66197 18.3306L7.01091 18.1291L11.7453 19.3977C12.4263 19.5802 13.0831 19.494 13.6835 19.1244L20.2106 15.1053C21.1402 14.533 20.7295 12.0279 17.9337 13.6562L14.337 15.7511C14.1868 15.8386 14.0343 15.9069 13.8791 15.9573C13.5983 16.5461 13.0046 16.7725 12.3781 16.6951C11.6023 16.6005 10.7139 16.2597 9.94739 16.0544C9.74756 16.001 9.62887 15.7956 9.68226 15.5959C9.73565 15.396 9.94092 15.2774 10.1407 15.3307C10.8823 15.5294 11.7266 15.8751 12.4689 15.951C12.9545 16.011 13.353 15.6969 13.4777 15.2314C13.6224 14.6915 13.2908 14.1589 12.759 13.9865C11.3262 13.7281 9.92128 13.1289 9.06089 12.8499C8.28914 12.5996 7.57523 12.888 6.87314 13.2947ZM4.90237 3.0127L5.99606 3.64415L2.23542 5.8154L1.14169 5.18395L4.90237 3.0127ZM3.56658 14.384L6.53344 19.6263C6.67687 19.8797 6.58687 20.2045 6.33337 20.348L5.32425 20.9191C5.07075 21.0626 4.746 20.9726 4.60256 20.7191L1.63566 15.4768C1.49222 15.2234 1.58222 14.8986 1.83572 14.7551L2.84489 14.184C3.09834 14.0405 3.42309 14.1306 3.56658 14.384ZM2.82694 15.065C2.63006 15.0938 2.49375 15.2767 2.52258 15.4737C2.55136 15.6705 2.73431 15.8069 2.93119 15.7781C3.12806 15.7493 3.26437 15.5663 3.23559 15.3694C3.20681 15.1725 3.02386 15.0362 2.82694 15.065ZM14.732 8.94487C14.9391 8.94487 15.107 9.11277 15.107 9.31987C15.107 9.52696 14.9391 9.69487 14.732 9.69487H11.5696L11.7345 9.80676C11.9052 9.92245 11.9498 10.1546 11.8342 10.3253C11.7185 10.496 11.4863 10.5406 11.3156 10.4249L10.1425 9.62896C9.91936 9.47774 9.92719 9.14976 10.1491 9.00632L11.3156 8.21484C11.4863 8.09915 11.7185 8.14373 11.8342 8.31445C11.9498 8.48512 11.9053 8.71734 11.7345 8.83298L11.5696 8.94487H14.732ZM13.7685 7.35946C13.5978 7.47515 13.3656 7.43052 13.2499 7.25985C13.1342 7.08918 13.1788 6.85696 13.3495 6.74132L13.5144 6.62943H10.3521C10.145 6.62943 9.97706 6.46152 9.97706 6.25443C9.97706 6.04734 10.145 5.87943 10.3521 5.87943H13.5144L13.3495 5.76759C13.1789 5.6519 13.1342 5.41973 13.2499 5.24905C13.3656 5.07838 13.5978 5.03376 13.7685 5.14945L14.935 5.94093C15.1569 6.08441 15.1648 6.41231 14.9416 6.56357L13.7685 7.35946ZM15.6004 11.5864L22.9976 11.5863C23.1443 11.5863 23.2541 11.4553 23.2283 11.3108C22.8954 9.44263 21.2629 8.02424 19.299 8.02424C17.3351 8.02424 15.7026 9.44263 15.3696 11.3109C15.3439 11.4553 15.4537 11.5864 15.6004 11.5864ZM19.299 3.60304C20.4136 3.60304 21.3172 4.5066 21.3172 5.6212C21.3172 6.73579 20.4136 7.63935 19.299 7.63935C18.1845 7.63935 17.2809 6.73579 17.2809 5.6212C17.2808 4.5066 18.1845 3.60304 19.299 3.60304ZM6.74433 4.07615L2.98369 6.2474L3.12652 6.32985L3.43453 6.5077L7.19517 4.33645L6.74433 4.07615ZM7.94339 4.76845L4.18275 6.9397L4.90237 7.3552L8.66306 5.18395L7.94339 4.76845ZM9.03717 5.8319V10.1744L5.27737 12.3451V8.00263L9.03717 5.8319ZM4.52737 12.3451L0.767578 10.1744V5.8319L1.86042 6.46288L1.86197 8.12746C1.86211 8.25665 1.92933 8.38223 2.04937 8.45118L3.21745 9.12557C3.27872 9.16912 3.35363 9.19476 3.43448 9.19476C3.64158 9.19476 3.80948 9.02685 3.80948 8.81976V7.58816L4.52733 8.00263V12.3451H4.52737ZM3.05953 7.15518L2.61042 6.89587V7.91282L3.05953 8.17209V7.15518Z" fill="currentColor"/>
</svg>
