<svg xmlns="http://www.w3.org/2000/svg" viewBox="0 0 20 19.61">
  <path
    d="M11.2,12.86,7.45,10.7A.61.61,0,0,0,7,10.64a.64.64,0,0,0-.45.78.59.59,0,0,0,.29.38l3.94,2.27h0a.64.64,0,0,0,.52.09h0l2.22-.6a.59.59,0,0,0,.38-.29.63.63,0,0,0-.23-.87.58.58,0,0,0-.48-.06Z"
    transform="translate(-2 -2.19)"
    fill-rule="evenodd"
  />
  <path
    d="M20.9,6.55a1,1,0,0,1,.78.32,1.2,1.2,0,0,1,.32.81,1.06,1.06,0,0,1-.33.77,1.15,1.15,0,0,1-.79.35H17.66V12a1.15,1.15,0,0,1-.33.8,1.1,1.1,0,0,1-1.6,0A1.12,1.12,0,0,1,15.4,12l0-3.18H12.16a1.35,1.35,0,0,1-.78-.33,1,1,0,0,1-.36-.8,1.17,1.17,0,0,1,.31-.79,1.07,1.07,0,0,1,.79-.36H15.4V3.27a1,1,0,0,1,.33-.76,1.36,1.36,0,0,1,.79-.32,1,1,0,0,1,.82.34,1.3,1.3,0,0,1,.31.8v3.2Z"
    transform="translate(-2 -2.19)"
  />
  <path
    d="M18.4,9.55V12a1.88,1.88,0,0,1-.52,1.29,1.94,1.94,0,0,1-.68.47,6.36,6.36,0,1,1-6.53-7.23,1.58,1.58,0,0,1,.12-.15A1.76,1.76,0,0,1,12.1,5.8h2.56v-1a8.89,8.89,0,1,0,4.48,4.7Z"
    transform="translate(-2 -2.19)"
    fill-rule="evenodd"
  />
</svg>
